<svg id="Group_510" data-name="Group 510" xmlns="http://www.w3.org/2000/svg" xmlns:xlink="http://www.w3.org/1999/xlink" width="33.741" height="35.061" viewBox="0 0 33.741 35.061">
  <defs>
    <clipPath id="clip-path">
      <rect id="Rectangle_566" data-name="Rectangle 566" width="33.741" height="35.061" fill="#fff"/>
    </clipPath>
  </defs>
  <g id="Group_509" data-name="Group 509" clip-path="url(#clip-path)">
    <path id="Path_1023" data-name="Path 1023" d="M9.674,35.061c0-.947.019-1.894,0-2.84a.623.623,0,0,1,.306-.583c1.47-1.043,2.928-2.1,4.4-3.146a.492.492,0,0,0,.239-.506q-.35-4.383-.679-8.768c-.037-.477-.07-.955-.109-1.489L0,22.031c0-1.107-.008-2.155.012-3.2,0-.1.151-.236.263-.3q4.586-2.66,9.179-5.306c1.195-.69,2.387-1.384,3.588-2.062a.436.436,0,0,0,.255-.485c-.13-1.58-.258-3.161-.364-4.743a7.1,7.1,0,0,1,.592-3.573,3.74,3.74,0,0,1,2.781-2.3,3.286,3.286,0,0,1,3.156,1.165,5.04,5.04,0,0,1,1.288,3.315c.032,1.352-.083,2.709-.151,4.063-.035.695-.1,1.388-.169,2.08a.432.432,0,0,0,.263.48q6.315,3.632,12.626,7.27a.7.7,0,0,1,.42.714c-.028.944-.01,1.889-.01,2.886L19.9,17.727c-.072.9-.144,1.756-.21,2.617-.194,2.548-.382,5.1-.584,7.643a.491.491,0,0,0,.241.5c1.487,1.058,2.964,2.13,4.451,3.188a.508.508,0,0,1,.249.473c-.01.97,0,1.939.005,2.909h-.137a.5.5,0,0,0-.11-.069q-3.372-1.055-6.746-2.1a.841.841,0,0,0-.461.027q-2.187.667-4.368,1.354c-.81.255-1.616.525-2.424.788Z" transform="translate(0 0)" fill="#fff"/>
  </g>
</svg>
