<svg id="Group_1481" data-name="Group 1481" xmlns="http://www.w3.org/2000/svg" xmlns:xlink="http://www.w3.org/1999/xlink" width="18.863" height="11.438" viewBox="0 0 18.863 11.438">
  <defs>
    <clipPath id="clip-path">
      <rect id="Rectangle_911" data-name="Rectangle 911" width="18.863" height="11.438" fill="#d69a5e"/>
    </clipPath>
  </defs>
  <g id="Group_1452" data-name="Group 1452" clip-path="url(#clip-path)">
    <path id="Path_1748" data-name="Path 1748" d="M7.784,7.121,3.944.465,4.255.378C4.7.257,5.144.142,5.586.014A.249.249,0,0,1,5.86.087Q8.928,2.955,12,5.822a.34.34,0,0,0,.372.091c1.532-.418,3.067-.825,4.6-1.241a1.408,1.408,0,0,1,1.454.312,1.387,1.387,0,0,1-.668,2.367q-3.285.888-6.573,1.764-4.3,1.152-8.6,2.305A.208.208,0,0,1,2.3,11.3C1.567,10.025.829,8.752.093,7.476.063,7.425.038,7.371,0,7.3c.435-.118.852-.236,1.272-.34a.282.282,0,0,1,.19.077c.528.411,1.051.829,1.581,1.237a.327.327,0,0,0,.242.066c1.477-.388,2.951-.784,4.425-1.179a.516.516,0,0,0,.073-.038" transform="translate(0 0)" fill="#d69a5e"/>
  </g>
</svg>
