<svg xmlns="http://www.w3.org/2000/svg" xmlns:xlink="http://www.w3.org/1999/xlink" width="36.338" height="36.517" viewBox="0 0 36.338 36.517">
  <defs>
    <clipPath id="clip-path">
      <rect id="Rectangle_41" data-name="Rectangle 41" width="36.338" height="36.517"/>
    </clipPath>
  </defs>
  <g id="Group_28" data-name="Group 28" clip-path="url(#clip-path)">
    <path id="Path_153" data-name="Path 153" d="M0,16.809c.14-.834.242-1.676.427-2.5A18.183,18.183,0,1,1,21.133,36.215c-.832.147-1.679.2-2.519.3h-.852a3.179,3.179,0,0,0-.465-.093A18.106,18.106,0,0,1,.593,22.819C.33,21.806.195,20.759,0,19.729v-2.92M1.193,18.23A16.989,16.989,0,1,0,18.153,1.215,17.037,17.037,0,0,0,1.193,18.23" transform="translate(0 0)"/>
    <path id="Path_154" data-name="Path 154" d="M92.468,65.429,91.5,70.911l-14.762-2.6,3.243-18.448,2.911.517c-1.843,3.537-2.176,7.03.13,10.444,2.234,3.308,5.461,4.676,9.451,4.609m-6.146.4-.037.115a1.75,1.75,0,0,0-.3,0c-.432.077-.86.2-.947.707a.823.823,0,0,0,.659.961,8.53,8.53,0,0,0,2.064.241c.219,0,.57-.371.613-.615A.935.935,0,0,0,88,66.453a11.654,11.654,0,0,0-1.678-.619m-8.014.43.084.168a6.365,6.365,0,0,1,1.573-.1,6.728,6.728,0,0,1,1.477.637,7.859,7.859,0,0,0-.687-1.8.8.8,0,0,0-1.1-.189c-.46.415-.9.853-1.347,1.281M83.8,65.91l1.072.049.014-.246-2.827-.5L82,65.464l1.02.3-.212,1.42.717.1L83.8,65.91m5.318.566-.307,1.791,2.474.387.051-.266-1.7-.353.216-1.431-.731-.129" transform="translate(-67.368 -43.773)"/>
    <path id="Path_155" data-name="Path 155" d="M158.543,65.084,156.4,77.148c-.432-.065-.829-.1-1.212-.186a7.457,7.457,0,0,1-5.813-7.288,5.965,5.965,0,0,1,2-4.156c.143-.143.306-.266.449-.409a2.625,2.625,0,0,1,2.792-.756c1.258.348,2.573.489,3.922.732" transform="translate(-131.143 -56.386)"/>
    <path id="Path_156" data-name="Path 156" d="M221.9,209.342l-3-2.375c.38-.481.724-.926,1.078-1.362a1.653,1.653,0,0,1,2.487-.419,1.9,1.9,0,0,1,.568,2.669c-.326.505-.73.96-1.136,1.487m.241-.9c.477-.5.839-.995.521-1.621a2.067,2.067,0,0,0-1.614-1.235c-.664-.073-.987.424-1.312.95l2.4,1.906" transform="translate(-192.185 -179.796)"/>
    <path id="Path_157" data-name="Path 157" d="M57.186,223.832a2.411,2.411,0,0,1-2.254-2.211,2.133,2.133,0,0,1,2.079-1.975,2.438,2.438,0,0,1,2.252,2.219,2.094,2.094,0,0,1-2.077,1.967m-.481-.593a2.269,2.269,0,0,0,1.867-1.955,1.074,1.074,0,0,0-1.411-.989,2.424,2.424,0,0,0-1.482,1.514,1.072,1.072,0,0,0,1.026,1.43" transform="translate(-48.226 -192.835)"/>
    <path id="Path_158" data-name="Path 158" d="M33.347,191.057c.243.409.451.754.654,1.1.273.467.539.959.071,1.437s-.979.373-1.524-.033l-.983,1.882c-.489-.461-.639-.913-.184-1.472a2.711,2.711,0,0,0,.477-1.039l-1.354.785L30.053,193l3.294-1.945m.127.923-1.228.724c.414.558.732.616,1.2.28.415-.3.364-.621.032-1" transform="translate(-26.385 -167.736)"/>
    <path id="Path_159" data-name="Path 159" d="M19.81,168.383l-.211-.811,3.687-1.016c.144.636.321,1.248.409,1.873a.77.77,0,0,1-.611.861.988.988,0,0,1-1.2-.3,8.614,8.614,0,0,1-.54-1l-1.532.391m3.322-.9-1.4.4c.193.617.57.748,1.061.564.407-.153.638-.424.337-.962" transform="translate(-17.207 -146.226)"/>
    <path id="Path_160" data-name="Path 160" d="M201.315,228.534l.673.965.978-.7.261.33-1,.706.8,1.14.979-.753.3.364-1.737,1.228-2.17-3.081c1.157-1.059,1.616-1.276,1.957-.893l-1.043.7" transform="translate(-175.939 -199.872)"/>
    <path id="Path_161" data-name="Path 161" d="M121.577,249.108l-.038.4-1.2-.2-.257,1.369a6.843,6.843,0,0,1,.863.122c.132.035.234.181.35.276-.126.054-.26.168-.377.153-.557-.072-1.109-.178-1.733-.284l.628-3.753,2.032.336c-.048.33-.048.33-1.255.266l-.194,1.095,1.183.217" transform="translate(-104.635 -217.022)"/>
    <path id="Path_162" data-name="Path 162" d="M149.272,248.442l-.093.511c-.852-.487-1.388-.466-1.811.049a2.168,2.168,0,0,0,.054,2.444c.476.568.995.57,2.053.007l.122.125c-.187.176-.345.426-.567.515a2.035,2.035,0,0,1-2.508-3.1,2.417,2.417,0,0,1,2.75-.546" transform="translate(-128.259 -217.934)"/>
    <path id="Path_163" data-name="Path 163" d="M178.1,243.481l-.781.308-1.259-3.163-.872.383-.153-.087c.067-.141.1-.363.207-.41q1.024-.45,2.08-.823c.125-.044.308.08.465.127l-.037.175-.875.329,1.225,3.161" transform="translate(-153.67 -210.424)"/>
    <path id="Path_164" data-name="Path 164" d="M94.347,242.136l-.763-.36,1.331-3.116-.865-.342-.068-.152c.155-.057.343-.2.459-.155.7.269,1.381.568,2.054.89.109.052.138.273.2.416l-.152.086-.839-.389-1.361,3.122" transform="translate(-82.161 -208.951)"/>
    <path id="Path_165" data-name="Path 165" d="M151.6,184.627c.612.035,1.073.347,1.032.731-.054.508-.443.582-.852.56-.6-.032-1.058-.365-1.045-.735s.357-.586.866-.556" transform="translate(-132.332 -162.089)"/>
  </g>
</svg>
