<svg id="Group_1555" data-name="Group 1555" xmlns="http://www.w3.org/2000/svg" xmlns:xlink="http://www.w3.org/1999/xlink" width="10.51" height="10.507" viewBox="0 0 10.51 10.507">
  <defs>
    <clipPath id="clip-path">
      <rect id="Rectangle_639" data-name="Rectangle 639" width="10.51" height="10.508" fill="#999"/>
    </clipPath>
  </defs>
  <g id="Group_1337" data-name="Group 1337" clip-path="url(#clip-path)">
    <path id="Path_2395" data-name="Path 2395" d="M4.926,0h.657a.593.593,0,0,0,.079.017A5.054,5.054,0,0,1,8.111.844,5.173,5.173,0,0,1,10.43,4.349c.035.191.054.385.08.577v.657c-.013.1-.026.2-.038.294a5.076,5.076,0,0,1-1.54,3.128,5.124,5.124,0,0,1-4.487,1.439A4.944,4.944,0,0,1,1.523,8.95a5.139,5.139,0,0,1-1.4-4.832A5.237,5.237,0,0,1,4.339.081c.2-.032.391-.054.587-.081M7.408,4.947h-.12c-.352,0-.7,0-1.057,0a.129.129,0,0,1-.145-.088.84.84,0,0,0-.44-.439.123.123,0,0,1-.084-.137c0-.561,0-1.122,0-1.683V2.491H4.947V2.61c0,.558,0,1.115,0,1.673a.124.124,0,0,1-.083.138.917.917,0,0,0-.528.946.928.928,0,0,0,.81.806.918.918,0,0,0,.943-.532.117.117,0,0,1,.13-.079c.359,0,.718,0,1.078,0h.109ZM2.643,3.056l.414-.414-.414-.413-.414.414.414.413m5.637-.4-.413-.415-.406.406.414.414.4-.405m-6.046,5.2.421.423.4-.4-.42-.419-.4.4m5.633-.4-.412.412.413.414.413-.413-.414-.414M5.559,1.26H4.952v.6h.607ZM1.866,4.954H1.259v.6h.607Zm7.385,0h-.6v.6h.6ZM4.954,9.25h.6v-.6h-.6Z" transform="translate(0)" fill="#999"/>
    <path id="Path_2396" data-name="Path 2396" d="M180.4,180.706a.308.308,0,1,1,.3.316.312.312,0,0,1-.3-.316" transform="translate(-175.45 -175.46)" fill="#999"/>
  </g>
</svg>
