<svg id="Group_525" data-name="Group 525" xmlns="http://www.w3.org/2000/svg" xmlns:xlink="http://www.w3.org/1999/xlink" width="33.39" height="37.008" viewBox="0 0 33.39 37.008">
  <defs>
    <clipPath id="clip-path">
      <rect id="Rectangle_571" data-name="Rectangle 571" width="33.39" height="37.008" fill="#fff"/>
    </clipPath>
  </defs>
  <g id="Group_524" data-name="Group 524" clip-path="url(#clip-path)">
    <path id="Path_1038" data-name="Path 1038" d="M4.218,244.525,0,237.494a24.948,24.948,0,0,1,1.685-1.868,18.286,18.286,0,0,0,3.8-4.784,4.909,4.909,0,0,1,4.536-2.654c3.156-.02,6.313,0,9.47-.006a1.608,1.608,0,0,1,1.5.835,1.534,1.534,0,0,1-.025,1.648,1.64,1.64,0,0,1-1.524.791c-1.783-.008-3.566,0-5.349,0a3.587,3.587,0,0,0-.611.047,1.626,1.626,0,0,0,.036,3.2,3.564,3.564,0,0,0,.539.04c1.843,0,3.687,0,5.53,0a5.808,5.808,0,0,0,3.913-1.425c1.589-1.348,3.2-2.675,4.8-4a1.753,1.753,0,0,1,2.857.644,1.825,1.825,0,0,1-.634,2.065q-1.331,1.14-2.669,2.273-2.683,2.284-5.366,4.568a7.737,7.737,0,0,1-5.182,1.874c-2.374,0-4.747.02-7.12-.008a4.464,4.464,0,0,0-3.322,1.317c-.767.749-1.564,1.467-2.345,2.2a2.985,2.985,0,0,0-.226.267Z" transform="translate(0 -207.516)" fill="#fff"/>
    <path id="Path_1039" data-name="Path 1039" d="M6.061,18.141V15.708h2.6c1.01-6.566,4.7-10.66,11.091-12.389A2.764,2.764,0,0,1,20.586.756,2.656,2.656,0,0,1,22.592,0a2.81,2.81,0,0,1,2.629,3.369,13.892,13.892,0,0,1,11.04,12.32H38.9v2.45Z" transform="translate(-5.512 0.001)" fill="#fff"/>
  </g>
</svg>
