<svg xmlns="http://www.w3.org/2000/svg" xmlns:xlink="http://www.w3.org/1999/xlink" width="18.745" height="18.75" viewBox="0 0 18.745 18.75">
  <defs>
    <clipPath id="clip-path">
      <rect id="Rectangle_564" data-name="Rectangle 564" width="18.745" height="18.75" fill="none"/>
    </clipPath>
  </defs>
  <g id="Group_498" data-name="Group 498" clip-path="url(#clip-path)">
    <path id="Path_1020" data-name="Path 1020" d="M8.822,0h1.1a1,1,0,0,0,.141.03,8.919,8.919,0,0,1,4.09,1.29A9.252,9.252,0,0,1,18.6,7.761c.066.351.1.709.146,1.063v1.1c-.011.065-.024.129-.034.194-.059.4-.092.813-.179,1.21a9.106,9.106,0,0,1-3.479,5.485A9.092,9.092,0,0,1,7.4,18.529a9.05,9.05,0,0,1-5.459-3.455,9.116,9.116,0,0,1-1.9-6.638A9.057,9.057,0,0,1,2.335,3.2,9.2,9.2,0,0,1,7.757.146c.353-.063.71-.1,1.066-.146m1.8,9.394c-.074.061-.135.1-.187.155Q8.9,11.081,7.369,12.615a2,2,0,0,0-.184.2.768.768,0,0,0,.136,1.065.787.787,0,0,0,1.113-.124Q10.3,11.9,12.161,10.033a.812.812,0,0,0,0-1.315l-3.7-3.7a1.918,1.918,0,0,0-.189-.172.771.771,0,0,0-1.147.249.786.786,0,0,0,.2.992q1.565,1.567,3.131,3.132c.047.047.091.1.167.175" transform="translate(0)" fill="#fff"/>
    <path id="Path_1021" data-name="Path 1021" d="M156.829,106.933c-.076-.08-.12-.128-.167-.175q-1.566-1.566-3.131-3.132a.786.786,0,0,1-.2-.992.771.771,0,0,1,1.147-.249,1.917,1.917,0,0,1,.189.172l3.7,3.7a.812.812,0,0,1,0,1.315q-1.863,1.863-3.728,3.726a.787.787,0,0,1-1.113.124.768.768,0,0,1-.136-1.065,2,2,0,0,1,.184-.2q1.533-1.534,3.067-3.067c.052-.052.113-.094.187-.155" transform="translate(-146.207 -97.539)"/>
  </g>
</svg>
