<svg id="Group_1511" data-name="Group 1511" xmlns="http://www.w3.org/2000/svg" xmlns:xlink="http://www.w3.org/1999/xlink" width="10.495" height="10.379" viewBox="0 0 10.495 10.379">
  <defs>
    <clipPath id="clip-path">
      <rect id="Rectangle_916" data-name="Rectangle 916" width="10.495" height="10.379" fill="#fff"/>
    </clipPath>
  </defs>
  <g id="Group_1510" data-name="Group 1510" clip-path="url(#clip-path)">
    <path id="Path_1753" data-name="Path 1753" d="M0,9.289a1.481,1.481,0,0,1,.487-.76Q2.119,6.907,3.743,5.277a.673.673,0,0,1,.106-.071c-.05-.052-.075-.079-.1-.105L.343,1.694A.992.992,0,0,1,1.615.181a1.162,1.162,0,0,1,.146.128L5.133,3.662c.034.034.063.072.1.117.04-.038.069-.065.1-.092Q7.009,2.009,8.687.331a.989.989,0,0,1,1.671.4.937.937,0,0,1-.246.981Q8.431,3.392,6.749,5.072c-.029.029-.062.053-.105.089l.115.117q1.7,1.695,3.409,3.389a1.019,1.019,0,0,1,.326.768.96.96,0,0,1-.944.942,1.155,1.155,0,0,1-.891-.36Q7,8.343,5.329,6.68a.82.82,0,0,1-.073-.1l-.044-.008a.58.58,0,0,1-.067.1q-1.694,1.7-3.39,3.393a1.116,1.116,0,0,1-1.35.146.9.9,0,0,1-.381-.573C.016,9.619.007,9.6,0,9.576V9.289" transform="translate(0 0)" fill="#fff"/>
  </g>
</svg>
