<svg xmlns="http://www.w3.org/2000/svg" xmlns:xlink="http://www.w3.org/1999/xlink" width="66.794" height="51.072" viewBox="0 0 66.794 51.072">
  <defs>
    <clipPath id="clip-path">
      <rect id="Rectangle_264" data-name="Rectangle 264" width="66.794" height="51.072" fill="#fff"/>
    </clipPath>
  </defs>
  <g id="Group_467" data-name="Group 467" clip-path="url(#clip-path)">
    <path id="Path_995" data-name="Path 995" d="M66.794,15c-.124.636-.223,1.279-.378,1.908a13.54,13.54,0,0,1-7.009,9.033.825.825,0,0,0-.473.873q.012,11.713.006,23.425v.836H0V7.892H.925q19.412,0,38.825.014A1.191,1.191,0,0,0,41,7.175a13.726,13.726,0,0,1,25.553,4.081c.068.379.161.754.242,1.131ZM51.654,47.18l-17.615-15.1-4.59,3.927-4.587-3.927L7.247,47.18ZM7.269,11.843,29.45,30.854,41.2,20.781a13.968,13.968,0,0,1-1.789-8.938ZM3.926,14.136V44.869L21.853,29.5,3.926,14.136m49.1,9.475a9.842,9.842,0,1,0-9.83-9.856,9.857,9.857,0,0,0,9.83,9.856M37.047,29.5,54.987,44.878V27.4a13.9,13.9,0,0,1-11.338-3.565l-6.6,5.663" transform="translate(0 0)" fill="#fff"/>
    <path id="Path_996" data-name="Path 996" d="M284.45,49.408h-1.8V45.539h5.668v11.68H284.45Z" transform="translate(-233.365 -37.598)" fill="#fff"/>
  </g>
</svg>
