<svg id="Group_309" data-name="Group 309" xmlns="http://www.w3.org/2000/svg" xmlns:xlink="http://www.w3.org/1999/xlink" width="30.617" height="30.537" viewBox="0 0 30.617 30.537">
  <defs>
    <clipPath id="clip-path">
      <rect id="Rectangle_108" data-name="Rectangle 108" width="30.617" height="30.537" fill="none"/>
    </clipPath>
  </defs>
  <g id="Group_80" data-name="Group 80" transform="translate(0 0)" clip-path="url(#clip-path)">
    <path id="Path_600" data-name="Path 600" d="M30.617,14.629v.956a.471.471,0,0,0,0,.359v.239a.079.079,0,0,0,0,.119v.3c-.076.423-.052.853-.1,1.278a11.978,11.978,0,0,1-.908,3.323,14.811,14.811,0,0,1-2.6,4.231,15.41,15.41,0,0,1-8.4,5.005,6.1,6.1,0,0,1-.738.1c-.195.017-.274-.077-.3-.25a2.515,2.515,0,0,1-.015-.328q0-4.84,0-9.679c0-.05,0-.1,0-.149.014-.437.07-.5.513-.5.856-.01,1.713,0,2.569,0,.454,0,.5-.043.579-.495.177-1.07.335-2.143.5-3.216.049-.32-.033-.414-.369-.417-.966-.007-1.932,0-2.9,0-.139,0-.279,0-.418,0-.4-.016-.466-.075-.471-.482-.011-.886-.023-1.773,0-2.659a2.348,2.348,0,0,1,2.474-2.4c.5-.015,1,0,1.494-.006.363,0,.442-.08.445-.44.005-.886,0-1.773,0-2.659,0-.22-.055-.4-.309-.435a12.274,12.274,0,0,0-4.715-.035,4.81,4.81,0,0,0-3.7,3.811,7.094,7.094,0,0,0-.191,1.746c.01,1,.007,1.992,0,2.987,0,.519-.052.568-.564.572-.936.007-1.872,0-2.808,0-.442,0-.507.064-.508.5q0,1.568,0,3.137c0,.429.069.493.512.495.936,0,1.872,0,2.808,0,.5,0,.558.056.559.547q.008,4.944,0,9.888c0,.06,0,.119-.008.179-.018.211-.095.3-.343.292a7.583,7.583,0,0,1-1.816-.385,14.976,14.976,0,0,1-5.732-3.165A15.4,15.4,0,0,1,1.586,22.4,13.75,13.75,0,0,1,.113,17.912a28.089,28.089,0,0,1-.1-3.663A12.729,12.729,0,0,1,1.077,9.367,15.67,15.67,0,0,1,8.409,1.531a12.9,12.9,0,0,1,4.8-1.445,25.752,25.752,0,0,1,4.676.042,12.3,12.3,0,0,1,3.627,1.066,15.375,15.375,0,0,1,4.464,2.995A15.289,15.289,0,0,1,30.43,12.14a13.2,13.2,0,0,1,.157,1.748c.006.068-.019.141.03.2v.179c-.051.053-.022.119-.03.179.008.06-.021.126.03.179" transform="translate(0 0)" fill="#1876f1"/>
    <path id="Path_601" data-name="Path 601" d="M121.905,81.657c-.027.925,0,1.852-.014,2.777,0,.226.118.2.261.2,1.234,0,2.469,0,3.7,0,.233,0,.3.033.256.294-.207,1.233-.389,2.47-.571,3.706-.062.424-.05.426-.472.426-.976,0-1.952,0-2.927,0-.159,0-.25.007-.25.216q.011,5.167.006,10.335a.759.759,0,0,0,.014.109l-4.829,0c.029-.018.04-.058.035-.123s0-.12,0-.18q0-5.017.006-10.036c0-.258-.054-.332-.323-.328-1.095.018-2.19,0-3.285.012-.21,0-.291-.032-.288-.27q.019-1.942,0-3.883c0-.226.058-.281.28-.279,1.105.012,2.21,0,3.315.01.225,0,.3-.045.3-.289-.014-1.144-.026-2.29,0-3.434a5.833,5.833,0,0,1,1.344-3.826,5.124,5.124,0,0,1,3.344-1.71,16.938,16.938,0,0,1,4.309.181c.165.021.2.1.2.259q-.008,1.673,0,3.346c0,.175-.057.216-.221.214-.537-.01-1.076,0-1.613,0a3.855,3.855,0,0,0-1.06.137,2.087,2.087,0,0,0-1.521,2.142" transform="translate(-104.185 -69.291)" fill="#fefefe"/>
  </g>
</svg>
