<svg xmlns="http://www.w3.org/2000/svg" width="434.047" height="432.297" viewBox="0 0 434.047 432.297">
  <g id="Group_1731" data-name="Group 1731" transform="translate(-400.498 0)">
    <g id="Group_197" data-name="Group 197" transform="translate(-1240 0)">
      <path id="Path_770" data-name="Path 770" d="M716.532,167.068a11.347,11.347,0,0,1-4.643.428c-5.221-.15-10.547-1.163-15.633-.443-7.854,1.1-14-.69-18.664-7.194a9.7,9.7,0,0,0-2.881-2.911c-3.113-1.7-6.294-4.141-9.594-4.4-4.021-.315-4.763-2.205-4.486-5.146.9-9.542,1.4-19.181,3.271-28.536,1.95-9.759,5.409-19.2,8.034-28.828,3.458-12.662,6.721-25.385,5.048-38.708C674.434,30.976,664.359,15.9,645.41,7.316,628.112-.523,609.756-.643,591.34.557a78.145,78.145,0,0,0-31.934,8.627c-6.8,3.608-7.539,6.474-3.646,11.38-2.9,5.191-6.084,9.819-8.154,14.89-3.443,8.417-5.5,17.441-9.392,25.618-3.383,7.1-1.2,12.955,1.185,19.264a4.31,4.31,0,0,1-.083,3.451c-2.445,3.233-2.9,6.646-.255,9.579,3.751,4.156,2.813,8.552,1.4,12.94-2.888,8.979-1.523,17.771.683,26.555.78,3.1,2.933,4.058,5.7,2.483,2.738-1.553,5.071-3.488,5.453-7.1.15-1.448,1.373-2.783,2.108-4.171,1.35.713,2.978,1.155,4.013,2.19a21.678,21.678,0,0,0,24.807,4.4c7.1-3.218,11.695-8.769,15.175-15.423a25.835,25.835,0,0,1,12.227-12.1c16.863-7.884,21.207-26.165,9.992-40.921-2.873-3.773-5.664-7.607-8.432-11.455-3.616-5.018-3.736-10.187-.323-15.333,2-3.008,4.2-5.889,6.294-8.837,4.651-6.556,2.851-11.687-5.191-12.738a83.329,83.329,0,0,0-20.449-.375c-8.642,1.028-17.088,3.586-25.685,5.094a25.4,25.4,0,0,1-9.174-.39c-2.228-.443-3.038-2.318-.878-4.088a28.915,28.915,0,0,1,5.514-3.743c10.142-4.928,21-7.066,32.181-7.727,16.308-.968,32.384-.458,47.919,5.716a51.611,51.611,0,0,1,32.8,52.458c-.938,12.077-3.743,24.2-7.246,35.835-5.356,17.764-10.712,35.355-9.347,54.228.06.908-1.343,2.385-2.385,2.828-5.169,2.168-10.727,3.563-15.648,6.174-17.839,9.467-35.512,19.256-53.171,29.061-4.531,2.513-8.769,5.529-13.218,8.364-1.6-6.819-.878-8.184,4.606-11.23,8.177-4.538,16.466-8.934,24.3-14.028,11.815-7.689,21.387-17.538,26.758-30.914,4.568-11.365,4.321-23.172,3.466-35.077-.27-3.781-1.208-7.742,1.463-11.192,3.983-5.116,7.757-10.4,11.987-15.3,2.07-2.393,4.9-4.163,7.539-5.994.615-.428,2.461-.263,2.678.173a3.391,3.391,0,0,1-.053,3,28.213,28.213,0,0,1-4.3,4.043c-2.468,2.033-2.73,4.291-.218,6.226,2.753,2.123,1.628,3.661-.24,5.379-2.288,2.108-4.733,4.073-6.8,6.384-3.113,3.473-3.271,7.644-.75,10.525,2.5,2.851,6.6,3.128,10.607.735a26.573,26.573,0,0,0,9.6-36.42c-5.056-8.867-13.57-10.645-21.739-4.471-8.289,6.264-11.575,15-12.257,25.01a7.709,7.709,0,0,1-.705,3.586c-3.728,5.6-7.156,11.5-11.56,16.533-8.957,10.247-21.252,15.626-33.524,20.532-13.083,5.229-26.5,9.624-39.818,14.268-5.9,2.063-10.825,5.169-13.405,11.11-1.793,4.126-3.443,8.319-5.431,13.143-.683-1.568-1.08-2.686-1.628-3.721-3.226-6.009-6.031-12.317-9.872-17.906-3.068-4.448-8.4-3.563-10.142,1.613a22.124,22.124,0,0,0-.45,10.877c1.545,7.809,4.028,15.423,5.739,23.2.833,3.788-.42,5.416-4.081,4.568-5.109-1.178-10.735-2.6-14.71-5.731-13.383-10.532-27.193-20.794-36.547-35.535a15.507,15.507,0,0,0-1.92-2.3c-4.546-4.771-9.234-4.943-13.945-.413-1.178-1.05-2.31-2.205-3.586-3.158-2.761-2.063-5.694-3.128-9.017-1.185-3.286,1.913-3.4,4.876-2.9,8.162a3.412,3.412,0,0,1-.525,2.6c-3.391,3.323-3.886,7.366-3.4,11.762a37.193,37.193,0,0,1,.022,3.8L414.38,169c-1.665-4.141-2.7-8.049-4.771-11.3-.975-1.515-4.051-2.626-5.979-2.378-2.581.33-3.181,3.038-3.128,5.626.165,7.239.233,14.485.323,21.724.21,18.641,6.646,35.212,17.516,50.012C431,249.914,441.227,267.9,440.147,290.22c-.18,3.631.045,8.019-1.838,10.712-7.764,11.072-20.577,34.717-20.577,34.717s-13.915,36.157-13.555,55.939c.33,17.809,6.826,31.874,24.275,38.13H429v2.558c.88-.049,155.942-.109,13.564-.139-55.463-.012-13.846-.019-13.554-.019l1.558,0c83.087-.1-73.518-.224,9.87-.276,29.218-.015-28.556.158.662.2,25.1.038-25.8,0-.7.023,28.356.03-30.3.09-1.941.135,5.581.015,5.7,0,5.491-5.431-.563-14.59-1.47-29.173-1.815-43.771-.593-24.567-.938-49.142-1.2-73.725-.045-4.823.555-9.587,4.771-13.2,13.6-11.62,27.05-23.42,41.168-35.685,3.113,3.511,5.851,6.054,7.937,9.047,11.095,15.978,21.649,32.339,33.112,48.047A453.075,453.075,0,0,0,577.559,374.9c11.53,11.245,23.315,22.264,37.447,30.283a35.81,35.81,0,0,0,26.09,3.668c1.68-.368,3.991-1.98,4.276-3.368.293-1.433-1.433-3.376-2.5-4.936-.525-.78-1.575-1.193-2.356-1.815-2.445-1.943-2.573-3.931.12-5.686a60.235,60.235,0,0,1,8.019-4.748c5.469-2.438,11.012-4.771,16.676-6.684,5.236-1.778,8.042-5.3,7.817-10.532-.33-7.426-.525-15.025-2.3-22.182-3.5-14.178-11.732-24.852-25.955-30.208-10.622-4-21.154-8.229-31.716-12.385-12.573-4.944-24.98-10.255-35.167-19.436-10.45-9.414-11.71-20.667-3.488-32.054A123.311,123.311,0,0,1,613.372,219.7c2.79-1.605,5.866-2.731,8.807-4.073a4.239,4.239,0,0,1-2.093,2.851c-8.957,4.673-15.708,11.92-21.889,19.579-8.469,10.495-9.227,20.509-2.07,31.7A74.135,74.135,0,0,0,616.4,290.512c11.74,8.214,23.9,15.873,36.157,23.322,10.36,6.294,18.289,14.53,23.262,25.588,5.709,12.693,7.569,26.128,6.909,39.855-.773,16.076-2.01,32.136-3.316,48.175-.3,3.646.585,4.951,4.283,4.839,19.841-.623,39.705-.75,59.524-1.77,11.455-.593,22.872-2.445,33.659-6.774,14.283-5.739,23.435-15.791,25.7-31.371,1.89-12.948,1.088-25.888-.247-38.835a470.867,470.867,0,0,0-30.179-125.11c-7.7-19.5-18.461-37.155-35.767-49.795-5.424-3.961-11.725-6.706-17.659-10.037a7.292,7.292,0,0,1,1.133-.668c30.944-11.627,61.857-23.33,92.876-34.777,7.1-2.626,14.53-4.328,21.807-6.459v-3c-2.956.983-5.9,2-8.874,2.933M564.334,21.156c6.159-.548,12.16-2.731,18.319-3.616,8.117-1.17,16.308-1.943,24.492-2.49a19.2,19.2,0,0,1,7.607,1.6c4.358,1.62,4.989,3.473,2.566,7.4-1.9,3.061-4.238,5.851-6.249,8.852-5.581,8.334-5.454,12.55.435,20.727,3.353,4.643,6.646,9.339,10.03,13.96,8.064,11,.21,27.53-8.852,31.949-2.573,1.253-5.544,2.19-7.487,4.133a63.578,63.578,0,0,0-9,11.23c-3.308,5.289-7.066,9.887-12.58,12.985-6.646,3.736-17.944,4.538-24.11-3.691-.99-1.313-3.788-2.678-4.913-2.175a8.841,8.841,0,0,0-4.306,4.936c-1.088,3.488-2.34,6.241-6.856,6.819-1.83-9.107-3.863-17.839-.908-26.81,1.77-5.4,2.333-10.7-1.928-15.423-1.688-1.875-1.365-3.923.18-5.769,3.511-4.193,7.111-8.312,10.585-12.535a17.51,17.51,0,0,0,3.016-4.681c.4-1.058-.218-2.5-.375-3.766-1.283.2-2.881-.008-3.773.69a11.314,11.314,0,0,0-2.7,3.916c-1.83,3.623-3.526,7.314-5.551,11.575-.953-2.618-1.493-4.576-2.356-6.376-1.748-3.631-1.47-7.044-.037-10.787,3.511-9.189,6.639-18.536,10-27.793a32.961,32.961,0,0,1,2.911-6.459c2.761-4.358,5.9-7.862,11.845-8.394M648.7,68.491c4.223-1.755,7.682-.608,11.057,2.078,10.795,8.619,7.614,27.35-2.115,34.949a19.342,19.342,0,0,1-6.046,3.548c-1.455.428-4.066-.015-4.846-1.05-1.043-1.4-1.65-4.148-.945-5.589,1.2-2.468,3.518-4.411,5.454-6.489,1.185-1.275,2.716-2.258,3.758-3.623,1.583-2.07,2.093-4.418-.4-6.219-2.138-1.538-1.545-2.626.037-4.1,1.53-1.418,3.263-2.9,4.081-4.711.638-1.418.638-4.411-.188-4.921-1.478-.915-4.328-1.328-5.641-.465a47.906,47.906,0,0,0-9.219,7.982c-3.713,4.118-6.946,8.672-10.51,13.2-.33-10.277,6.489-20.847,15.521-24.59M576.119,198.664c18.746-10.9,37.335-22.077,56.329-32.519,8.567-4.7,17.951-7.907,27.253-11.92,1.71,4.193,3,7.291,4.231,10.412,1.17,2.971.165,5.018-2.7,6.369q-39.9,18.847-79.786,37.747c-2.513,1.193-4.636,1.725-6.136-1.5-1.845-3.961-1.7-7.134.81-8.589M441.76,426.4c.143,2.918-1.178,3.293-3.571,3.181-15.258-.72-27.058-10.907-30.351-25.88-3.616-16.428-.653-32.234,4.193-47.852,5.889-18.956,15.386-36.09,27.275-52.525-1.793,27.613-.255,54.611.75,81.6.51,13.825,1.035,27.658,1.7,41.476m.375-129.663c0-3.271-.03-6.181,0-9.092.218-18.356-6.069-34.5-17.021-48.917-9.549-12.565-17.846-25.9-20.179-41.648-1.778-12.032-1.575-24.365-2.085-36.57-.038-1.058,1.11-2.9,1.95-3.061a3.836,3.836,0,0,1,3.323,1.7c1.658,4.516,3.593,9.107,4.148,13.818.915,7.764.293,15.716,1.35,23.45.975,7.066,3.248,13.968,5.146,20.892.255.953,1.635,1.605,2.34,2.258a26.449,26.449,0,0,0,1.02-4.036,13.643,13.643,0,0,0-.21-4.066c-.81-3.4-1.628-6.811-2.753-10.1-3.331-9.744-3.256-19.819-3.413-29.946,4.231,1.44,5.2,4.021,3.158,7.321a5.242,5.242,0,0,0-.36,3.863q3.432,10.847,7.209,21.574c4.163,11.762,11.725,21.447,19.984,30.441,8.027,8.739,18.491,14.29,28.993,19.6,3.4,1.725,6.684,3.661,10.127,5.559-14.485,12.272-29.953,22.624-42.728,36.96M414.6,195.026c.4-.1.788-.188,1.185-.278q2.239,9.474,4.486,18.956c-.51.12-1.013.24-1.515.36q-2.082-9.519-4.156-19.039m71.069,62.637c-9.992-5.634-20.262-10.877-29.713-17.321-14.38-9.8-23.195-24.117-29.473-40.065-2.055-5.214-3.9-10.517-5.671-15.836a11.079,11.079,0,0,1-.27-4.531c.022-.27,2.363-.8,2.633-.45,1.1,1.433,2.866,3.541,2.453,4.718-1.4,3.968,1.433,6.451,2.9,9.032,3.316,5.836,7.419,11.237,11.312,16.743a15.028,15.028,0,0,0,3.436,3.316c.638.465,1.7.368,2.558.518-.075-.923.15-2.04-.293-2.731a29.184,29.184,0,0,0-4.276-5.656c-4.786-4.531-7.149-10.345-9.677-16.233-1.718-4.021-4.561-7.554-6.909-11.3-.458-.735-1.26-1.41-1.365-2.183-.675-4.928-1.38-9.864-1.658-14.823-.075-1.335,1.32-2.746,2.04-4.126,1.2,1.088,2.82,1.958,3.526,3.3a68.528,68.528,0,0,1,4.246,9.962c4.313,12.948,13.975,22.609,20.757,34.027a11.143,11.143,0,0,0,2.28,2.145c.42-.2.84-.39,1.268-.585-.285-1.748-.255-3.623-.915-5.214a76.446,76.446,0,0,0-4.763-9.7c-5.934-9.954-12-19.819-18.079-29.683-1.553-2.528-3.376-4.891-4.951-7.411-1.418-2.258-2.7-4.763-.615-7.186,2.168-2.528,4.816-1.688,7.051-.03a18.356,18.356,0,0,1,4.4,4.478c2.791,4.238,5.4,8.619,7.9,13.045,2.963,5.259,5.514,10.765,8.649,15.911,3.758,6.144,8.019,11.965,15.078,16.293.1-1.7.518-2.918.158-3.826a25.854,25.854,0,0,0-2.9-5.184c-8.087-11.53-16.286-22.985-24.3-34.567-.728-1.058-.923-3.893-.5-4.1,1.59-.765,4.081-1.643,5.251-.908a24.221,24.221,0,0,1,7.344,6.684c9.677,14.56,23.592,24.59,37.192,34.852,3.773,2.843,9.039,4.186,13.833,5.056,5.341.975,7.284-1.238,6.616-6.594a105.643,105.643,0,0,0-2.641-12.415c-1.118-4.478-2.55-8.882-3.631-13.368-.39-1.65-.69-3.661-.1-5.131.78-1.92,3.931-4.943,3.931-4.943s3.248,1.38,4.321,2.693c6.166,7.592,9.917,16.511,12.167,25.858,2.063,8.567,2.873,17.441,4.291,26.173a38.052,38.052,0,0,0,1.433,6.564c1.575,4.508,5.349,6.1,9.429,3.691a38.825,38.825,0,0,0,8.139-6.4c4.666-4.831,9.182-9.842,13.39-15.078,2.663-3.308,1.508-5.251-2.806-5.311-5.619-.075-11.237.06-16.856.06a26.129,26.129,0,0,1-4.853-.263c-9.167-1.733-9.8-3.338-9.324-11.612a45.4,45.4,0,0,1,2.01-11.342c2.633-8.042,8.019-13.128,16.3-16.1,18.3-6.571,36.5-13.518,54.386-21.139,12.4-5.281,21.484-14.733,27.651-26.818.39-.765.81-1.515,1.32-2.475.938,15.281,2.19,29.173-3.976,42.616-5.461,11.92-14.485,20.532-25.265,27.38-7.989,5.086-16.316,9.647-24.65,14.155-3.968,2.145-6.294,4.883-5.484,9.482.8,4.478-1.635,6.421-5.1,8.732-17.433,11.6-34.687,23.487-51.843,35.5-8.687,6.076-17.013,12.663-25.573,18.926-.84.615-2.505,1.14-3.233.735M438.384,176.64q2.779,4.681,5.544,9.347c-.33.233-.668.465-1,.69-2.888-2.535-5.956-4.973-4.546-10.037m92.733,14.65c10.262.39,20.216.765,31.064,1.178a54.425,54.425,0,0,1-3.286,4.4c-4.636,5.018-9.3,10.022-14.065,14.913a15.431,15.431,0,0,1-4.246,2.963c-3.638,1.778-6.256.72-6.894-3.181-1.118-6.826-1.77-13.728-2.573-20.269m88.525,23.495c-14.928,4.373-25.588,15.243-36.03,25.993a96.337,96.337,0,0,0-13.135,16.668c-6.174,10.127-4.561,19.234,3.436,28.056,8.3,9.159,19.009,14.478,30.073,19.136,14.028,5.9,28.228,11.372,42.338,17.073,11.545,4.666,17.921,13.87,21.829,25.16a59.736,59.736,0,0,1,2.828,24.74c-.315,3.833-1.785,6.279-5.769,7.689-6.924,2.453-13.66,5.476-20.352,8.514a23.005,23.005,0,0,0-6.414,4.411c-3.121,3.038-2.708,5.769.728,8.507,1.68,1.343,3.248,2.821,4.876,4.238-.105.368-.21.735-.315,1.11a70.014,70.014,0,0,1-7.471,1.493c-10.51.96-19.541-2.671-27.853-8.889-18.581-13.908-34.987-30.081-50.3-47.432a585.648,585.648,0,0,1-51.97-68.069c-2.445-3.758-4.561-7.749-7.111-11.432-2.873-4.148-6.076-8.072-9.437-12.5,26.51-19.5,53.313-39.45,81.451-57.229,1.2,2.768,1.958,5.409,3.391,7.607,1.98,3.046,4.891,2.858,7.959,1.4,18.251-8.7,36.532-17.321,54.783-26.03,8.327-3.968,16.646-7.974,24.882-12.137,4.981-2.521,5.709-4.786,3.7-10.029-.96-2.513-2.055-4.973-3.091-7.456.255-.39.51-.78.773-1.17,2.415.818,5.154,1.17,7.179,2.566a50.029,50.029,0,0,1,8,7.284,15.879,15.879,0,0,0,13.72,5.311c5.409-.428,10.877-.09,17.539-.09-1.853,1.08-2.776,1.748-3.8,2.205a719.633,719.633,0,0,0-70.364,35.782c-5.154,2.993-10.2,5.8-16.083,7.524m136.107-12.7c14.785,21.837,22.685,46.644,29.053,71.819,5.566,21.979,10.089,44.274,13.9,66.628a189.292,189.292,0,0,1,2.408,47c-1.515,19.069-11.995,30.171-29.5,35.842-11.875,3.841-24.155,5.326-36.517,5.776-16.721.608-33.457.638-50.192.9a31.9,31.9,0,0,1-3.271-.323c.608-8.649,1.2-16.961,1.785-25.272,1.133-16.061,2.656-32.106-.255-48.16-2.393-13.188-6.916-25.528-16.953-34.679-6.1-5.559-13.473-9.782-20.532-14.2-14.08-8.8-28.528-17.1-40.163-29.173a59.863,59.863,0,0,1-9.189-12.648c-5.3-9.632-3.278-18.941,3.863-26.57A165.534,165.534,0,0,1,621.278,220.1c23.555-17.726,50.253-29.938,76.733-42.473,4.388-2.078,8.792-4.193,13.353-5.859a10.656,10.656,0,0,1,6.361-.248c16.683,5.139,28.528,16.533,38.025,30.561M551.3,66.27q-1.778,3.691-3.563,7.374c.488.2.968.413,1.448.623q1.744-3.691,3.473-7.381c-.45-.2-.908-.405-1.358-.615" transform="translate(1240 0)" fill="#fff"/>
    </g>
  </g>
</svg>
