<svg xmlns="http://www.w3.org/2000/svg" xmlns:xlink="http://www.w3.org/1999/xlink" width="40.085" height="39.98" viewBox="0 0 40.085 39.98">
  <defs>
    <clipPath id="clip-path">
      <rect id="Rectangle_108" data-name="Rectangle 108" width="40.085" height="39.98" fill="none"/>
    </clipPath>
  </defs>
  <g id="Group_80" data-name="Group 80" clip-path="url(#clip-path)">
    <path id="Path_600" data-name="Path 600" d="M40.085,19.153V20.4a.617.617,0,0,0,0,.469v.313a.1.1,0,0,0,0,.156v.391c-.1.553-.068,1.117-.128,1.673a15.682,15.682,0,0,1-1.189,4.35,19.392,19.392,0,0,1-3.4,5.539,20.175,20.175,0,0,1-10.992,6.553,7.98,7.98,0,0,1-.967.129c-.255.023-.359-.1-.389-.327A3.293,3.293,0,0,1,23,39.221q0-6.336,0-12.673c0-.065,0-.13,0-.2.019-.572.091-.652.671-.659,1.121-.013,2.243,0,3.364-.006.594,0,.66-.057.758-.648.231-1.4.439-2.806.652-4.211.064-.42-.043-.542-.483-.546-1.265-.009-2.529,0-3.794,0-.182,0-.365,0-.548,0-.523-.021-.611-.1-.617-.631-.014-1.16-.03-2.321,0-3.481a3.074,3.074,0,0,1,3.239-3.142c.652-.02,1.3,0,1.956-.008.475-.006.579-.1.582-.576.007-1.16,0-2.321,0-3.481,0-.288-.073-.525-.4-.57a16.07,16.07,0,0,0-6.173-.046,6.3,6.3,0,0,0-4.842,4.99,9.288,9.288,0,0,0-.25,2.287c.013,1.3.009,2.608,0,3.911,0,.679-.067.743-.738.749-1.225.009-2.451,0-3.677,0-.579,0-.664.084-.665.651q-.006,2.054,0,4.107c0,.562.09.645.67.648,1.226,0,2.451-.005,3.677,0,.657.005.731.073.732.717q.011,6.473,0,12.946c0,.078,0,.156-.011.234-.023.276-.124.4-.449.382a9.929,9.929,0,0,1-2.378-.5,19.608,19.608,0,0,1-7.505-4.144,20.165,20.165,0,0,1-4.7-6A18,18,0,0,1,.148,23.452a36.776,36.776,0,0,1-.133-4.8,16.666,16.666,0,0,1,1.4-6.392A20.516,20.516,0,0,1,11.009,2,16.891,16.891,0,0,1,17.3.112a33.716,33.716,0,0,1,6.122.056,16.1,16.1,0,0,1,4.749,1.4,20.13,20.13,0,0,1,5.844,3.921,20.018,20.018,0,0,1,5.828,10.411,17.285,17.285,0,0,1,.206,2.288c.007.089-.024.184.039.265v.235c-.066.069-.029.156-.039.235.01.079-.027.165.039.235" transform="translate(0 0)" fill="#1876f1"/>
    <path id="Path_601" data-name="Path 601" d="M124.589,83.622c-.036,1.211,0,2.424-.019,3.636-.005.3.155.266.342.266,1.616,0,3.233.005,4.849-.006.305,0,.392.043.335.385-.271,1.614-.509,3.234-.748,4.852-.082.555-.066.557-.618.557-1.278,0-2.555,0-3.833,0-.208,0-.327.009-.327.282q.014,6.765.008,13.531a.993.993,0,0,0,.018.142l-6.323,0c.038-.023.052-.076.046-.161s0-.157,0-.235q0-6.569.008-13.14c0-.338-.07-.435-.422-.43-1.433.023-2.868,0-4.3.016-.275,0-.381-.042-.377-.353q.025-2.542,0-5.084c0-.3.076-.368.367-.365,1.447.016,2.894,0,4.341.014.295,0,.4-.059.392-.378-.018-1.5-.035-3,0-4.5a7.637,7.637,0,0,1,1.759-5.009,6.709,6.709,0,0,1,4.378-2.238,22.177,22.177,0,0,1,5.641.237c.216.027.266.135.264.339q-.011,2.191,0,4.38c0,.229-.074.283-.29.28-.7-.013-1.408-.005-2.112-.005a5.047,5.047,0,0,0-1.388.18,2.733,2.733,0,0,0-1.992,2.8" transform="translate(-101.389 -67.432)" fill="#fefefe"/>
  </g>
</svg>
