<svg xmlns="http://www.w3.org/2000/svg" xmlns:xlink="http://www.w3.org/1999/xlink" width="40.085" height="40.085" viewBox="0 0 40.085 40.085">
  <defs>
    <clipPath id="clip-path">
      <rect id="Rectangle_107" data-name="Rectangle 107" width="40.085" height="40.085" fill="none"/>
    </clipPath>
  </defs>
  <g id="Group_78" data-name="Group 78" clip-path="url(#clip-path)">
    <path id="Path_384" data-name="Path 384" d="M210.8,190.837v1.174c-.037.041-.054.1-.092.136a6.181,6.181,0,0,0-.457.426l-17.833,17.833a6.1,6.1,0,0,0-.426.458c-.041.037-.1.054-.137.091h-1.174c-.064-.166.051-.27.139-.379a3.545,3.545,0,0,1,.272-.281q9.493-9.493,18.989-18.984c.2-.2.371-.482.719-.475" transform="translate(-170.712 -170.871)" fill="#941cb7"/>
    <path id="Path_385" data-name="Path 385" d="M202.414,182.382a3.259,3.259,0,0,0-.661.542q-9.526,9.53-19.055,19.057a1.475,1.475,0,0,0-.4.521h-.157a.8.8,0,0,0-.548,0h-.235c-.112-.13-.044-.243.038-.35a2.89,2.89,0,0,1,.269-.284q10.058-10.059,20.122-20.113c.163-.163.287-.482.63-.311Z" transform="translate(-162.329 -162.416)" fill="#9a1cb3"/>
    <path id="Path_386" data-name="Path 386" d="M202.81,221.586c.006-.165.14-.244.238-.343q9.1-9.1,18.2-18.2c.1-.1.178-.232.343-.239a.068.068,0,0,1,.048.067c0,.058-.01.121.042.168v.313c-.167.125-.03.343-.148.484a1.155,1.155,0,0,0-.423.337q-8.465,8.462-16.927,16.927a1.133,1.133,0,0,0-.336.423c-.167.13-.409-.03-.563.148h-.235c-.047-.051-.11-.037-.168-.042a.067.067,0,0,1-.067-.048" transform="translate(-181.591 -181.59)" fill="#8f1cba"/>
    <path id="Path_387" data-name="Path 387" d="M196.684,175.808c-.18-.026-.287.09-.4.2q-10.228,10.23-20.458,20.458c-.112.112-.229.218-.2.4h-.157a.1.1,0,0,0-.157,0h-.391a.63.63,0,0,0,0-.069c-.067-.166.051-.269.136-.379a3.139,3.139,0,0,1,.271-.282q10.319-10.319,20.641-20.635c.175-.174.31-.438.628-.4l.091.076v.235a.179.179,0,0,0,0,.235Z" transform="translate(-156.599 -156.781)" fill="#9f1cb0"/>
    <path id="Path_388" data-name="Path 388" d="M.486,19.182a2.806,2.806,0,0,1,.076-.934,1.123,1.123,0,0,0,.423-.336Q9.45,9.451,17.913.986a1.126,1.126,0,0,0,.336-.423,2.809,2.809,0,0,1,.934-.076.222.222,0,0,1,.164-.019c.1.163-.025.268-.105.379a2.431,2.431,0,0,1-.269.284q-8.922,8.922-17.847,17.84c-.178.178-.313.474-.658.378a.222.222,0,0,1,.019-.165" transform="translate(-0.411 -0.411)" fill="#fbc430"/>
    <path id="Path_389" data-name="Path 389" d="M17.828,3a4.532,4.532,0,0,1,1.241-.238c.185-.06.257.009.194.189a.87.87,0,0,1-.245.3L3.142,19.13a1.753,1.753,0,0,1-.232.21c-.077.053-.167.108-.248.035a.194.194,0,0,1-.012-.251,4.342,4.342,0,0,1,.233-1.178c.181.011.281-.12.39-.229Q10.437,10.555,17.6,3.391c.109-.109.239-.209.229-.39" transform="translate(-2.337 -2.455)" fill="#facc2a"/>
    <path id="Path_390" data-name="Path 390" d="M1.6,17.959c.009.165.022.325.233.132.058-.053.111-.11.167-.165L17.935,1.992a1.36,1.36,0,0,0,.212-.229c.082-.134-.036-.145-.125-.165a3.51,3.51,0,0,1,1.105-.157c.063.04.1.094.046.159-.074.09-.159.173-.241.256Q10.394,10.4,1.85,18.928c-.1.1-.162.369-.41.2A3.991,3.991,0,0,1,1.6,17.959" transform="translate(-1.289 -1.291)" fill="#fac92d"/>
    <path id="Path_391" data-name="Path 391" d="M20.44.18l.316,0c.129.076.353-.079.41.122s-.135.3-.251.412Q16.3,5.342,11.672,9.962L.906,20.728a1.017,1.017,0,0,1-.083.083c-.168.133-.29.428-.521.35S.268,20.783.177,20.6q0-.079,0-.158A4.277,4.277,0,0,0,.669,20L19.995.672A4.277,4.277,0,0,0,20.44.18" transform="translate(-0.158 -0.161)" fill="#fbb939"/>
    <path id="Path_392" data-name="Path 392" d="M.777,22.531l-.017-.4c.146-.167.307-.319.464-.475Q11.551,11.332,21.878,1c.083-.083.174-.157.256-.241l.4.017c.183.038.25.132.137.3a2.34,2.34,0,0,1-.318.344q-4.618,4.62-9.238,9.238a1.749,1.749,0,0,0-.465.62c-.5.467-.967.958-1.441,1.447a1.607,1.607,0,0,0-.621.46l-9.2,9.2c-.092.092-.183.186-.279.273-.2.179-.313.15-.33-.13" transform="translate(-0.68 -0.682)" fill="#fcb23e"/>
    <path id="Path_393" data-name="Path 393" d="M20.162,5.219c.1.018.2.043.109.17a1.858,1.858,0,0,1-.214.227L5.615,20.059a1.844,1.844,0,0,1-.227.214c-.128.09-.152-.012-.17-.11a4.467,4.467,0,0,1,.31-1.176,1.777,1.777,0,0,0,.481-.393L18.593,6.011a1.926,1.926,0,0,0,.4-.48,4.354,4.354,0,0,1,1.174-.312" transform="translate(-4.671 -4.673)" fill="#fad127"/>
    <path id="Path_394" data-name="Path 394" d="M21.644,8.2c.1.234-.11.318-.223.431q-2.316,2.331-4.644,4.65-4.066,4.066-8.136,8.129c-.12.119-.2.356-.458.247a5.882,5.882,0,0,1,.472-1.4,1.244,1.244,0,0,0,.421-.341Q14.488,14.5,19.9,9.09a1.281,1.281,0,0,0,.342-.42A5.948,5.948,0,0,1,21.644,8.2" transform="translate(-7.327 -7.34)" fill="#fad524"/>
    <path id="Path_395" data-name="Path 395" d="M20.282.019c.1.171-.059.233-.14.315Q10.24,10.241.333,20.142c-.082.082-.144.242-.315.14a6.155,6.155,0,0,1,.056-1.511l.014.174c.152.161.033.381.146.618L19.551.248c-.2-.147-.449,0-.605-.159L18.772.075a6.12,6.12,0,0,1,1.51-.056" transform="translate(0 0)" fill="#fbbd36"/>
    <path id="Path_396" data-name="Path 396" d="M193.276,171.385a1.415,1.415,0,0,0-.434.325q-10.448,10.451-20.9,20.9a1.352,1.352,0,0,0-.344.468l-.158-.029c-.276,0-.309-.131-.167-.34a2.691,2.691,0,0,1,.344-.372l9.027-9.027a2.1,2.1,0,0,0,.439-.544,2.5,2.5,0,0,1,.6-.49,10.543,10.543,0,0,0,1.326-1.462,2.45,2.45,0,0,0,.64-.507q4.462-4.465,8.926-8.927c.1-.1.2-.209.308-.3.249-.206.306-.184.387.143l.008.163" transform="translate(-153.281 -153.061)" fill="#a11cae"/>
    <path id="Path_397" data-name="Path 397" d="M21.529.177c0,.167-.13.248-.229.347Q10.9,10.924.5,21.321c-.1.1-.181.23-.347.229a3.382,3.382,0,0,1-.06-1.013c.008.01.018.019.025.03.1.143-.062.411.107.455.2.051.3-.2.436-.336q10.006-10,20.005-20l.111-.111c.33-.331.33-.331-.106-.457a2.557,2.557,0,0,1,.855.058" transform="translate(-0.075 -0.097)" fill="#fbb63b"/>
    <path id="Path_398" data-name="Path 398" d="M24.281,12.707c.168.187-.048.248-.126.328-.712.725-1.432,1.44-2.15,2.158q-4.46,4.46-8.925,8.916c-.093.093-.154.341-.382.179a7.057,7.057,0,0,1,.63-1.481,1.511,1.511,0,0,0,.444-.374q4.328-4.324,8.652-8.652a1.622,1.622,0,0,0,.377-.443,7.059,7.059,0,0,1,1.48-.63" transform="translate(-11.369 -11.378)" fill="#fad921"/>
    <path id="Path_399" data-name="Path 399" d="M28.193,18.733c.16.217-.084.271-.167.355q-3.181,3.2-6.377,6.387c-.866.866-1.729,1.734-2.6,2.593-.08.079-.139.291-.329.134a11.817,11.817,0,0,1,1.326-2.356,1.026,1.026,0,0,0,.393-.311q2.544-2.54,5.084-5.084a1.021,1.021,0,0,0,.311-.393,12.005,12.005,0,0,1,2.359-1.325" transform="translate(-16.761 -16.773)" fill="#f9de1d"/>
    <path id="Path_400" data-name="Path 400" d="M.864,124.42c.073.056.076.3.249.088a2.438,2.438,0,0,1,.192-.194l9.393-9.392c.165-.165.314-.355.577-.364a.159.159,0,0,1,.01.181c-.269.42-.427.9-.686,1.322a2.1,2.1,0,0,0-.58.454q-4.214,4.218-8.431,8.432a2.339,2.339,0,0,1-.344.318c-.172.114-.261.037-.3-.139a3.07,3.07,0,0,1-.076-.7" transform="translate(-0.767 -102.572)" fill="#fcae42"/>
    <path id="Path_401" data-name="Path 401" d="M147.5,3.195l.7.149c.107.213-.077.308-.184.419-.482.5-.975.981-1.464,1.469q-3.4,3.4-6.808,6.806a1.327,1.327,0,0,1-.449.37,3.427,3.427,0,0,1-.892.068c-.09-.047-.114-.119-.023-.175a4.55,4.55,0,0,0,.8-.745Q143,7.75,146.806,3.935c.239-.239.478-.478.693-.74" transform="translate(-123.854 -2.861)" fill="#fda14c"/>
    <path id="Path_402" data-name="Path 402" d="M124,300.023a1.748,1.748,0,0,1-.628-.23c-.064-.253.132-.378.271-.519,1.146-1.154,2.3-2.3,3.448-3.454,1.384-1.395,2.8-2.759,4.155-4.182a.291.291,0,0,1,.1-.06,1.576,1.576,0,0,1,.725,0c.17.087.12.207.042.324a2.247,2.247,0,0,1-.291.315c-2.573,2.582-5.164,5.146-7.726,7.74a.317.317,0,0,1-.1.067" transform="translate(-110.45 -261.034)" fill="#c01c9b"/>
    <path id="Path_403" data-name="Path 403" d="M300.653,149.512l.157.778a1.8,1.8,0,0,0-.523.4q-3.983,3.986-7.968,7.97a2.1,2.1,0,0,1-.344.318c-.112.07-.235.2-.366.018a1.281,1.281,0,0,1-.007-.654,3.96,3.96,0,0,1,.573-.579q3.985-3.994,7.98-7.978c.133-.133.233-.367.5-.276" transform="translate(-261.057 -133.851)" fill="#ae1ca6"/>
    <path id="Path_404" data-name="Path 404" d="M150.5,300.835l-.775-.155a.963.963,0,0,1,.383-.61q4.1-4.112,8.208-8.213a.806.806,0,0,1,.31-.232,1.157,1.157,0,0,1,.589.008c.164.1.1.219.019.329a2.8,2.8,0,0,1-.321.341q-3.976,3.977-7.954,7.953a2.455,2.455,0,0,0-.459.578" transform="translate(-134.058 -261.085)" fill="#ae1ca6"/>
    <path id="Path_405" data-name="Path 405" d="M1.648,137.788c.08.077.145.206.277.061.069-.078.148-.148.221-.221q4.328-4.328,8.657-8.655c.125-.125.229-.3.448-.269.128.318-.049.581-.152.858a7.138,7.138,0,0,0-.6.552q-4.059,4.062-8.121,8.122a2.375,2.375,0,0,1-.343.318c-.17.114-.263.049-.3-.137l-.084-.628" transform="translate(-1.476 -115.236)" fill="#fca846"/>
    <path id="Path_406" data-name="Path 406" d="M129.482,299.995c.007-.2.171-.285.286-.4q3.782-3.788,7.566-7.573c.116-.116.279-.2.289-.4a.813.813,0,0,1,.69-.081c.2.086.144.217.053.346a2.733,2.733,0,0,1-.321.341l-7.187,7.187a10.683,10.683,0,0,0-.751.795l-.626-.215" transform="translate(-115.935 -261.006)" fill="#bc1c9d"/>
    <path id="Path_407" data-name="Path 407" d="M142.54,2.426c.027.22-.146.322-.271.447q-4.146,4.15-8.3,8.3c-.178.178-.32.4-.593.462a.45.45,0,0,1-.5.147c-.162-.108-.079-.225,0-.331a2.938,2.938,0,0,1,.322-.34q4.252-4.253,8.5-8.505a3.25,3.25,0,0,1,.289-.262,1.811,1.811,0,0,1,.548.085" transform="translate(-118.894 -2.091)" fill="#fca747"/>
    <path id="Path_408" data-name="Path 408" d="M156.951,299.9c-.089-.261.128-.372.264-.509q4.112-4.12,8.228-8.235c.115-.115.281-.2.277-.4.2-.3.52-.157.789-.2.126.044.1.131.061.22a1.674,1.674,0,0,1-.359.46q-4.273,4.276-8.547,8.55a1.856,1.856,0,0,1-.238.2l-.474-.08" transform="translate(-140.511 -260.152)" fill="#aa1ca9"/>
    <path id="Path_409" data-name="Path 409" d="M113.764,11.338a.92.92,0,0,1,.351-.545Q118.859,6.049,123.6,1.3c.107-.107.409-.209.112-.438a3.06,3.06,0,0,1,.7.076c.143.068.1.164.033.255a2.54,2.54,0,0,1-.319.343q-4.287,4.288-8.575,8.574a1.819,1.819,0,0,0-.427.553,4.654,4.654,0,0,1-1.361.673" transform="translate(-101.862 -0.768)" fill="#fcae42"/>
    <path id="Path_410" data-name="Path 410" d="M103.882,299.176a2.519,2.519,0,0,1-.625-.325c.046-.192.208-.3.334-.422q3.15-3.156,6.307-6.3a3.457,3.457,0,0,1,.553-.547,1.578,1.578,0,0,1,.725,0c.17.088.119.208.041.324a2.22,2.22,0,0,1-.291.315q-3.325,3.326-6.651,6.649a.928.928,0,0,1-.393.31" transform="translate(-92.454 -261.035)" fill="#cf1c91"/>
    <path id="Path_411" data-name="Path 411" d="M300.635,144.768c-.19.022-.278.184-.394.3q-4.094,4.087-8.185,8.178c-.116.116-.2.279-.4.289a.694.694,0,0,1-.082-.617,2.638,2.638,0,0,1,.566-.584q3.919-3.932,7.851-7.851c.133-.133.234-.37.5-.264l.141.548" transform="translate(-261.039 -129.107)" fill="#b21ca4"/>
    <path id="Path_412" data-name="Path 412" d="M294.764,166.763c-.119-.34-.253-.153-.393-.014q-2.389,2.391-4.78,4.781-2.266,2.266-4.531,4.532a.936.936,0,0,1-.512.335,2.729,2.729,0,0,1,.472-1.138,2.138,2.138,0,0,0,.507-.422L294,166.36a2.042,2.042,0,0,1,.378-.336c.149-.089.271-.1.311.114l.071.624" transform="translate(-254.777 -148.602)" fill="#a41cac"/>
    <path id="Path_413" data-name="Path 413" d="M217.166,20.923a1.518,1.518,0,0,1,.6.321,1.2,1.2,0,0,1-.346.464q-3.144,3.146-6.29,6.29a.971.971,0,0,1-.366.285,1.383,1.383,0,0,1-.653-.008c-.172-.1-.072-.226-.01-.333a1.8,1.8,0,0,1,.312-.349q3.181-3.182,6.364-6.362c.118-.118.216-.266.395-.308" transform="translate(-188.038 -18.734)" fill="#fe6f69"/>
    <path id="Path_414" data-name="Path 414" d="M296.55,76.109a2.579,2.579,0,0,1,.463.641c.1.189-.042.294-.147.4q-2.661,2.672-5.334,5.333c-.134.133-.275.3-.5.152a.4.4,0,0,1-.063-.222.671.671,0,0,1,.117-.4c.469-.668.952-1.326,1.405-2.006a.531.531,0,0,1,.167-.161,1.735,1.735,0,0,0,.594-.43q1.647-1.654,3.3-3.3" transform="translate(-260.525 -68.146)" fill="#e71c82"/>
    <path id="Path_415" data-name="Path 415" d="M300.278,135.072l.157.548c-.271.224-.518.473-.766.721q-3.7,3.7-7.4,7.4a2.589,2.589,0,0,1-.312.294c-.108.077-.225.154-.333-.006a1.046,1.046,0,0,1-.01-.593,4.25,4.25,0,0,1,.574-.578q3.752-3.762,7.516-7.512c.148-.147.265-.427.57-.27" transform="translate(-261.073 -120.898)" fill="#b81ca0"/>
    <path id="Path_416" data-name="Path 416" d="M135.444,300.24c-.026-.22.148-.321.273-.446q3.868-3.872,7.737-7.742c.116-.116.279-.2.289-.4a.68.68,0,0,1,.618-.078c.2.092.133.223.044.348a2.827,2.827,0,0,1-.321.34q-3.684,3.685-7.37,7.369c-.248.248-.5.5-.721.766l-.548-.157" transform="translate(-121.271 -261.036)" fill="#b81ca0"/>
    <path id="Path_417" data-name="Path 417" d="M300.244,130.4c-.22-.027-.321.147-.446.272q-3.872,3.868-7.742,7.737c-.116.116-.2.279-.4.289a.693.693,0,0,1-.082-.617,2.363,2.363,0,0,1,.538-.556q3.668-3.681,7.346-7.352a2.456,2.456,0,0,1,.314-.293c.117-.082.236-.127.319.048l.153.473" transform="translate(-261.039 -116.223)" fill="#bc1c9d"/>
    <path id="Path_418" data-name="Path 418" d="M58.982,284.1a2.949,2.949,0,0,1-.613-.555c1.322-1.349,2.669-2.673,4-4.012.441-.443.886-.882,1.321-1.331.3.045.463.288.66.48.063.187-.068.294-.175.4q-2.427,2.436-4.863,4.863c-.087.087-.17.21-.329.153" transform="translate(-52.262 -249.097)" fill="#f93284"/>
    <path id="Path_419" data-name="Path 419" d="M283.538,58.44a2.637,2.637,0,0,1,.558.6c.057.177-.085.261-.18.356q-2.379,2.387-4.765,4.766a.6.6,0,0,1-.464.249,1.159,1.159,0,0,1-.491-.657q2.632-2.616,5.247-5.25a.318.318,0,0,1,.1-.067" transform="translate(-249.09 -52.326)" fill="#f93284"/>
    <path id="Path_420" data-name="Path 420" d="M59.7,274.107c0,.151-.119.225-.208.314q-2.4,2.4-4.8,4.8c-.091.09-.17.2-.319.2a2.136,2.136,0,0,1-.466-.471c.05-.384.371-.6.61-.817.817-.751,1.575-1.56,2.367-2.334.653-.638,1.291-1.291,1.939-1.934.117-.116.218-.267.413-.269.2.127.452.212.46.513" transform="translate(-48.272 -244.969)" fill="#fd3382"/>
    <path id="Path_421" data-name="Path 421" d="M279.351,54.386c0,.15-.114.227-.2.317q-2.394,2.4-4.792,4.791c-.09.089-.164.208-.314.208-.3,0-.365-.275-.521-.444-.009-.181.126-.279.234-.387q2.361-2.366,4.728-4.727c.106-.105.194-.257.383-.229a1.674,1.674,0,0,1,.485.47" transform="translate(-244.903 -48.272)" fill="#fd3282"/>
    <path id="Path_422" data-name="Path 422" d="M290.779,165.454a1.22,1.22,0,0,0,.5-.366q4.105-4.107,8.215-8.21c.112-.112.2-.35.437-.194l.079.474c-2.959,2.856-5.824,5.807-8.746,8.7a3.338,3.338,0,0,1-.465.416c-.077.052-.16.11-.219-.025.039-.273-.1-.589.2-.8" transform="translate(-260.177 -140.246)" fill="#aa1ca9"/>
    <path id="Path_423" data-name="Path 423" d="M298.87,103.229a1.13,1.13,0,0,1,.234.465c.048.192-.108.279-.212.383q-3.389,3.4-6.787,6.783c-.126.126-.253.385-.5.146a1.28,1.28,0,0,1-.01-.66,3.2,3.2,0,0,1,.544-.552q3.129-3.14,6.27-6.269c.128-.128.22-.338.464-.3" transform="translate(-261.05 -92.424)" fill="#d01c91"/>
    <path id="Path_424" data-name="Path 424" d="M126.481,291.653c-.01.2-.173.284-.289.4q-3.621,3.627-7.247,7.248a1.4,1.4,0,0,0-.373.494,1.431,1.431,0,0,1-.573-.224c.034-.257.239-.4.4-.558q3.448-3.454,6.9-6.9a2.538,2.538,0,0,1,.557-.539.689.689,0,0,1,.621.079" transform="translate(-105.653 -261.037)" fill="#c51c98"/>
    <path id="Path_425" data-name="Path 425" d="M3.6,152.014l-.119-.54c2.9-2.882,5.782-5.781,8.679-8.665.124-.123.245-.338.481-.159a.706.706,0,0,1,.022.464,1.01,1.01,0,0,1-.289.364q-4.134,4.136-8.273,8.268c-.133.133-.233.37-.5.268" transform="translate(-3.119 -127.665)" fill="#fda14c"/>
    <path id="Path_426" data-name="Path 426" d="M153.827,291.661c-.1.116-.2.237-.312.346q-3.712,3.715-7.426,7.428a9.331,9.331,0,0,0-1.1,1.2c-.183-.049-.388-.016-.551-.143-.029-.24.175-.336.3-.466q3.911-3.921,7.834-7.831c.21-.209.351-.491.638-.622.213-.027.43-.082.617.083" transform="translate(-129.32 -261.045)" fill="#b21ca4"/>
    <path id="Path_427" data-name="Path 427" d="M148.188,13.608c.1-.116.2-.237.313-.347q4.12-4.123,8.24-8.245c.116-.116.279-.2.293-.4l.395.083c.172.083.13.2.047.32a2.49,2.49,0,0,1-.293.313q-3.907,3.908-7.818,7.813a2.538,2.538,0,0,1-.557.54.69.69,0,0,1-.621-.079" transform="translate(-132.684 -4.135)" fill="#fd9d4f"/>
    <path id="Path_428" data-name="Path 428" d="M4.59,157.033c.194-.014.282-.178.4-.293q4.124-4.118,8.244-8.24c.11-.11.231-.209.347-.313a.694.694,0,0,1,.082.617,2.623,2.623,0,0,1-.565.584q-3.889,3.9-7.788,7.794a2.47,2.47,0,0,1-.314.293c-.117.082-.236.128-.319-.047a.977.977,0,0,1-.084-.395" transform="translate(-4.106 -132.683)" fill="#fd9d4f"/>
    <path id="Path_429" data-name="Path 429" d="M105.547,291.622c0,.134-.095.208-.177.29q-3.4,3.4-6.8,6.794a1.326,1.326,0,0,1-.155.116,1.6,1.6,0,0,1-.565-.306q3.216-3.224,6.441-6.438a2.33,2.33,0,0,1,.559-.538.822.822,0,0,1,.693.081" transform="translate(-87.616 -261.006)" fill="#d41c8e"/>
    <path id="Path_430" data-name="Path 430" d="M176.822,284.192a1.108,1.108,0,0,1-.359.5l-9.2,9.2q-.124.124-.245.252c-.15.159-.046.236.1.3l-.7-.077c-.115-.134-.031-.243.05-.346a3.53,3.53,0,0,1,.3-.31q3.811-3.812,7.622-7.624a17.657,17.657,0,0,0,1.4-1.469c.344-.146.626-.445,1.038-.427" transform="translate(-148.954 -254.458)" fill="#a41cac"/>
    <path id="Path_431" data-name="Path 431" d="M149.763,291.62a1.454,1.454,0,0,1-.377.492q-4,4-8,8c-.11.11-.209.231-.314.347a.933.933,0,0,1-.393-.091c-.027-.22.147-.321.272-.446q3.947-3.951,7.895-7.9c.116-.116.279-.2.289-.4a.474.474,0,0,1,.626,0" transform="translate(-125.96 -261.004)" fill="#b51ca2"/>
    <path id="Path_432" data-name="Path 432" d="M7.08,168.909a1.3,1.3,0,0,1-.145-.472.915.915,0,0,1,.243-.35q4.037-4.035,8.076-8.069c.124-.123.244-.339.481-.158a.709.709,0,0,1,.021.463,1.114,1.114,0,0,1-.316.391q-3.945,3.947-7.9,7.891c-.13.13-.226.333-.465.3" transform="translate(-6.209 -143.073)" fill="#fd9555"/>
    <path id="Path_433" data-name="Path 433" d="M168.381,6.935a.922.922,0,0,1,.4.124c.113.249-.1.355-.228.482q-1.875,1.889-3.761,3.767-2.048,2.048-4.1,4.1a1.349,1.349,0,0,1-.417.349.731.731,0,0,1-.464-.011c-.154-.114-.07-.228.006-.335a2.085,2.085,0,0,1,.24-.257l7.887-7.888a1.1,1.1,0,0,1,.433-.326" transform="translate(-143.017 -6.209)" fill="#fd9555"/>
    <path id="Path_434" data-name="Path 434" d="M238.109,29.035a1.628,1.628,0,0,1,.517.328c-.043.194-.205.3-.332.424q-2.6,2.6-5.2,5.2a3.519,3.519,0,0,1-.552.548,1.551,1.551,0,0,1-.723,0c-.179-.1-.084-.221-.023-.329a1.729,1.729,0,0,1,.311-.35q2.766-2.767,5.535-5.53c.129-.129.226-.337.47-.29" transform="translate(-207.47 -25.992)" fill="#fe5e70"/>
    <path id="Path_435" data-name="Path 435" d="M85.038,298.083a2.36,2.36,0,0,1-.621-.4q2.708-2.723,5.433-5.429c.228-.226.372-.539.683-.682a1.674,1.674,0,0,1,.726.009c.167.093.109.211.032.327a1.565,1.565,0,0,1-.209.231c-1.937,1.948-3.894,3.876-5.821,5.834-.06.061-.108.158-.223.1" transform="translate(-75.585 -261.04)" fill="#e01c87"/>
    <path id="Path_436" data-name="Path 436" d="M29.3,238.784a1.894,1.894,0,0,1-.327-.522c-.051-.115.045-.164.106-.224,1.979-1.946,3.925-3.925,5.9-5.876.12-.118.212-.41.487-.2a1.621,1.621,0,0,1,.017.722.985.985,0,0,1-.306.4q-2.654,2.657-5.311,5.31a1.1,1.1,0,0,1-.566.4" transform="translate(-25.926 -207.626)" fill="#fe5e70"/>
    <path id="Path_437" data-name="Path 437" d="M109.227,299.177c.1-.117.2-.242.306-.351q3.384-3.388,6.77-6.775c.116-.116.279-.2.289-.4a.68.68,0,0,1,.618-.078c.2.093.131.224.042.348a2.875,2.875,0,0,1-.321.341c-2.36,2.372-4.744,4.72-7.088,7.108a.21.21,0,0,1-.066.041,1.281,1.281,0,0,1-.55-.234" transform="translate(-97.799 -261.036)" fill="#cb1c94"/>
    <path id="Path_438" data-name="Path 438" d="M291.105,88.117c.183.026.283-.1.393-.211l5.322-5.323c.1-.1.224-.185.226-.349.2.165.272.421.419.624a.706.706,0,0,1-.2.28q-2.827,2.826-5.653,5.652a1.06,1.06,0,0,1-.207.176c-.111.065-.22.092-.3-.053-.031-.266-.212-.532,0-.8" transform="translate(-260.557 -73.631)" fill="#e11c86"/>
    <path id="Path_439" data-name="Path 439" d="M126.458,11.285c-.029-.219.14-.323.266-.449q4.43-4.433,8.859-8.867c.1-.1.3-.157.194-.369a1.848,1.848,0,0,1,.546.077c-.015.193-.178.281-.293.4q-4.288,4.294-8.579,8.585c-.116.116-.279.2-.287.4a.585.585,0,0,1-.7.225" transform="translate(-113.225 -1.428)" fill="#fcaa45"/>
    <path id="Path_440" data-name="Path 440" d="M171.6,288.6a4.029,4.029,0,0,1-.6.712q-4.262,4.257-8.518,8.518c-.125.125-.3.227-.272.447l-.548-.079c.022-.19.184-.278.3-.394q4.126-4.132,8.257-8.258a3.933,3.933,0,0,0,.6-.712.714.714,0,0,1,.783-.234" transform="translate(-144.743 -258.372)" fill="#a71caa"/>
    <path id="Path_441" data-name="Path 441" d="M10.205,183.751a3.131,3.131,0,0,1-.293-.79,1.733,1.733,0,0,0,.524-.4q3.627-3.631,7.257-7.259a2.375,2.375,0,0,1,.342-.319c.111-.074.227-.2.371-.045a.877.877,0,0,1,.015.524c-.124.241-.368.362-.55.545q-3.612,3.626-7.238,7.239c-.157.157-.277.342-.428.5" transform="translate(-8.875 -156.572)" fill="#fe8b5d"/>
    <path id="Path_442" data-name="Path 442" d="M182.807,9.9a2.313,2.313,0,0,1,.622.226c.03.24-.174.335-.3.465q-3.6,3.61-7.21,7.209a3.533,3.533,0,0,1-.6.607.9.9,0,0,1-.525-.007c-.161-.106-.086-.223-.008-.332a2.617,2.617,0,0,1,.295-.313q3.665-3.666,7.331-7.329a1.737,1.737,0,0,0,.4-.525" transform="translate(-156.419 -8.863)" fill="#fe8b5d"/>
    <path id="Path_443" data-name="Path 443" d="M289.267,170.816q4.454-4.44,8.908-8.881a.832.832,0,0,1,.457-.279q.042.312.084.624c-.082-.132-.187-.12-.289-.034s-.191.177-.283.269q-4.323,4.322-8.646,8.643c-.116.116-.2.28-.4.283a.483.483,0,0,1,.171-.625" transform="translate(-258.8 -144.744)" fill="#a71caa"/>
    <path id="Path_444" data-name="Path 444" d="M300.131,125.979c-.216-.15-.3.052-.412.16q-2.585,2.578-5.165,5.161-1.243,1.242-2.486,2.484c-.107.107-.191.255-.372.261a.578.578,0,0,1-.079-.547,2.684,2.684,0,0,1,.54-.554q3.612-3.624,7.237-7.234c.142-.141.249-.4.536-.282a1.794,1.794,0,0,1,.2.552" transform="translate(-261.079 -112.278)" fill="#bf1c9b"/>
    <path id="Path_445" data-name="Path 445" d="M90.353,298.024q3-3.013,6-6.028c.115-.116.279-.2.288-.4a.947.947,0,0,1,.759-.082c.17.06.13.167.055.274a2.4,2.4,0,0,1-.292.315q-2.886,2.887-5.778,5.768c-.164.163-.243.442-.538.454a1.373,1.373,0,0,1-.492-.3" transform="translate(-80.9 -260.981)" fill="#da1c8a"/>
    <path id="Path_446" data-name="Path 446" d="M231.91,26.551c-.109.091-.225.175-.326.275q-2.848,2.843-5.693,5.689a1.392,1.392,0,0,0-.349.464.68.68,0,0,1-.619.078c-.215-.1-.126-.254-.051-.391a1.63,1.63,0,0,1,.307-.352q2.887-2.889,5.778-5.774c.123-.123.219-.3.439-.284.16.118.389.116.514.3" transform="translate(-201.271 -23.507)" fill="#fe656e"/>
    <path id="Path_447" data-name="Path 447" d="M299.931,120.246c-.195.006-.289.162-.406.279q-3.715,3.711-7.429,7.424c-.116.116-.2.279-.4.289a.577.577,0,0,1-.079-.545c.1-.211.3-.318.457-.473,2.509-2.528,5.047-5.026,7.543-7.567a.2.2,0,0,1,.066-.041,1.87,1.87,0,0,1,.247.634" transform="translate(-261.08 -107.098)" fill="#c31c99"/>
    <path id="Path_448" data-name="Path 448" d="M181.111,20.27a1.452,1.452,0,0,1,.376-.491q3.688-3.686,7.373-7.374c.11-.11.209-.23.313-.346a.769.769,0,0,1,.393.152c.114.212-.068.309-.176.42-.481.494-.974.976-1.459,1.465-2.042,2.059-4.121,4.083-6.139,6.167a.367.367,0,0,1-.131.084.575.575,0,0,1-.55-.077" transform="translate(-162.162 -10.797)" fill="#fe8660"/>
    <path id="Path_449" data-name="Path 449" d="M11.678,137.59c-.2,0-.287.168-.4.284Q7.137,142.008,3,146.144c-.126.126-.226.3-.438.3l-.108-.63c.077.089.147.2.274.055.069-.078.147-.147.221-.221q4.2-4.2,8.4-8.4c.116-.116.2-.279.4-.288a.409.409,0,0,1-.072.626" transform="translate(-2.198 -122.634)" fill="#fca549"/>
    <path id="Path_450" data-name="Path 450" d="M12.695,189.341a.484.484,0,0,1,.2-.4q3.784-3.78,7.564-7.564a1.282,1.282,0,0,1,.381-.265.493.493,0,0,1,.08.474.9.9,0,0,1-.279.369q-3.69,3.692-7.385,7.379c-.124.124-.224.348-.475.232a.264.264,0,0,1-.083-.224" transform="translate(-11.365 -162.162)" fill="#fe8660"/>
    <path id="Path_451" data-name="Path 451" d="M21.166,217.7a1.163,1.163,0,0,1-.242-.465.7.7,0,0,1,.251-.339q3.171-3.174,6.345-6.346a2.715,2.715,0,0,1,.484-.392c.085-.053.179-.131.265,0a1.029,1.029,0,0,1,.01.59,3.831,3.831,0,0,1-.548.551q-3.011,3.022-6.032,6.033c-.153.152-.278.356-.533.364" transform="translate(-18.735 -188.103)" fill="#fe6f69"/>
    <path id="Path_452" data-name="Path 452" d="M298.859,98.407c-.116.1-.239.2-.348.308q-3.228,3.225-6.456,6.451c-.116.116-.2.278-.4.288a.693.693,0,0,1-.082-.617c.074-.195.263-.283.4-.42,2.166-2.185,4.365-4.336,6.512-6.54a.187.187,0,0,1,.066-.04,1.643,1.643,0,0,1,.307.569" transform="translate(-261.039 -87.602)" fill="#d41c8e"/>
    <path id="Path_453" data-name="Path 453" d="M13.508,194.256c.2-.007.284-.171.4-.286q3.658-3.652,7.313-7.309c.11-.11.23-.208.346-.312a.693.693,0,0,1,.082.616c-.119.242-.355.374-.537.556q-3.471,3.484-6.953,6.956c-.126.126-.229.288-.421.335a1.5,1.5,0,0,1-.23-.556" transform="translate(-12.095 -166.853)" fill="#fe8262"/>
    <path id="Path_454" data-name="Path 454" d="M187.1,21.568c.01-.2.173-.283.288-.4q3.625-3.632,7.254-7.26c.116-.116.279-.2.286-.4.176.1.4.072.556.23-.047.192-.209.295-.335.422q-3.469,3.474-6.944,6.942a2.809,2.809,0,0,1-.556.543.575.575,0,0,1-.548-.077" transform="translate(-167.522 -12.096)" fill="#fe8262"/>
    <path id="Path_455" data-name="Path 455" d="M299.69,116.323c0,.18-.145.27-.254.378q-3.693,3.7-7.388,7.388c-.1.1-.179.231-.346.233a.591.591,0,0,1-.083-.542c.132-.284.413-.424.621-.633q3.427-3.445,6.869-6.874c.126-.126.229-.288.42-.335a.73.73,0,0,1,.159.384" transform="translate(-261.086 -103.809)" fill="#c61c97"/>
    <path id="Path_456" data-name="Path 456" d="M114.481,299.38c0-.2.164-.288.28-.4q3.474-3.479,6.951-6.956c.116-.116.279-.2.288-.4a.474.474,0,0,1,.626,0c-.01.2-.173.283-.288.4q-3.309,3.316-6.622,6.627c-.293.293-.578.6-.866.893a.536.536,0,0,1-.368-.16" transform="translate(-102.504 -261.005)" fill="#c81c96"/>
    <path id="Path_457" data-name="Path 457" d="M299.531,111.337c-.084.1-.162.2-.253.295q-3.568,3.572-7.138,7.142a1.346,1.346,0,0,1-.437.321.591.591,0,0,1-.083-.542c.093-.248.338-.351.51-.524q3.386-3.4,6.785-6.786c.139-.139.238-.308.378-.443a1.405,1.405,0,0,1,.239.538" transform="translate(-261.086 -99.207)" fill="#c91c95"/>
    <path id="Path_458" data-name="Path 458" d="M15.71,200.841c.093-.107.18-.221.28-.321q3.573-3.576,7.149-7.148c.116-.116.2-.279.4-.289a.493.493,0,0,1,.08.475,1,1,0,0,1-.307.4q-3.463,3.465-6.931,6.925c-.143.142-.254.394-.54.278a.628.628,0,0,1-.132-.315" transform="translate(-14.066 -172.882)" fill="#fe7d64"/>
    <path id="Path_459" data-name="Path 459" d="M164.078,5.571c-.133.142-.263.287-.4.425q-3.959,3.962-7.919,7.923c-.116.116-.279.2-.288.4a.4.4,0,0,1-.548,0c.01-.2.173-.284.289-.4q4.028-4.035,8.059-8.068c.113-.113.344-.2.189-.439l.62.159" transform="translate(-138.713 -4.846)" fill="#fd9952"/>
    <path id="Path_460" data-name="Path 460" d="M14.331,155.469c-.2.01-.283.173-.4.289Q9.913,159.77,5.9,163.786c-.1.1-.21.194-.315.29l-.158-.619c.216.149.3-.053.412-.161q2.282-2.274,4.558-4.554,1.781-1.781,3.563-3.561c.107-.107.191-.255.372-.261a.4.4,0,0,1,0,.548" transform="translate(-4.858 -138.713)" fill="#fd9952"/>
    <path id="Path_461" data-name="Path 461" d="M193.083,23.538c0-.134.094-.208.177-.29q3.712-3.713,7.426-7.424a1.263,1.263,0,0,1,.156-.115.607.607,0,0,1,.318.134c.071.219-.087.344-.21.467q-3.545,3.56-7.1,7.107a.679.679,0,0,1-.286.2.491.491,0,0,1-.477-.079" transform="translate(-172.882 -14.065)" fill="#fe7d64"/>
    <path id="Path_462" data-name="Path 462" d="M291.7,149.136c.2-.01.283-.173.4-.289q3.952-3.945,7.9-7.894c.125-.125.227-.3.446-.272a.949.949,0,0,1,.092.392c-.195.011-.283.174-.4.29q-4.021,4.015-8.039,8.033c-.116.116-.2.279-.4.289a.4.4,0,0,1,0-.548" transform="translate(-261.079 -125.96)" fill="#b51ca1"/>
    <path id="Path_463" data-name="Path 463" d="M299.21,108.044c.028.181-.091.286-.2.4q-3.5,3.5-7.006,7.007a1.282,1.282,0,0,1-.381.265.473.473,0,0,1,0-.626c.134,0,.208-.094.29-.177q3.516-3.516,7.031-7.033a1.278,1.278,0,0,0,.115-.155.558.558,0,0,1,.153.322" transform="translate(-261.004 -96.452)" fill="#cd1c93"/>
    <path id="Path_464" data-name="Path 464" d="M283.058,69.549a2.8,2.8,0,0,0,.342-.253q2.443-2.434,4.878-4.876a2.168,2.168,0,0,0,.167-.213l.152.173a10.254,10.254,0,0,1-1.284,2.222.765.765,0,0,0-.443.3q-1.508,1.506-3.016,3.011c-.125.124-.226.3-.441.288-.207-.169-.4-.346-.355-.651" transform="translate(-253.438 -57.49)" fill="#f43288"/>
    <path id="Path_465" data-name="Path 465" d="M86.586,291.2a2.862,2.862,0,0,1-.507.635q-2.569,2.562-5.133,5.128c-.117.117-.211.272-.405.279a1.469,1.469,0,0,1-.453-.32c1.218-1.248,2.464-2.468,3.692-3.705.705-.711,1.426-1.406,2.111-2.138a.407.407,0,0,1,.115-.034.861.861,0,0,1,.581.155" transform="translate(-71.708 -260.591)" fill="#e41c84"/>
    <path id="Path_466" data-name="Path 466" d="M26.681,204.705a6.507,6.507,0,0,0-.936.82q-3,3-6,6c-.11.109-.233.206-.349.308a.534.534,0,0,1-.153-.309c-.1-.266.125-.374.261-.51q3.018-3.029,6.044-6.049c.249-.248.485-.511.753-.738.122-.1.263-.293.45-.07a.554.554,0,0,1-.072.549" transform="translate(-17.208 -182.704)" fill="#fe7467"/>
    <path id="Path_467" data-name="Path 467" d="M211.821,19.4c-.1.117-.2.24-.308.35q-3.233,3.237-6.469,6.47a1.39,1.39,0,0,0-.349.464.559.559,0,0,1-.545.074c-.183-.089-.1-.214-.035-.325a1.493,1.493,0,0,1,.281-.323q3.3-3.3,6.606-6.6c.136-.135.245-.363.51-.261a.525.525,0,0,1,.308.153" transform="translate(-182.693 -17.207)" fill="#fe7467"/>
    <path id="Path_468" data-name="Path 468" d="M33.4,226.241c-.106.095-.218.184-.318.284q-2.637,2.634-5.272,5.27c-.275.275-.558.541-.838.811a.843.843,0,0,1-.236-.385c-.052-.175.081-.265.178-.362q3.039-3.047,6.088-6.084c.121-.12.262-.344.471-.087a.56.56,0,0,1-.072.554" transform="translate(-23.925 -201.97)" fill="#fe646e"/>
    <path id="Path_469" data-name="Path 469" d="M55.643,269.522c-1.391,1.385-2.775,2.777-4.176,4.15a16.216,16.216,0,0,0-1.124,1.171,1.465,1.465,0,0,1-.407-.436c-.05-.192.1-.285.206-.391q2.389-2.4,4.784-4.786c.1-.1.193-.217.355-.221.189.122.4.231.362.512" transform="translate(-44.702 -240.865)" fill="#fe3a7e"/>
    <path id="Path_470" data-name="Path 470" d="M250.079,34.126a.625.625,0,0,1,.308.219c.07.2-.07.323-.184.438q-2.641,2.659-5.3,5.3a.546.546,0,0,1-.191.133.636.636,0,0,1-.509-.092.257.257,0,0,1,0-.354,1.243,1.243,0,0,1,.179-.206q2.619-2.622,5.243-5.239c.121-.12.229-.308.456-.2" transform="translate(-218.59 -30.527)" fill="#fe5573"/>
    <path id="Path_471" data-name="Path 471" d="M64.225,288.426c.1-.083.2-.159.3-.25q2.4-2.4,4.8-4.8c.1-.1.232-.176.247-.337.3-.049.452.127.579.354,0,.211-.167.315-.291.441q-1.419,1.427-2.845,2.845a3.884,3.884,0,0,0-.614.755,8.582,8.582,0,0,1-2,1.14l-.172-.151" transform="translate(-57.505 -253.422)" fill="#f43288"/>
    <path id="Path_472" data-name="Path 472" d="M225.117,24.229q-1.25,1.237-2.5,2.475-1.87,1.863-3.734,3.732a.87.87,0,0,0-.324.517.656.656,0,0,1-.783,0c.095-.107.184-.218.285-.319q3.107-3.11,6.216-6.217c.144-.144.293-.285.439-.427.116.11.325.062.4.238" transform="translate(-194.991 -21.481)" fill="#fe696c"/>
    <path id="Path_473" data-name="Path 473" d="M95.057,298.425q3.213-3.233,6.426-6.466c.082-.082.153-.175.229-.263a.4.4,0,0,1,.548,0c0,.166-.134.246-.233.345q-3.147,3.151-6.3,6.3c-.109.109-.2.246-.379.251a.493.493,0,0,1-.293-.165" transform="translate(-85.112 -261.08)" fill="#d71c8c"/>
    <path id="Path_474" data-name="Path 474" d="M275.459,50.329q-2.342,2.329-4.683,4.658c-.212.211-.414.432-.621.648-.246.048-.321-.151-.432-.3-.046-.219.12-.33.244-.456,1.61-1.624,3.242-3.226,4.843-4.859.062-.063.116-.148.228-.1a1.1,1.1,0,0,1,.421.411" transform="translate(-241.496 -44.685)" fill="#fe397f"/>
    <path id="Path_475" data-name="Path 475" d="M206.391,17.248c-.165,0-.249.128-.349.228q-3.4,3.4-6.8,6.8a1.3,1.3,0,0,0-.293.41.474.474,0,0,1-.626,0c.1-.116.2-.237.312-.346q3.424-3.427,6.85-6.85a1.414,1.414,0,0,0,.365-.5,1.477,1.477,0,0,1,.543.259" transform="translate(-177.571 -15.212)" fill="#fe7966"/>
    <path id="Path_476" data-name="Path 476" d="M24.671,198.947a1.345,1.345,0,0,0-.437.321q-3.371,3.375-6.743,6.747c-.108.108-.253.195-.256.376a1.536,1.536,0,0,1-.261-.545c.209-.009.311-.177.436-.3q3.458-3.453,6.913-6.91c.11-.11.231-.209.347-.313a.473.473,0,0,1,0,.626" transform="translate(-15.198 -177.572)" fill="#fe7966"/>
    <path id="Path_477" data-name="Path 477" d="M298.22,91.462a.723.723,0,0,1,.239.374c.045.193-.111.279-.214.383q-2.964,2.971-5.939,5.932c-.163.161-.306.447-.632.3a.863.863,0,0,1-.019-.526,3.128,3.128,0,0,1,.605-.6q2.758-2.775,5.531-5.536a.922.922,0,0,1,.429-.326" transform="translate(-261.112 -81.893)" fill="#da1c8a"/>
    <path id="Path_478" data-name="Path 478" d="M35.069,250.877l-.231-.326c-.148-.279.09-.4.234-.549q2.593-2.605,5.2-5.2a1.648,1.648,0,0,1,.261-.235c.066-.042.136-.083.213-.016a1.231,1.231,0,0,1,.162.726,2.808,2.808,0,0,0-.745.6q-2.345,2.35-4.7,4.694c-.117.117-.214.267-.394.305" transform="translate(-31.151 -218.933)" fill="#fe5474"/>
    <path id="Path_479" data-name="Path 479" d="M82.35,291.508a1.416,1.416,0,0,1-.3.407q-2.576,2.571-5.149,5.145c-.1.1-.18.23-.347.23a1.109,1.109,0,0,1-.413-.3c.038-.165.175-.254.283-.362q1.485-1.491,2.976-2.976a1.89,1.89,0,0,0,.379-.49,5.9,5.9,0,0,1,.987-.741c.373-.276.767-.524,1.139-.8.126-.095.255-.238.442-.108" transform="translate(-68.177 -260.963)" fill="#e71c82"/>
    <path id="Path_480" data-name="Path 480" d="M165.4,16.741c.1-.116.2-.236.312-.346q3.934-3.936,7.868-7.872c.116-.117.274-.21.28-.405l.385.11c.108.234-.1.327-.217.444-.739.752-1.491,1.493-2.234,2.241-1.935,1.951-3.9,3.867-5.815,5.843a.288.288,0,0,1-.1.059.474.474,0,0,1-.479-.074" transform="translate(-148.093 -7.269)" fill="#fd9158"/>
    <path id="Path_481" data-name="Path 481" d="M8.324,173.93c.116-.1.236-.2.346-.313l7.909-7.906c.11-.11.231-.209.347-.313a.475.475,0,0,1,.076.476,3.035,3.035,0,0,1-.543.553q-3.767,3.778-7.546,7.545c-.133.132-.231.371-.5.272l-.088-.314" transform="translate(-7.453 -148.094)" fill="#fd9158"/>
    <path id="Path_482" data-name="Path 482" d="M298.112,88.539c-.722.731-1.441,1.464-2.166,2.192q-1.928,1.935-3.862,3.865a1.391,1.391,0,0,1-.463.348.473.473,0,0,1,0-.626c.2-.01.284-.174.4-.289q2.77-2.763,5.535-5.531a1.094,1.094,0,0,1,.356-.3c.119.083.129.23.2.342" transform="translate(-261.004 -78.97)" fill="#dd1c88"/>
    <path id="Path_483" data-name="Path 483" d="M9.167,178.933c.192-.019.28-.181.4-.3q3.861-3.854,7.718-7.711c.116-.116.2-.279.4-.289a.326.326,0,0,1,0,.47,1.454,1.454,0,0,0-.491.376q-3.751,3.753-7.506,7.5c-.113.113-.2.345-.438.189l-.078-.239" transform="translate(-8.208 -152.783)" fill="#fe8e5a"/>
    <path id="Path_484" data-name="Path 484" d="M170.635,17.678c.01-.2.173-.284.289-.4q3.854-3.86,7.712-7.718c.116-.116.279-.2.3-.4l.238.077c.15.215-.051.3-.159.413q-2.3,2.31-4.61,4.613-1.519,1.519-3.036,3.039c-.107.107-.255.191-.261.372a.326.326,0,0,1-.47,0" transform="translate(-152.782 -8.205)" fill="#fe8e5a"/>
    <path id="Path_485" data-name="Path 485" d="M37.184,31.4c.166.134.005.205-.063.274q-2.721,2.729-5.45,5.45c-.069.069-.14.23-.274.064a10.48,10.48,0,0,1,1.169-1.643,20.772,20.772,0,0,1,4.506-4.122.3.3,0,0,1,.112-.023" transform="translate(-28.112 -28.112)" fill="#f9e11b"/>
    <path id="Path_486" data-name="Path 486" d="M291.7,101.7a3.489,3.489,0,0,0,.686-.57q2.879-2.885,5.763-5.767c.1-.1.188-.213.281-.32a.514.514,0,0,1,.165.293c-.006.178-.142.271-.251.38q-3.149,3.151-6.3,6.3c-.1.1-.179.231-.345.233a.4.4,0,0,1,0-.548" transform="translate(-261.08 -85.096)" fill="#d71c8c"/>
    <path id="Path_487" data-name="Path 487" d="M31.413,220.954c-.15,0-.227.115-.318.2q-3.08,3.077-6.157,6.158a2.507,2.507,0,0,0-.191.243.888.888,0,0,1-.231-.4c-.046-.114.047-.164.108-.224,2.114-2.081,4.2-4.193,6.3-6.285a1.563,1.563,0,0,1,.231-.209c.115-.076.233-.137.328.031a.461.461,0,0,1-.069.483" transform="translate(-21.941 -197.308)" fill="#fe696c"/>
    <path id="Path_488" data-name="Path 488" d="M249.95,42.3c.112-.125.219-.256.338-.375q2.469-2.473,4.942-4.942a1.41,1.41,0,0,0,.367-.5,1.145,1.145,0,0,1,.435.336,1.157,1.157,0,0,1-.322.436q-2.5,2.5-5.006,5.005a.853.853,0,0,1-.305.239.414.414,0,0,1-.449-.2" transform="translate(-223.799 -32.671)" fill="#fe5076"/>
    <path id="Path_489" data-name="Path 489" d="M37.446,257.276c.076-.089.145-.183.227-.265q2.569-2.572,5.142-5.141c.11-.11.2-.305.414-.153a.367.367,0,0,1,.2.44,1.968,1.968,0,0,0-.639.489c-1.678,1.674-3.344,3.36-5.032,5.023a1.233,1.233,0,0,1-.312-.395" transform="translate(-33.528 -225.332)" fill="#fe4f76"/>
    <path id="Path_490" data-name="Path 490" d="M254.443,45.324q2.282-2.3,4.565-4.59c.346-.347.7-.688,1.046-1.032.131.114.315.157.415.313-1.632,1.665-3.294,3.3-4.939,4.952a1.956,1.956,0,0,0-.49.64.6.6,0,0,1-.6-.282" transform="translate(-227.822 -35.548)" fill="#fe4b78"/>
    <path id="Path_491" data-name="Path 491" d="M40.43,261.688c0-.165.129-.248.228-.346q2.491-2.494,4.987-4.985c.109-.109.2-.305.412-.152a.291.291,0,0,1,.2.367,1.84,1.84,0,0,0-.389.314q-2.4,2.405-4.8,4.8c-.117.117-.214.267-.395.3l-.237-.306" transform="translate(-36.2 -229.35)" fill="#fe4b78"/>
    <path id="Path_492" data-name="Path 492" d="M267.734,44.718a1.046,1.046,0,0,1,.374.323q-2.61,2.63-5.239,5.242a.487.487,0,0,1-.192.13.367.367,0,0,1-.415-.254c0-.194.145-.3.262-.414q2.4-2.4,4.8-4.794c.112-.112.2-.285.414-.232" transform="translate(-234.823 -40.031)" fill="#fe437a"/>
    <path id="Path_493" data-name="Path 493" d="M266.346,53.235c.091-.108.175-.224.275-.324q2.368-2.373,4.742-4.741c.116-.116.208-.275.4-.281l.256.223q-2.5,2.515-5.005,5.031c-.107.108-.255.19-.271.367a.312.312,0,0,1-.4-.274" transform="translate(-238.48 -42.878)" fill="#fe3e7c"/>
    <path id="Path_494" data-name="Path 494" d="M38.388,240.69q-1.981,1.968-3.961,3.937-.845.84-1.685,1.685c-.11.11-.239.21-.207.394a1.464,1.464,0,0,1-.316-.46q2.88-2.859,5.76-5.718c.11-.109.233-.205.349-.308a.28.28,0,0,1,.06.47" transform="translate(-28.848 -215.087)" fill="#fe5972"/>
    <path id="Path_495" data-name="Path 495" d="M311.147,72.586c0,.16-.12.252-.221.353q-1.583,1.583-3.165,3.167a.764.764,0,0,1-.461.264.124.124,0,0,1-.029-.1c.33-.608.726-1.174,1.106-1.751.169-.257.234-.589.529-.758.164.042.225-.1.312-.184.406-.4.8-.8,1.208-1.2.115-.112.226-.268.429-.163a1.1,1.1,0,0,1,.292.377" transform="translate(-275.121 -64.624)" fill="#ec1c7f"/>
    <path id="Path_496" data-name="Path 496" d="M45.012,268.677a1.149,1.149,0,0,1-.337-.389.828.828,0,0,1,.259-.336q2.374-2.376,4.751-4.749c.142-.142.263-.338.515-.3a.431.431,0,0,1,.239.431,6.252,6.252,0,0,0-.781.7c-1.549,1.546-3.089,3.1-4.646,4.64" transform="translate(-40.001 -235.393)" fill="#fe427b"/>
    <path id="Path_497" data-name="Path 497" d="M48.408,260.458c-.181,0-.265.154-.372.26q-2.39,2.384-4.777,4.772a1.142,1.142,0,0,1-.354.3.543.543,0,0,1-.207-.25c.26-.273.516-.55.782-.817q2.2-2.2,4.4-4.393c.1-.1.161-.3.372-.187.142.06.216.154.157.314" transform="translate(-38.232 -232.897)" fill="#fe4679"/>
    <path id="Path_498" data-name="Path 498" d="M265.641,42.91a2.534,2.534,0,0,0-.244.192q-2.507,2.5-5.009,5.009a2.315,2.315,0,0,0-.189.245.16.16,0,0,1-.224-.115c-.118-.159-.015-.256.092-.362q2.51-2.506,5.018-5.016c.082-.082.157-.177.291-.175a.616.616,0,0,1,.265.221" transform="translate(-232.729 -38.222)" fill="#fe4779"/>
    <path id="Path_499" data-name="Path 499" d="M47.9,272.465c0-.165.127-.249.226-.349q2.374-2.376,4.749-4.75c.118-.118.223-.264.424-.232.183-.01.192.1.16.234-.272.26-.549.514-.816.78q-2.113,2.108-4.221,4.221a1.114,1.114,0,0,0-.3.355l-.222-.259" transform="translate(-42.884 -239.182)" fill="#fe3e7c"/>
    <path id="Path_500" data-name="Path 500" d="M246.576,32.454c-.179,0-.269.144-.377.252q-2.636,2.633-5.27,5.269c-.118.118-.267.219-.239.42a.28.28,0,0,1-.47-.06c0-.134.089-.211.172-.293q2.863-2.862,5.726-5.724a.96.96,0,0,1,.126-.091.741.741,0,0,1,.333.227" transform="translate(-215.087 -28.855)" fill="#fe5a72"/>
    <path id="Path_501" data-name="Path 501" d="M30.28,217.418c-.2.01-.283.173-.4.288q-2.887,2.88-5.769,5.764c-.238.238-.485.466-.728.7l-.145-.256c.153-.14.311-.273.458-.419q3.093-3.089,6.185-6.18c.116-.116.2-.279.4-.288a.264.264,0,0,1,0,.391" transform="translate(-20.808 -194.321)" fill="#fe6c6b"/>
    <path id="Path_502" data-name="Path 502" d="M76.461,308.169a1.166,1.166,0,0,1-.234.355q-1.643,1.637-3.282,3.277a1.554,1.554,0,0,1-.186.138,1.068,1.068,0,0,1-.381-.3c-.063-.194.1-.278.2-.381.441-.452.889-.9,1.338-1.341a1.337,1.337,0,0,0,.314-.434c.462-.381,1.008-.637,1.49-.989.251-.1.407-.415.741-.327" transform="translate(-64.794 -275.914)" fill="#ec1c7f"/>
    <path id="Path_503" data-name="Path 503" d="M68.454,321.041c.029.2-.111.3-.226.422-.549.578-1.162,1.094-1.665,1.717a3.091,3.091,0,0,1-.694-.572l1.958-1.177a.792.792,0,0,1,.626-.39" transform="translate(-58.978 -287.452)" fill="#f01c7d"/>
    <path id="Path_504" data-name="Path 504" d="M325.018,66.553c-.175,0-.271.133-.379.241-.41.409-.816.823-1.233,1.226-.074.071-.131.266-.3.11a.049.049,0,0,1-.018-.052c.006-.017.012-.026.018-.026a19.747,19.747,0,0,0,1.071-1.821,3.668,3.668,0,0,1,.264-.374,3.291,3.291,0,0,1,.576.7" transform="translate(-289.284 -58.967)" fill="#f01c7d"/>
    <path id="Path_505" data-name="Path 505" d="M212.067,229.9c-.063-.039-.1-.094-.046-.159.074-.09.158-.173.241-.256q8.537-8.538,17.081-17.071c.1-.1.162-.368.41-.2a1.407,1.407,0,0,1-.076.616l-16.995,16.995a1.4,1.4,0,0,1-.615.077" transform="translate(-189.815 -189.965)" fill="#8b1cbc"/>
    <path id="Path_506" data-name="Path 506" d="M218.553,235.547c-.011-.169.121-.252.22-.35q8.211-8.213,16.424-16.424c.1-.1.181-.231.35-.22a5.584,5.584,0,0,1-.158.956c-.183-.02-.283.111-.392.22q-7.635,7.633-15.268,15.268c-.109.109-.241.209-.218.393a2.881,2.881,0,0,1-.958.157" transform="translate(-195.686 -195.686)" fill="#881cbe"/>
    <path id="Path_507" data-name="Path 507" d="M260.261,269.491a7.78,7.78,0,0,1-1.64.707c-.2.017-.13-.112-.1-.2a1.08,1.08,0,0,1,.275-.326l10.88-10.88a1.106,1.106,0,0,1,.326-.276c.083-.035.21-.1.2.094a7.926,7.926,0,0,1-.706,1.642c-.123,0-.175.1-.246.174q-4.411,4.4-8.814,8.814c-.071.071-.175.123-.175.246" transform="translate(-231.443 -231.439)" fill="#771cc9"/>
    <path id="Path_508" data-name="Path 508" d="M259.525,248.079c-.188-.167-.249.049-.328.127-.8.785-1.587,1.579-2.379,2.371q-4.35,4.35-8.694,8.7c-.093.093-.342.153-.18.382a5.976,5.976,0,0,1-1.341.458c-.08-.09-.028-.171.024-.246a2.228,2.228,0,0,1,.265-.287q6.279-6.279,12.562-12.554c.139-.139.239-.4.528-.294a9.32,9.32,0,0,1-.458,1.339" transform="translate(-220.766 -220.902)" fill="#7c1cc6"/>
    <path id="Path_509" data-name="Path 509" d="M226.421,242.3c-.089-.021-.206-.034-.123-.167a1.41,1.41,0,0,1,.212-.228L241.9,226.507a1.489,1.489,0,0,1,.228-.213c.132-.085.147.029.168.12a2.15,2.15,0,0,1-.161.774c-.18-.009-.28.122-.389.231q-7.164,7.162-14.326,14.325c-.109.109-.24.209-.231.389a2.167,2.167,0,0,1-.771.162" transform="translate(-202.596 -202.592)" fill="#851cc0"/>
    <path id="Path_510" data-name="Path 510" d="M253.91,240.53c-.166,0-.245.137-.344.236q-6.4,6.4-12.8,12.8c-.1.1-.232.179-.235.344a2.222,2.222,0,0,1-.616.168c-.2.017-.129-.113-.1-.2a1.07,1.07,0,0,1,.275-.326q6.731-6.733,13.464-13.464a1.067,1.067,0,0,1,.326-.275c.082-.033.213-.1.2.1l-.169.616" transform="translate(-214.692 -214.692)" fill="#801cc4"/>
    <path id="Path_511" data-name="Path 511" d="M274.941,284.173c-.172-.216.078-.271.16-.354q2.652-2.674,5.321-5.332c1.132-1.131,2.26-2.266,3.4-3.389.083-.082.138-.333.353-.159a11.288,11.288,0,0,1-1.009,1.819c-.117,0-.183.091-.255.162q-2.937,2.913-5.849,5.85c-.114.115-.262.216-.3.394a12.163,12.163,0,0,1-1.821,1.009" transform="translate(-246.122 -246.121)" fill="#731ccc"/>
    <path id="Path_512" data-name="Path 512" d="M292.724,299.128c-.066-.206.09-.319.2-.432q2.879-2.889,5.768-5.768c.114-.114.228-.266.433-.206a18.861,18.861,0,0,1-4.217,4.859,14.452,14.452,0,0,1-2.186,1.546" transform="translate(-262.084 -262.085)" fill="#6e1ccf"/>
    <path id="Path_513" data-name="Path 513" d="M233.873,248.819c-.1-.017-.2-.045-.106-.171a1.985,1.985,0,0,1,.215-.227l14.44-14.439a1.963,1.963,0,0,1,.227-.215c.126-.091.154.006.171.106l-.022.149a3.031,3.031,0,0,1-.546.553q-6.835,6.843-13.678,13.678a3.075,3.075,0,0,1-.553.546l-.148.021" transform="translate(-209.277 -209.277)" fill="#821cc2"/>
    <path id="Path_514" data-name="Path 514" d="M236.506,251.288a1.453,1.453,0,0,1,.327-.433q7.01-7.006,14.016-14.016a1.444,1.444,0,0,1,.433-.327,1.214,1.214,0,0,1-.134.477c-.041-.066-.1-.091-.16-.039-.08.066-.153.141-.227.215q-6.8,6.8-13.6,13.607c-.093.093-.342.153-.181.382a1.141,1.141,0,0,1-.477.135" transform="translate(-211.762 -211.767)" fill="#821cc2"/>
    <path id="Path_515" data-name="Path 515" d="M19.451.557c.24.017.621-.117.687.055.094.243-.259.407-.436.583Q10.432,10.477,1.15,19.748c-.15.15-.29.447-.5.36-.16-.066-.033-.377-.057-.577a.7.7,0,0,1,0-.117,1.3,1.3,0,0,0,.437-.322q9.048-9.051,18.1-18.1a1.3,1.3,0,0,0,.322-.437" transform="translate(-0.505 -0.468)" fill="#fbc133"/>
    <path id="Path_516" data-name="Path 516" d="M90.538,104.164v-.391q0-.352,0-.7v-1.253q0-.274,0-.548,0-.352,0-.7,0-.274,0-.548v-.626q0-.235,0-.47v-.548q0-.274,0-.548t0-.548q0-.352,0-.7,0-.274.007-.548a1.666,1.666,0,0,0,.072-.626l.223-.861a9.928,9.928,0,0,1,.732-1.483,8.723,8.723,0,0,1,1.4-1.415,11.233,11.233,0,0,1,1.331-.714L95,90.7l.548-.092,1.018-.068h8.768l.861.008a1.028,1.028,0,0,0,.47.06l.548.092.47.144.626.243.224.115.4.223.4.274.394.319.48.481.482.628.373.626c.207.124.218.362.321.547a2.457,2.457,0,0,1,.211,1.042l.024.212.068.861v9.081q-.007.39-.015.78l-.135.864-.171.625-.526,1.1a6.8,6.8,0,0,1-1.9,1.939l-1.012.5-.783.234-.864.135-.7.014H96.8l-.861-.011c-.212.055-.4-.109-.6-.081a3.2,3.2,0,0,1-1.108-.212c-.2-.078-.438-.093-.56-.313a1.73,1.73,0,0,0-.546-.379L92.5,110.2l-.49-.481-.371-.47-.16-.234-.234-.392-.157-.314-.162-.391-.155-.47-.161-.783a1.029,1.029,0,0,0-.06-.47q0-.43-.008-.861v-.626q0-.274,0-.548" transform="translate(-81.066 -81.067)" fill="#fefefe"/>
    <path id="Path_517" data-name="Path 517" d="M289.255,113.093l-.292-1.04c.53-.434.983-.949,1.475-1.423a.893.893,0,0,1,.3-.239c.08-.028.188-.066.171.1v.078q-.774,1.08-1.547,2.161a.675.675,0,0,0-.107.367" transform="translate(-258.73 -98.82)" fill="#ec328d"/>
    <path id="Path_518" data-name="Path 518" d="M288.859,88.976c-.171-.156-.228.042-.3.114-.422.408-.834.826-1.249,1.242-.111.111-.213.236-.4.21l-.24-.549c1.157-1.145,2.31-2.292,3.474-3.43.086-.084.139-.326.355-.17v.079q-.7,1.083-1.4,2.165c-.076.117-.165.227-.247.34" transform="translate(-256.68 -77.308)" fill="#f0328b"/>
    <path id="Path_519" data-name="Path 519" d="M106.633,288.936l1.119.294-.1.021c-.234-.007-.367.174-.528.3-.648.487-1.361.884-1.977,1.416-.274.061-.448.3-.7.393-.085-.109-.021-.2.044-.28a20.385,20.385,0,0,1,2.038-2.1.31.31,0,0,1,.108-.043" transform="translate(-93.479 -258.707)" fill="#ed328c"/>
    <path id="Path_520" data-name="Path 520" d="M88.892,286.962q-.812.828-1.623,1.657a2.578,2.578,0,0,0-.567.762,10.96,10.96,0,0,1-1.487.94l-.626.39a1.334,1.334,0,0,1,.406-.6l3.349-3.378.549.231" transform="translate(-75.738 -256.732)" fill="#f0328a"/>
    <path id="Path_521" data-name="Path 521" d="M180.868,191.976h-.783c-.113-.234.1-.329.212-.445.933-.945,1.875-1.882,2.815-2.821a1.128,1.128,0,0,0,.357-.5.421.421,0,0,1,.194-.185,6.135,6.135,0,0,0,1.931-1.734.714.714,0,0,1,.252-.24,1.476,1.476,0,0,0,.565-.4q1.526-1.53,3.059-3.053c.124-.123.221-.347.472-.237v.548a4.978,4.978,0,0,1-.431.453q-4.177,4.178-8.354,8.355a3.875,3.875,0,0,1-.288.264" transform="translate(-161.215 -163.252)" fill="#d51c8d"/>
    <path id="Path_522" data-name="Path 522" d="M108.607,118q0-.391,0-.781a5.013,5.013,0,0,1,.431-.453q3.942-3.943,7.884-7.886c.092-.092.187-.181.288-.264h.781c.036.191-.119.278-.223.383q-4.386,4.393-8.779,8.779c-.1.1-.191.259-.383.222" transform="translate(-97.244 -97.252)" fill="#fe6f69"/>
    <path id="Path_523" data-name="Path 523" d="M187.845,196.917c.005-.165.138-.245.237-.344q4.244-4.248,8.492-8.492c.1-.1.178-.232.344-.236q0,.352,0,.7a4.966,4.966,0,0,1-.431.452q-3.825,3.826-7.65,7.652a3.88,3.88,0,0,1-.288.263h-.7" transform="translate(-168.192 -168.192)" fill="#d21c8f"/>
    <path id="Path_524" data-name="Path 524" d="M117.21,108.616c-.005.165-.138.245-.237.344q-4.009,4.013-8.022,8.022c-.1.1-.178.232-.344.236q0-.352,0-.7a4.941,4.941,0,0,1,.431-.452q3.59-3.591,7.18-7.182a3.821,3.821,0,0,1,.288-.263h.7" transform="translate(-97.244 -97.252)" fill="#fe7567"/>
    <path id="Path_525" data-name="Path 525" d="M194.58,202.947c0-.165.138-.244.237-.343q3.892-3.9,7.788-7.788c.1-.1.178-.232.343-.236v.706a1.953,1.953,0,0,1-.43.447c-2.353,2.372-4.739,4.712-7.074,7.1a.689.689,0,0,1-.158.113h-.706" transform="translate(-174.222 -174.222)" fill="#ce1c92"/>
    <path id="Path_526" data-name="Path 526" d="M208.583,214.726H207.8c-.109-.252.116-.349.239-.473q1.705-1.722,3.424-3.43c.949-.949,1.9-1.9,2.85-2.844.116-.115.211-.325.446-.211v.783c-.582.631-1.2,1.221-1.81,1.829q-2.036,2.045-4.08,4.083a3.876,3.876,0,0,1-.287.263" transform="translate(-186.034 -186.001)" fill="#c71c96"/>
    <path id="Path_527" data-name="Path 527" d="M208.99,202.031c-.165,0-.245.137-.343.236q-3.192,3.188-6.379,6.379c-.1.1-.232.178-.237.343h-.7a1.378,1.378,0,0,1,.323-.435q3.454-3.45,6.9-6.9a1.361,1.361,0,0,1,.435-.322v.7" transform="translate(-180.264 -180.264)" fill="#ca1c94"/>
    <path id="Path_528" data-name="Path 528" d="M215.531,221.705c0-.165.138-.244.236-.342q2.8-2.8,5.6-5.6c.1-.1.178-.231.343-.236q0,.392,0,.784a2.5,2.5,0,0,1-.485.5c-1.577,1.6-3.189,3.163-4.75,4.778a.675.675,0,0,1-.158.112h-.784" transform="translate(-192.981 -192.981)" fill="#c31c99"/>
    <path id="Path_529" data-name="Path 529" d="M108.608,115.415v-.781c.924-.972,1.886-1.906,2.835-2.853,1.059-1.058,2.1-2.133,3.185-3.166h.781c.036.192-.119.278-.223.383q-3.093,3.1-6.194,6.194c-.1.1-.191.26-.383.223" transform="translate(-97.245 -97.251)" fill="#fe8262"/>
    <path id="Path_530" data-name="Path 530" d="M108.607,115.415c.106-.1.217-.186.318-.287q3.1-3.1,6.2-6.2c.1-.1.192-.212.287-.318h.626c.036.191-.118.278-.223.383q-3.407,3.415-6.822,6.822c-.1.1-.191.259-.383.222q0-.313,0-.626" transform="translate(-97.244 -97.251)" fill="#fe7c64"/>
    <path id="Path_531" data-name="Path 531" d="M108.607,116.042a.333.333,0,0,0,.066-.041q3.661-3.659,7.32-7.32a.339.339,0,0,0,.041-.066h.472c-.005.165-.138.245-.237.343q-3.658,3.661-7.319,7.319c-.1.1-.178.231-.343.236q0-.236,0-.471" transform="translate(-97.244 -97.251)" fill="#fe7966"/>
    <path id="Path_532" data-name="Path 532" d="M223.027,228.418a1.373,1.373,0,0,1,.323-.434q2.32-2.315,4.635-4.635a1.359,1.359,0,0,1,.435-.322q0,.43,0,.86-2.33,2.2-4.529,4.529l-.86,0" transform="translate(-199.693 -199.693)" fill="#be1c9c"/>
    <path id="Path_533" data-name="Path 533" d="M108.608,118c.069-.058.143-.112.207-.176q4.5-4.5,9-9c.064-.064.118-.138.176-.207h.472c.113.233-.1.328-.21.444-.966.978-1.942,1.948-2.914,2.92a1.471,1.471,0,0,0-.34.422,1.383,1.383,0,0,1-.512.349,4.093,4.093,0,0,0-1.563,1.495.551.551,0,0,1-.217.22,1.265,1.265,0,0,0-.425.336c-1.077,1.075-2.15,2.154-3.232,3.225-.116.115-.211.325-.445.21q0-.118,0-.236" transform="translate(-97.245 -97.252)" fill="#fe6b6b"/>
    <path id="Path_534" data-name="Path 534" d="M120.161,229.52a1.713,1.713,0,0,1-.48-.467c-.045-.176.093-.26.189-.356q1.449-1.457,2.905-2.907a.582.582,0,0,1,.353-.228.812.812,0,0,1,.525.506c.022.2-.112.311-.23.429q-1.418,1.424-2.844,2.841c-.11.109-.209.285-.419.18" transform="translate(-107.151 -201.964)" fill="#fd3382"/>
    <path id="Path_535" data-name="Path 535" d="M241.15,136.726a1.591,1.591,0,0,1,.228.709c.078.2-.058.318-.175.436-.914.919-1.827,1.838-2.752,2.747-.149.146-.311.349-.563.145a1.138,1.138,0,0,1-.23-.636.256.256,0,0,1,.052-.1c1.029-1.064,2.083-2.1,3.134-3.142a.46.46,0,0,1,.306-.155" transform="translate(-212.793 -122.421)" fill="#f0328b"/>
    <path id="Path_536" data-name="Path 536" d="M113.373,108.615h.783c.036.191-.119.278-.223.382q-2.467,2.475-4.943,4.943c-.1.1-.191.259-.382.222v-.783a2.247,2.247,0,0,1,.458-.474c1.377-1.4,2.789-2.763,4.15-4.178a.683.683,0,0,1,.158-.113" transform="translate(-97.245 -97.251)" fill="#fe8b5d"/>
    <path id="Path_537" data-name="Path 537" d="M231.244,235.772a.846.846,0,0,1,.3-.485q1.873-1.871,3.744-3.744a.846.846,0,0,1,.486-.3,2.782,2.782,0,0,1-.16,1.018q-1.737,1.614-3.352,3.352a2.765,2.765,0,0,1-1.018.16" transform="translate(-207.05 -207.05)" fill="#bb1c9e"/>
    <path id="Path_538" data-name="Path 538" d="M174.817,238.6c.04.218-.118.33-.246.458q-1.465,1.466-2.93,2.933c-.107.108-.256.191-.265.371h-1.018c-.113-.235.1-.329.213-.446q1.208-1.227,2.433-2.437a1.14,1.14,0,0,0,.325-.478,5.054,5.054,0,0,1,1.488-.4" transform="translate(-152.506 -213.633)" fill="#db1c8a"/>
    <path id="Path_539" data-name="Path 539" d="M124.344,233.884c.118,0,.187-.077.261-.15l3-3a.408.408,0,0,0,.171-.293.931.931,0,0,1,.652.479c0,.163-.118.255-.216.355-1,1.011-2.017,2-3,3.019-.052.054-.1.124-.2.078a1.905,1.905,0,0,1-.674-.483" transform="translate(-111.335 -206.328)" fill="#f93284"/>
    <path id="Path_540" data-name="Path 540" d="M137.436,241.463a1.594,1.594,0,0,1-.709-.228,1.129,1.129,0,0,1,.348-.506c.987-.994,1.983-1.98,2.968-2.976a1.528,1.528,0,0,1,.778.312c.068.176-.072.264-.167.36-.967.984-1.957,1.944-2.917,2.935-.084.087-.166.172-.3.1" transform="translate(-122.422 -212.878)" fill="#f0328a"/>
    <path id="Path_541" data-name="Path 541" d="M244.6,147.274a2.8,2.8,0,0,1,.062,1.038,8.785,8.785,0,0,1-1.267,1.67c-.563.681-1.15,1.342-1.747,1.994a1.175,1.175,0,0,0-.2.374c-.045.111-.113.2-.21.031-.093-.485-.015-.977-.068-1.463.941-.757,1.732-1.671,2.6-2.508a2.325,2.325,0,0,0,.833-1.137" transform="translate(-215.941 -131.866)" fill="#e73290"/>
    <path id="Path_542" data-name="Path 542" d="M161.516,242.566c.2.209-.056.27-.136.351-.845.862-1.7,1.712-2.555,2.568-.106.107-.255.19-.264.369h-1.406c-.032-.166.107-.224.2-.3q1.7-1.365,3.308-2.828a1.274,1.274,0,0,1,.574-.215.292.292,0,0,1,.277.055" transform="translate(-140.709 -217.13)" fill="#e01c87"/>
    <path id="Path_543" data-name="Path 543" d="M134.723,235.355c-.008.164-.142.243-.24.341q-1.3,1.3-2.6,2.6c-.163.164-.318.336-.477.5a1.489,1.489,0,0,1-.621-.317q1.52-1.534,3.039-3.069c.118-.12.231-.245.347-.368.275-.061.426.1.548.31" transform="translate(-117.105 -210.442)" fill="#f43287"/>
    <path id="Path_544" data-name="Path 544" d="M108.608,114.163c.465-.454.936-.9,1.395-1.364q2.08-2.088,4.154-4.184h.472c0,.165-.138.244-.236.343q-2.718,2.722-5.44,5.44c-.1.1-.178.231-.343.236v-.471" transform="translate(-97.245 -97.251)" fill="#fe8760"/>
    <path id="Path_545" data-name="Path 545" d="M156.279,241.973c-.47.013-.708.407-1,.667-1,.891-2.046,1.733-3.069,2.6l-.551,0c-.112-.235.1-.328.213-.445.813-.826,1.629-1.648,2.459-2.456.174-.169.259-.423.5-.523.338.015.674.037,1.013.035.152,0,.317-.017.432.124" transform="translate(-135.763 -216.515)" fill="#e73290"/>
    <path id="Path_546" data-name="Path 546" d="M113.27,108.507a1.36,1.36,0,0,1-.323.435q-2.006,2-4.007,4.007a1.347,1.347,0,0,1-.436.322,1.764,1.764,0,0,1,.074-.781q1.935-1.976,3.911-3.911a1.757,1.757,0,0,1,.781-.073" transform="translate(-97.142 -97.143)" fill="#fd9059"/>
    <path id="Path_547" data-name="Path 547" d="M238.367,131.407q-1.552,1.538-3.105,3.075c-.111.109-.229.211-.344.316a.748.748,0,0,1-.368-.6,10.106,10.106,0,0,1,1.074-1.143,1.051,1.051,0,0,0,.285-.356,1.823,1.823,0,0,0,1.049-1c.38-.284.621-.735,1.092-.909a1.438,1.438,0,0,1,.317.622" transform="translate(-210.009 -117.102)" fill="#f43287"/>
    <path id="Path_548" data-name="Path 548" d="M218.137,112.038a1.509,1.509,0,0,1,.626.318c.038.268-.2.358-.336.516a3.614,3.614,0,0,1-.342.357c.094.044.3-.054.268.189a.19.19,0,0,1-.1.051,1.273,1.273,0,0,0-1.339,1.059c-.006.023-.033.038-.056.051-.074.068-.043-.22-.2-.033-.395.457-.842.869-1.27,1.3a.7.7,0,0,1-.517-.315.4.4,0,0,1,.133-.422c.995-1.005,1.99-2.009,3-3a.4.4,0,0,1,.137-.071" transform="translate(-192.368 -100.316)" fill="#fe427b"/>
    <path id="Path_549" data-name="Path 549" d="M120.2,221.572a17.3,17.3,0,0,0-1.4,1.359c-.694.688-1.371,1.393-2.056,2.09a1.4,1.4,0,0,1-.325-.436c-.077-.178.026-.3.139-.409q1.468-1.474,2.943-2.941c.1-.1.2-.206.371-.168.19.116.355.249.331.505" transform="translate(-104.216 -197.931)" fill="#fe397f"/>
    <path id="Path_550" data-name="Path 550" d="M147.439,240.907c.111.192-.077.253-.164.341-.871.88-1.749,1.753-2.623,2.631-.107.108-.256.19-.266.37l-.082,0c-.129-.065-.278.012-.406-.059a.582.582,0,0,1-.393-.077c.221-.034.289-.246.421-.377.995-.986,1.978-1.983,2.965-2.976a.42.42,0,0,1,.548.149" transform="translate(-128.491 -215.526)" fill="#eb328d"/>
    <path id="Path_551" data-name="Path 551" d="M242.022,161.341c.009-.471.4-.712.664-1,.927-1.021,1.785-2.1,2.679-3.148q0,.625,0,1.25c-.977,1.027-2,2.013-3,3.015-.1.1-.221.245-.4.093a.161.161,0,0,1,.052-.21" transform="translate(-216.639 -140.747)" fill="#e01c87"/>
    <path id="Path_552" data-name="Path 552" d="M239.525,176.5c-.179.008-.263.156-.37.263q-1.588,1.581-3.17,3.167c-.156.156-.3.328-.554.316a3.247,3.247,0,0,1,.514-1.259.96.96,0,0,0,.473-.324q1.294-1.3,2.591-2.588c.141-.14.264-.335.516-.279v.7" transform="translate(-210.799 -157.399)" fill="#d81c8b"/>
    <path id="Path_553" data-name="Path 553" d="M240.97,244.323a.859.859,0,0,1,.3-.485q1.284-1.28,2.564-2.564a.858.858,0,0,1,.485-.3,4.63,4.63,0,0,1-3.352,3.352" transform="translate(-215.759 -215.76)" fill="#b61ca1"/>
    <path id="Path_554" data-name="Path 554" d="M243.412,143.9a.872.872,0,0,1-.328.778c-.892.866-1.763,1.755-2.645,2.632-.1.1-.188.279-.38.13a.5.5,0,0,1-.161-.626c.166.094.273-.019.371-.118q1.465-1.458,2.925-2.921a.393.393,0,0,0,.139-.27.594.594,0,0,1,.078.395" transform="translate(-214.748 -128.489)" fill="#eb328d"/>
    <path id="Path_555" data-name="Path 555" d="M213.648,110.577a10.335,10.335,0,0,1-1.071,1.121c-.634.649-1.281,1.285-1.923,1.926-.119.119-.255.228-.227.425-.256.1-.411-.063-.572-.214-.078-.225.059-.377.194-.515.9-.918,1.815-1.824,2.726-2.732.133-.133.278-.241.483-.148a.75.75,0,0,1,.39.136" transform="translate(-187.88 -98.855)" fill="#fe4879"/>
    <path id="Path_556" data-name="Path 556" d="M113.223,109.31c0,.15-.114.227-.2.317q-1.694,1.7-3.39,3.39c-.09.09-.167.2-.317.2a2.388,2.388,0,0,1,.285-1.024q1.321-1.281,2.6-2.6a2.593,2.593,0,0,1,1.024-.285" transform="translate(-97.875 -97.874)" fill="#fd9456"/>
    <path id="Path_557" data-name="Path 557" d="M108.608,187.557q0-.314,0-.628a1.331,1.331,0,0,1,.271-.375q1.266-1.261,2.528-2.526c.018-.018.036-.038.055-.054.116-.1.22-.267.392-.191s.117.267.131.418a.833.833,0,0,1-.042.286,6.687,6.687,0,0,1-.852.9q-.955.972-1.929,1.926c-.148.144-.286.356-.555.241" transform="translate(-97.245 -164.538)" fill="#fe5e70"/>
    <path id="Path_558" data-name="Path 558" d="M187.768,108.616h.7a.284.284,0,0,1-.095.317c-.98.988-1.931,2.006-2.969,2.937a.8.8,0,0,1-.284.044c-.149-.017-.349.045-.412-.135-.056-.161.086-.29.2-.4.842-.852,1.693-1.7,2.538-2.544a1.24,1.24,0,0,1,.321-.218" transform="translate(-165.377 -97.252)" fill="#fe5e70"/>
    <path id="Path_559" data-name="Path 559" d="M243.884,169.845a1.366,1.366,0,0,0-.435.323c-.91.914-1.82,1.828-2.74,2.732-.08.079-.145.342-.352.127a.625.625,0,0,1,.169-.756c.181,0,.265-.151.372-.257.874-.869,1.743-1.743,2.617-2.612.107-.106.19-.255.369-.263v.706" transform="translate(-215.158 -151.443)" fill="#dc1c89"/>
    <path id="Path_560" data-name="Path 560" d="M111.819,217.044a1.635,1.635,0,0,1-.317-.7c1.04-1.067,2.1-2.11,3.155-3.163a.36.36,0,0,1,.3-.15.627.627,0,0,1,.324.572,7.7,7.7,0,0,0-1.142,1.062c-.775.791-1.6,1.53-2.321,2.376" transform="translate(-99.836 -190.743)" fill="#fe437a"/>
    <path id="Path_561" data-name="Path 561" d="M108.518,200.091a2.815,2.815,0,0,1-.06-1.029,1.32,1.32,0,0,1,.275-.376q1.247-1.242,2.49-2.487a1.7,1.7,0,0,1,.172-.159c.254-.192.32-.173.482.14a.474.474,0,0,1-.006.281,3.525,3.525,0,0,1-.6.656q-1.163,1.176-2.339,2.339a1.016,1.016,0,0,0-.337.553.189.189,0,0,1-.073.081" transform="translate(-97.095 -175.418)" fill="#fe5574"/>
    <path id="Path_562" data-name="Path 562" d="M199.74,108.46a2.805,2.805,0,0,1,1.029.059l-.033.044a1.359,1.359,0,0,0-.646.41q-1.206,1.222-2.428,2.429a2.5,2.5,0,0,0-.367.45.564.564,0,0,1-.44-.052c-.23-.1-.221-.259-.094-.438A2.088,2.088,0,0,1,197,111.1q1.17-1.171,2.34-2.342a1.323,1.323,0,0,1,.4-.3" transform="translate(-176.096 -97.097)" fill="#fe5474"/>
    <path id="Path_563" data-name="Path 563" d="M169.156,112.372c0-.184.144-.269.251-.376q1.5-1.507,3.005-3.011c.107-.107.256-.191.264-.37h.7c.033.207-.138.3-.25.409q-1.261,1.273-2.532,2.536a2.174,2.174,0,0,0-.392.481,1.792,1.792,0,0,1-1.049.331" transform="translate(-151.458 -97.251)" fill="#fe666d"/>
    <path id="Path_564" data-name="Path 564" d="M108.608,173.505v-.626a1.151,1.151,0,0,1,.227-.312c1.022-1.016,2.037-2.038,3.06-3.053.129-.128.256-.33.485-.142a2.556,2.556,0,0,1-.268.878,2.138,2.138,0,0,0-.479.392q-1.306,1.309-2.617,2.613c-.113.112-.2.283-.409.249" transform="translate(-97.245 -151.584)" fill="#fe666d"/>
    <path id="Path_565" data-name="Path 565" d="M114.5,221.93c-.029-.182.093-.285.2-.4q1.421-1.419,2.841-2.841c.112-.112.218-.228.4-.2s.275.119.211.314c-.148.01-.221.129-.311.219q-1.44,1.436-2.876,2.875c-.109.11-.241.206-.245.384a.794.794,0,0,1-.221-.353" transform="translate(-102.513 -195.629)" fill="#fe3f7c"/>
    <path id="Path_566" data-name="Path 566" d="M109.343,208.586a1.467,1.467,0,0,1-.162-.706l.017-.018a1.5,1.5,0,0,1,.252-.345c.9-.892,1.785-1.788,2.683-2.677.153-.151.313-.358.552-.107a.408.408,0,0,1,.068.385c-.9.877-1.785,1.778-2.679,2.665a6.745,6.745,0,0,0-.732.8" transform="translate(-97.758 -183.208)" fill="#fe4d77"/>
    <path id="Path_567" data-name="Path 567" d="M209.1,109.342a.456.456,0,0,0-.375.169q-1.39,1.4-2.786,2.788a.692.692,0,0,0-.217.4c-.2.125-.34.011-.485-.1-.11-.183-.019-.327.1-.451q1.392-1.413,2.8-2.806a1.658,1.658,0,0,1,.23-.144l.019-.017a1.463,1.463,0,0,1,.706.163" transform="translate(-183.725 -97.757)" fill="#fe4d77"/>
    <path id="Path_568" data-name="Path 568" d="M110.729,213a.433.433,0,0,1,.141-.346q1.5-1.495,3-3a.322.322,0,0,1,.237-.115c.183.078.27.194.157.391-.922.82-1.746,1.741-2.641,2.589-.259.245-.445.579-.812.7a.258.258,0,0,1-.08-.225" transform="translate(-99.143 -187.619)" fill="#fe4979"/>
    <path id="Path_569" data-name="Path 569" d="M108.608,181.445q1.525-1.508,3.051-3.015c.116-.114.2-.281.408-.265,0,.353.151.731-.169,1.032-.035-.12.059-.3-.073-.357-.157-.063-.232.13-.327.223q-1.45,1.422-2.89,2.852v-.47" transform="translate(-97.245 -159.523)" fill="#fe626f"/>
    <path id="Path_570" data-name="Path 570" d="M178.915,112c-.018-.2.15-.293.264-.409q1.466-1.489,2.938-2.972h.47q-1.352,1.368-2.7,2.738c-.115.117-.268.211-.292.422.106.081.242.022.358.053a1.045,1.045,0,0,1-1.034.17" transform="translate(-160.195 -97.252)" fill="#fe626f"/>
    <path id="Path_571" data-name="Path 571" d="M111.95,191.621c-.135-.323-.279-.133-.41,0-.763.759-1.522,1.522-2.285,2.282-.211.21-.431.41-.646.615q0-.312,0-.625a.882.882,0,0,0,.513-.325q1.223-1.226,2.449-2.448c.1-.1.213-.187.32-.28.14.252.265.5.06.783" transform="translate(-97.245 -170.872)" fill="#fe5972"/>
    <path id="Path_572" data-name="Path 572" d="M195.185,108.616c-.924.935-1.852,1.867-2.77,2.809-.111.114-.381.224-.125.455-.253.2-.481.091-.7-.059.858-.957,1.806-1.824,2.7-2.744a1.455,1.455,0,0,0,.349-.461h.548" transform="translate(-171.541 -97.252)" fill="#fe5972"/>
    <path id="Path_573" data-name="Path 573" d="M114.634,112.033a.828.828,0,0,1-.239.39q-.989.984-1.973,1.973a.833.833,0,0,1-.39.24,4.446,4.446,0,0,1,2.6-2.6" transform="translate(-100.311 -100.312)" fill="#fd9954"/>
    <path id="Path_574" data-name="Path 574" d="M112.369,164.6c-.218-.039-.33.12-.457.247q-1.493,1.492-2.986,2.985c-.1.1-.212.191-.318.286q0-.156,0-.312c.18-.008.263-.157.37-.264q1.659-1.652,3.314-3.308c.115-.114.205-.282.412-.253a.577.577,0,0,1-.334.618" transform="translate(-97.245 -146.819)" fill="#fe6a6c"/>
    <path id="Path_575" data-name="Path 575" d="M252.624,119.765a2.024,2.024,0,0,1,.6.61,1.5,1.5,0,0,1-.735.671,1.461,1.461,0,0,1-.58-.587c.132-.338.264-.677.711-.694" transform="translate(-225.557 -107.235)" fill="#fd3482"/>
    <path id="Path_576" data-name="Path 576" d="M256.9,126.267l.75-.667a1.5,1.5,0,0,1,.369.543l-1.034.958a1.064,1.064,0,0,1-.084-.834" transform="translate(-229.977 -112.459)" fill="#f93285"/>
    <path id="Path_577" data-name="Path 577" d="M246.546,115.568c-.339.117-.478.433-.68.685-.181.081-.295-.014-.392-.15-.084-.111-.227-.03-.348-.112.136-.4.559-.563.749-.913.2.2.523.224.672.49" transform="translate(-219.479 -103.038)" fill="#fe3a7f"/>
    <path id="Path_578" data-name="Path 578" d="M147.265,273.871c.137.009.284-.053.406.059a.617.617,0,0,1-.406-.059" transform="translate(-131.858 -245.209)" fill="#e73290"/>
    <path id="Path_579" data-name="Path 579" d="M140.458,142.458l.334-.618a5.127,5.127,0,0,1,2.239-2.039l1.022-.375,1.034-.17.291-.007.7.059.468.081c.133-.086.223,0,.315.079a1.193,1.193,0,0,0,.47.159l.547.247.472.29c.256.019.4.228.584.358.208.217.426.423.633.641.119.193.3.349.329.594l.34.618.242.626.161.626a8.467,8.467,0,0,1,.072,1.645l-.015.233-.169.757-.567,1.268a6.214,6.214,0,0,1-2.321,2.111,12.54,12.54,0,0,1-1.5.473l-.291.022a7.844,7.844,0,0,1-1.567-.078l-.548-.15-.783-.318-.548-.31-.624-.494-.458-.468-.351-.464-.211-.314a2,2,0,0,0-.307-.548.61.61,0,0,0-.157-.391.85.85,0,0,0-.1-.394c-.049-.155-.29-.256-.13-.469l-.026-.311q-.03-.392-.06-.783l.008-.293c.143-.33,0-.707.169-1.032a3.416,3.416,0,0,1,.3-.864" transform="translate(-125.334 -124.681)" fill="#fefefe"/>
    <path id="Path_580" data-name="Path 580" d="M234.569,124.877l.392.15a2.112,2.112,0,0,1,.535.592,2.369,2.369,0,0,1,.084.834,1.491,1.491,0,0,1-1.1,1.012c-.2.177-.392.059-.589,0a1.456,1.456,0,0,1-.8-.7c-.07-.224-.233-.439-.078-.689.281-.95.607-1.2,1.557-1.2" transform="translate(-208.575 -111.812)" fill="#fefefe"/>
    <path id="Path_581" data-name="Path 581" d="M232.273,148.916l.615.071c.06.038.051.085.008.126-.451.429-.851.912-1.344,1.3l-.382-.541c.1-.439.751-1,1.1-.954" transform="translate(-206.985 -133.334)" fill="#f93285"/>
    <path id="Path_582" data-name="Path 582" d="M221.445,134.656l.149.687a5.718,5.718,0,0,1-1.02.943l-.546-.415a7.428,7.428,0,0,1,1.289-1.365c.162-.161.082.1.128.15" transform="translate(-197.008 -120.387)" fill="#fe3c7e"/>
    <path id="Path_583" data-name="Path 583" d="M112.581,201.29l.131.469c-.189-.139-.28.026-.383.13q-1.361,1.357-2.72,2.716c-.1.1-.212.186-.318.279a.555.555,0,0,1,.144-.5c1.01-1,2.012-2.006,3.018-3.009a.766.766,0,0,1,.129-.086" transform="translate(-97.85 -180.23)" fill="#fe5176"/>
    <path id="Path_584" data-name="Path 584" d="M202.819,112.607l-.315-.079c-.1-.168.054-.232.136-.314.915-.92,1.837-1.833,2.748-2.758a.585.585,0,0,1,.554-.2c-.922,1.016-1.931,1.946-2.887,2.928-.116.119-.264.22-.235.42" transform="translate(-181.286 -97.819)" fill="#fe5176"/>
    <path id="Path_585" data-name="Path 585" d="M174.688,170.588a1.68,1.68,0,0,1,.392.627c.046.1-.03.142-.083.194-1.455,1.419-2.875,2.874-4.322,4.3-.119.118-.222.314-.452.207a1.319,1.319,0,0,1-.571-.381q2.391-2.389,4.781-4.779a.46.46,0,0,1,.256-.169" transform="translate(-151.901 -152.741)" fill="#f93284"/>
    <path id="Path_586" data-name="Path 586" d="M183.665,187.024a.878.878,0,0,1-.524-.078c-.067-.166.04-.28.137-.378,1.3-1.313,2.6-2.638,3.933-3.918a.4.4,0,0,1,.164-.1,2.114,2.114,0,0,1,.14,1.027.653.653,0,0,1-.2.321q-1.465,1.428-2.893,2.892a.688.688,0,0,1-.755.236" transform="translate(-163.961 -163.448)" fill="#f0328a"/>
    <path id="Path_587" data-name="Path 587" d="M180.2,177.2c-.045.214-.252.286-.384.419q-1.744,1.765-3.506,3.512a1.345,1.345,0,0,0-.344.467,1.822,1.822,0,0,1-.859-.321c.181,0,.266-.151.373-.257q1.988-1.983,3.973-3.969c.165-.164.34-.317.511-.475a1.253,1.253,0,0,1,.235.624" transform="translate(-156.791 -158.104)" fill="#f53287"/>
    <path id="Path_588" data-name="Path 588" d="M171.868,167.055c-.176.19-.345.385-.528.568q-2.049,2.054-4.1,4.1c-.117.117-.214.269-.407.277a.582.582,0,0,1-.286-.253c-.11-.152.013-.248.1-.334q2.33-2.346,4.675-4.677a.412.412,0,0,1,.168-.1,1.214,1.214,0,0,1,.382.413" transform="translate(-149.081 -149.207)" fill="#fd3282"/>
    <path id="Path_589" data-name="Path 589" d="M157.511,163.044a2.537,2.537,0,0,1-.219-.631c.73-.794,1.517-1.531,2.273-2.3.519-.528,1.045-1.049,1.571-1.57.146-.145.289-.313.535-.2a.83.83,0,0,1,.476.152c-.035.165-.172.255-.28.364q-1.924,1.929-3.853,3.853c-.143.143-.265.329-.5.336" transform="translate(-140.835 -141.742)" fill="#fe447a"/>
    <path id="Path_590" data-name="Path 590" d="M159.389,164.64q1.853-1.835,3.708-3.668a8.081,8.081,0,0,1,.927-.885.98.98,0,0,1,.477.231.617.617,0,0,1-.227.309q-2.126,2.129-4.256,4.253c-.112.111-.2.287-.411.233a.9.9,0,0,1-.217-.474" transform="translate(-142.713 -143.338)" fill="#fe3f7c"/>
    <path id="Path_591" data-name="Path 591" d="M161.466,167.092c.117-.1.242-.194.351-.3q2.1-2.093,4.192-4.188c.109-.109.234-.2.351-.3a1.068,1.068,0,0,1,.462.32c-1.4,1.34-2.735,2.75-4.128,4.1a8.718,8.718,0,0,1-.9.858,1.07,1.07,0,0,1-.324-.482" transform="translate(-144.573 -145.316)" fill="#fe397e"/>
    <path id="Path_592" data-name="Path 592" d="M164.565,170.311c.1-.306.378-.455.583-.662,1.366-1.375,2.748-2.734,4.125-4.1.092-.091.175-.2.324-.2l.155.135a1.133,1.133,0,0,1-.3.353q-2.189,2.193-4.379,4.384c-.106.107-.257.189-.261.37a.569.569,0,0,1-.246-.284" transform="translate(-147.348 -148.054)" fill="#fe3680"/>
    <path id="Path_593" data-name="Path 593" d="M188.329,195.815a.79.79,0,0,0,.7-.311c1.038-1.059,2.1-2.095,3.154-3.139a2.3,2.3,0,0,1-.207,1.1c-.743.721-1.458,1.471-2.207,2.186a2.425,2.425,0,0,1-1.437.165" transform="translate(-168.625 -172.24)" fill="#ec328d"/>
    <path id="Path_594" data-name="Path 594" d="M157.037,161.1a1.959,1.959,0,0,1,.006-.627,1.139,1.139,0,0,1,.272-.374q1.24-1.236,2.476-2.477a1.877,1.877,0,0,1,.371-.278,1.143,1.143,0,0,1,.724-.011c-.03.153-.155.238-.255.337q-1.589,1.594-3.183,3.181c-.113.113-.2.285-.411.25" transform="translate(-140.587 -140.822)" fill="#fe4c77"/>
    <path id="Path_595" data-name="Path 595" d="M157.231,161.568q1.734-1.718,3.47-3.434c.12-.118.252-.223.379-.334a.962.962,0,0,1,.536.088c-.214-.028-.327.126-.455.254q-1.777,1.777-3.556,3.553c-.107.107-.19.255-.368.267q0-.2-.006-.393" transform="translate(-140.781 -141.29)" fill="#fe4979"/>
    <path id="Path_596" data-name="Path 596" d="M160.405,157.893c-1.005,1.078-2.057,2.109-3.119,3.13a1.642,1.642,0,0,1,.155-.7c.732-.778,1.5-1.522,2.259-2.271a1.356,1.356,0,0,1,.7-.157" transform="translate(-140.83 -141.372)" fill="#fe5176"/>
    <path id="Path_597" data-name="Path 597" d="M225.243,143.891a3.533,3.533,0,0,1,1.02-.943,1.972,1.972,0,0,0,.7.627c-.283-.029-.395.211-.553.365a2.986,2.986,0,0,0-.549.589l-.62-.638" transform="translate(-201.677 -127.992)" fill="#fd3482"/>
    <path id="Path_598" data-name="Path 598" d="M161.028,159.406c0,.013,0,.03,0,.038a15.173,15.173,0,0,1-2.255,2.233,3.317,3.317,0,0,1,2.259-2.271" transform="translate(-142.158 -142.728)" fill="#fe5575"/>
    <path id="Path_599" data-name="Path 599" d="M202.06,205.036a.3.3,0,0,1,.092-.208q.937-.936,1.874-1.874a.294.294,0,0,1,.241-.1,3.248,3.248,0,0,1-2.207,2.186" transform="translate(-180.92 -181.626)" fill="#e8338f"/>
  </g>
</svg>
