<svg xmlns="http://www.w3.org/2000/svg" xmlns:xlink="http://www.w3.org/1999/xlink" width="52.441" height="33.699" viewBox="0 0 52.441 33.699">
  <defs>
    <clipPath id="clip-path">
      <rect id="Rectangle_42" data-name="Rectangle 42" width="52.441" height="33.699"/>
    </clipPath>
  </defs>
  <g id="Group_30" data-name="Group 30" clip-path="url(#clip-path)">
    <path id="Path_166" data-name="Path 166" d="M343.051,0a14.878,14.878,0,0,0-1.35,1.459A10.507,10.507,0,0,0,340.7,2.98c-.029.053-.061.1-.1.171A7.254,7.254,0,0,1,338.625,1.9c.1-.077.178-.146.263-.21A8.778,8.778,0,0,1,342.4.129c.178-.037.353-.086.53-.129Z" transform="translate(-317.699)"/>
    <path id="Path_167" data-name="Path 167" d="M489.119,185.034c-.037.084-.055.134-.081.18a3.946,3.946,0,0,1-1.282,1.39,2.792,2.792,0,0,1-1.569.466c-2.861,0-5.722-.013-8.583,0a4.144,4.144,0,0,1-3.174-1.422,3.656,3.656,0,0,1-.684-1.042c-.035-.081-.063-.165-.1-.264.1-.046.191-.09.283-.13a14.261,14.261,0,0,0,3.488-2.1,8.721,8.721,0,0,0,2.847-4.181c.082-.267.147-.539.224-.822h16.327a.313.313,0,0,1-.023.089,5.586,5.586,0,0,1-1.164,1.4,1.952,1.952,0,0,1-.963.475,2.569,2.569,0,0,1-.368.019H483.025a2.451,2.451,0,0,0-.246,0,.862.862,0,0,0-.219.048.266.266,0,0,0-.188.223.262.262,0,0,0,.153.269,1.113,1.113,0,0,0,.289.094,1.153,1.153,0,0,0,.225,0h11.184a.717.717,0,0,1-.036.116,4.718,4.718,0,0,1-1.09,1.376,2.046,2.046,0,0,1-1.075.518,2.746,2.746,0,0,1-.327.015q-5.051,0-10.1,0a1.259,1.259,0,0,0-.38.061.258.258,0,0,0-.2.259.269.269,0,0,0,.195.241,1.386,1.386,0,0,0,.276.068,1.148,1.148,0,0,0,.185,0h10.057c-.03.064-.043.1-.064.135a4.7,4.7,0,0,1-1.2,1.338,2.665,2.665,0,0,1-1.642.545c-2.84-.01-5.681,0-8.521,0a2.624,2.624,0,0,0-.347.028.43.43,0,0,0-.153.056.217.217,0,0,0-.029.4,1.185,1.185,0,0,0,.356.139.766.766,0,0,0,.2,0h8.783" transform="translate(-444.375 -166.169)"/>
    <path id="Path_168" data-name="Path 168" d="M2.613,179.739H13.79a1.1,1.1,0,0,0,.225,0,.947.947,0,0,0,.306-.1.257.257,0,0,0-.036-.481.721.721,0,0,0-.218-.051,2.285,2.285,0,0,0-.246,0q-5.626,0-11.252,0a2.039,2.039,0,0,1-1.341-.475,5.583,5.583,0,0,1-1.208-1.44A.336.336,0,0,1,0,177.116H16.333a1.674,1.674,0,0,1,.052.162,8.455,8.455,0,0,0,2.524,4.4,13.251,13.251,0,0,0,3.6,2.368c.216.1.433.2.667.3-.079.176-.14.344-.227.5A4.256,4.256,0,0,1,20.069,187a2.883,2.883,0,0,1-.61.064q-4.466.006-8.932,0a2.645,2.645,0,0,1-1.482-.479,3.97,3.97,0,0,1-1.263-1.38.876.876,0,0,1-.051-.111c0-.011,0-.026,0-.061h.236q4.281,0,8.562,0a1.412,1.412,0,0,0,.362-.051.444.444,0,0,0,.186-.121.206.206,0,0,0-.042-.346,1.075,1.075,0,0,0-.391-.1c-.211-.016-.424,0-.636,0-2.656,0-5.311-.01-7.967.006a2.8,2.8,0,0,1-1.9-.7,4.766,4.766,0,0,1-1.066-1.31c.1,0,.181-.007.259-.007q4.938,0,9.876,0a1.526,1.526,0,0,0,.324-.036.449.449,0,0,0,.18-.093.222.222,0,0,0-.006-.381.9.9,0,0,0-.3-.117.948.948,0,0,0-.225-.005q-5.02,0-10.041,0a2,2,0,0,1-1.226-.393,4.485,4.485,0,0,1-1.279-1.531.755.755,0,0,1-.033-.105" transform="translate(0 -166.171)"/>
    <path id="Path_169" data-name="Path 169" d="M221.107,372.48l2.152,10.618a31.234,31.234,0,0,1-3.195.024l-.2-1.234c-.082-.005-.156-.014-.229-.014-1.006,0-2.012,0-3.019,0a.273.273,0,0,0-.3.205c-.12.313-.262.617-.391.926-.037.089-.081.147-.191.147-1.061,0-2.122,0-3.183,0a.509.509,0,0,1-.084-.014c-.027-.094.035-.158.069-.228q.829-1.685,1.662-3.368l3.379-6.846c.021-.043.043-.085.063-.129a.137.137,0,0,1,.147-.088c.02,0,.041,0,.062,0h3.1c.041,0,.081,0,.154.007m-2.2,3.3-1.62,3.859a13.029,13.029,0,0,0,2.232-.012q-.277-1.888-.556-3.784c0-.016-.024-.028-.056-.063" transform="translate(-199.333 -349.454)"/>
    <path id="Path_170" data-name="Path 170" d="M559.743,372.432l2.152,10.619a31.409,31.409,0,0,1-3.221.012l-.159-1.224c-.082-.005-.156-.014-.229-.014-1.006,0-2.012,0-3.018,0a.272.272,0,0,0-.3.2c-.117.307-.261.6-.383.907a.224.224,0,0,1-.24.168c-1.027,0-2.053,0-3.08,0a1.557,1.557,0,0,1-.176-.022c.034-.079.058-.141.087-.2q2.529-5.137,5.058-10.273c.055-.112.108-.183.256-.182,1.034.007,2.067,0,3.1,0,.04,0,.081.005.154.01m-1.611,7.154c0-.352-.506-3.71-.575-3.846-.15.241-1.593,3.719-1.6,3.861a16.727,16.727,0,0,0,2.177-.015" transform="translate(-517.033 -349.403)"/>
    <path id="Path_171" data-name="Path 171" d="M411.7,382.608c.186-1.328.393-2.656.59-3.986s.394-2.65.595-4c-.1,0-.178-.009-.256-.009h-2.793l.514-2.668h9.342c-.158.9-.336,1.769-.509,2.663h-2.905l-1.17,8a33.478,33.478,0,0,1-3.407,0" transform="translate(-384.508 -348.954)"/>
    <path id="Path_172" data-name="Path 172" d="M122.71,372.664h3.459q-1.056,5.331-2.115,10.621c-.168.055-3.272.061-3.474.006l2.13-10.627" transform="translate(-113.128 -349.634)"/>
    <path id="Path_173" data-name="Path 173" d="M293.83,142.677a8.485,8.485,0,0,1-2.445-5.521c.16-.047,3.311-.061,3.624-.018a14.336,14.336,0,0,0,.306,2.113,13.01,13.01,0,0,0,.686,2.066,9.323,9.323,0,0,0-2.172,1.359" transform="translate(-273.378 -128.639)"/>
    <path id="Path_174" data-name="Path 174" d="M293.961,37.863a8.987,8.987,0,0,0,2.162,1.361,11.861,11.861,0,0,0-.988,4.128c-.176.045-3.384.052-3.624.007a8.242,8.242,0,0,1,2.45-5.5" transform="translate(-273.496 -35.523)"/>
    <path id="Path_175" data-name="Path 175" d="M484.2,137.407h3.612a8.381,8.381,0,0,1-2.444,5.546,9.937,9.937,0,0,0-2.125-1.352c.021-.067.034-.124.057-.178a11.026,11.026,0,0,0,.754-2.612c.048-.317.076-.638.11-.957.015-.142.023-.285.036-.447" transform="translate(-453.38 -128.916)"/>
    <path id="Path_176" data-name="Path 176" d="M485.3,37.992a8.162,8.162,0,0,1,2.427,5.473c-.166.055-3.373.066-3.613.015a12.121,12.121,0,0,0-.287-2.1,12.257,12.257,0,0,0-.672-2.011c.374-.214.748-.409,1.1-.636s.681-.479,1.044-.737" transform="translate(-453.298 -35.644)"/>
    <path id="Path_177" data-name="Path 177" d="M361.752,141.348a9.8,9.8,0,0,1-.9-3.93h3.61v3.4a9.324,9.324,0,0,0-2.714.529" transform="translate(-338.556 -128.926)"/>
    <path id="Path_178" data-name="Path 178" d="M364.519,67.78h-3.575a9.1,9.1,0,0,1,.867-3.907c.444.114.887.248,1.339.339s.9.136,1.369.2Z" transform="translate(-338.61 -59.926)"/>
    <path id="Path_179" data-name="Path 179" d="M429.738,67.377V63.986a9.152,9.152,0,0,0,2.7-.539,9.633,9.633,0,0,1,.9,3.93Z" transform="translate(-403.181 -59.526)"/>
    <path id="Path_180" data-name="Path 180" d="M432.529,141.308c-.464-.118-.9-.249-1.35-.337s-.89-.13-1.351-.194V137.4h3.59a9.48,9.48,0,0,1-.889,3.905" transform="translate(-403.265 -128.912)"/>
    <path id="Path_181" data-name="Path 181" d="M443.382,2.809a7.312,7.312,0,0,1-1.969,1.243,11.409,11.409,0,0,0-1.08-1.657A12.909,12.909,0,0,0,439,.957a8.44,8.44,0,0,1,4.385,1.852" transform="translate(-411.868 -0.898)"/>
    <path id="Path_182" data-name="Path 182" d="M338.636,215.219a7.925,7.925,0,0,1,1.974-1.229,11.568,11.568,0,0,0,2.375,3.042,7.255,7.255,0,0,1-2.3-.582,8.546,8.546,0,0,1-2.048-1.232" transform="translate(-317.709 -200.766)"/>
    <path id="Path_183" data-name="Path 183" d="M441.741,214.065a7.423,7.423,0,0,1,1.948,1.2,8.5,8.5,0,0,1-4.353,1.862c.241-.243.475-.467.694-.7s.43-.478.629-.731.393-.526.574-.8.335-.545.509-.831" transform="translate(-412.186 -200.836)"/>
    <path id="Path_184" data-name="Path 184" d="M382.814,6.273V9.706a6.386,6.386,0,0,1-2.4-.466,9.7,9.7,0,0,1,2.4-2.966" transform="translate(-356.901 -5.885)"/>
    <path id="Path_185" data-name="Path 185" d="M429.8,9.742V6.28a9.531,9.531,0,0,1,2.386,2.978,6.985,6.985,0,0,1-2.386.484" transform="translate(-403.235 -5.892)"/>
    <path id="Path_186" data-name="Path 186" d="M380.553,203.373a7.328,7.328,0,0,1,2.392-.426v3.374a8.377,8.377,0,0,1-2.392-2.948" transform="translate(-357.035 -190.405)"/>
    <path id="Path_187" data-name="Path 187" d="M429.718,206.4v-3.391a7.747,7.747,0,0,1,2.391.429,9.894,9.894,0,0,1-2.35,2.984l-.041-.022" transform="translate(-403.162 -190.466)"/>
  </g>
</svg>
