<svg id="Group_310" data-name="Group 310" xmlns="http://www.w3.org/2000/svg" xmlns:xlink="http://www.w3.org/1999/xlink" width="30.617" height="30.617" viewBox="0 0 30.617 30.617">
  <defs>
    <clipPath id="clip-path">
      <rect id="Rectangle_107" data-name="Rectangle 107" width="30.617" height="30.617" fill="none"/>
    </clipPath>
  </defs>
  <g id="Group_78" data-name="Group 78" clip-path="url(#clip-path)">
    <path id="Path_384" data-name="Path 384" d="M206.041,190.837v.9c-.028.031-.042.073-.071.1a4.718,4.718,0,0,0-.349.326L192,205.784a4.659,4.659,0,0,0-.325.35c-.031.028-.073.041-.1.07h-.9c-.049-.127.039-.206.106-.289a2.708,2.708,0,0,1,.208-.215q7.251-7.251,14.5-14.5c.155-.155.283-.368.549-.363" transform="translate(-175.424 -175.587)" fill="#941cb7"/>
    <path id="Path_385" data-name="Path 385" d="M197.426,182.148a2.489,2.489,0,0,0-.505.414q-7.276,7.279-14.554,14.555a1.127,1.127,0,0,0-.308.4h-.12a.612.612,0,0,0-.419,0h-.179c-.086-.1-.033-.186.029-.268a2.209,2.209,0,0,1,.205-.217q7.682-7.683,15.369-15.362c.125-.125.219-.368.481-.238Z" transform="translate(-166.81 -166.899)" fill="#9a1cb3"/>
    <path id="Path_386" data-name="Path 386" d="M202.81,217.151c0-.126.107-.186.182-.262q6.948-6.95,13.9-13.9c.075-.075.136-.177.262-.182a.052.052,0,0,1,.037.051c0,.045-.007.093.032.129v.239c-.128.1-.023.262-.113.369a.882.882,0,0,0-.323.258q-6.465,6.463-12.929,12.928a.865.865,0,0,0-.257.323c-.127.1-.312-.023-.43.113h-.179c-.036-.039-.084-.028-.129-.032a.052.052,0,0,1-.051-.036" transform="translate(-186.603 -186.603)" fill="#8f1cba"/>
    <path id="Path_387" data-name="Path 387" d="M191.538,175.641c-.138-.02-.219.068-.3.154L175.608,191.42c-.086.086-.175.167-.154.3h-.12a.077.077,0,0,0-.12,0h-.3a.479.479,0,0,0,0-.053c-.051-.127.039-.206.1-.289a2.4,2.4,0,0,1,.207-.215q7.882-7.882,15.765-15.761c.133-.133.237-.334.48-.3l.069.058v.179a.136.136,0,0,0,0,.179Z" transform="translate(-160.921 -161.108)" fill="#9f1cb0"/>
    <path id="Path_388" data-name="Path 388" d="M.479,14.76a2.143,2.143,0,0,1,.058-.713.858.858,0,0,0,.323-.256Q7.327,7.327,13.79.861a.86.86,0,0,0,.257-.323A2.146,2.146,0,0,1,14.76.48a.169.169,0,0,1,.125-.015c.076.125-.019.2-.08.289A1.857,1.857,0,0,1,14.6.971Q7.785,7.785.968,14.6c-.136.136-.239.362-.5.289a.17.17,0,0,1,.014-.126" transform="translate(-0.422 -0.423)" fill="#fbc430"/>
    <path id="Path_389" data-name="Path 389" d="M14.234,2.94a3.462,3.462,0,0,1,.948-.182c.141-.046.2.007.149.145a.665.665,0,0,1-.187.23L3.017,15.259a1.339,1.339,0,0,1-.177.16c-.059.041-.128.082-.19.027a.148.148,0,0,1-.009-.192,3.317,3.317,0,0,1,.178-.9c.138.008.215-.091.3-.175Q8.588,8.71,14.059,3.238c.083-.083.183-.16.175-.3" transform="translate(-2.402 -2.523)" fill="#facc2a"/>
    <path id="Path_390" data-name="Path 390" d="M1.564,14.057c.007.126.017.248.178.1.044-.04.085-.084.127-.126L14.039,1.862a1.039,1.039,0,0,0,.162-.175c.063-.1-.027-.111-.1-.126a2.681,2.681,0,0,1,.844-.12c.048.03.076.072.035.121-.057.069-.121.132-.184.2Q8.279,8.28,1.753,14.8c-.077.077-.123.282-.313.153a3.049,3.049,0,0,1,.124-.893" transform="translate(-1.325 -1.326)" fill="#fac92d"/>
    <path id="Path_391" data-name="Path 391" d="M15.653.18l.242,0c.1.058.269-.06.313.093S16.1.5,16.016.59Q12.488,4.123,8.957,7.652L.734,15.875a.777.777,0,0,1-.064.063c-.128.1-.221.327-.4.267s-.025-.288-.1-.427q0-.061,0-.121a3.267,3.267,0,0,0,.376-.34L15.313.556a3.267,3.267,0,0,0,.34-.376" transform="translate(-0.162 -0.166)" fill="#fbb939"/>
    <path id="Path_392" data-name="Path 392" d="M.773,17.389l-.013-.3c.111-.128.235-.243.354-.363Q9,8.835,16.89.946c.063-.063.133-.12.2-.184l.3.013c.139.029.191.1.1.23a1.788,1.788,0,0,1-.243.263L10.193,8.324a1.336,1.336,0,0,0-.355.474c-.378.357-.739.731-1.1,1.105a1.227,1.227,0,0,0-.474.351L1.238,17.279c-.07.07-.14.142-.213.209-.151.136-.239.115-.252-.1" transform="translate(-0.699 -0.701)" fill="#fcb23e"/>
    <path id="Path_393" data-name="Path 393" d="M16.632,5.219c.074.014.152.033.083.13a1.419,1.419,0,0,1-.164.173L5.521,16.553a1.408,1.408,0,0,1-.174.164c-.1.069-.116-.009-.13-.084a3.412,3.412,0,0,1,.237-.9,1.358,1.358,0,0,0,.368-.3l9.612-9.612a1.471,1.471,0,0,0,.3-.366,3.326,3.326,0,0,1,.9-.238" transform="translate(-4.8 -4.802)" fill="#fad127"/>
    <path id="Path_394" data-name="Path 394" d="M18.464,8.2c.079.179-.084.243-.17.329q-1.769,1.78-3.547,3.552-3.106,3.106-6.214,6.209c-.092.091-.156.272-.35.188A4.492,4.492,0,0,1,8.544,17.4a.95.95,0,0,0,.321-.26Q13,13.012,17.129,8.879a.979.979,0,0,0,.261-.321,4.543,4.543,0,0,1,1.074-.36" transform="translate(-7.529 -7.543)" fill="#fad524"/>
    <path id="Path_395" data-name="Path 395" d="M15.491.014c.078.13-.045.178-.107.24Q7.821,7.822.254,15.384c-.063.063-.11.185-.241.107a4.7,4.7,0,0,1,.043-1.154l.011.133c.116.123.025.291.112.472L14.933.19c-.155-.112-.343,0-.462-.122L14.338.057A4.674,4.674,0,0,1,15.491.014" transform="translate(0 0)" fill="#fbbd36"/>
    <path id="Path_396" data-name="Path 396" d="M188.06,171.281a1.081,1.081,0,0,0-.332.248q-7.98,7.982-15.962,15.962a1.032,1.032,0,0,0-.263.357l-.121-.022c-.211,0-.236-.1-.128-.259a2.056,2.056,0,0,1,.262-.284l6.895-6.894a1.6,1.6,0,0,0,.335-.415,1.913,1.913,0,0,1,.457-.374,8.052,8.052,0,0,0,1.013-1.117,1.871,1.871,0,0,0,.488-.387q3.408-3.41,6.817-6.818c.077-.077.151-.159.235-.229.19-.158.234-.14.3.109l.006.125" transform="translate(-157.512 -157.285)" fill="#a11cae"/>
    <path id="Path_397" data-name="Path 397" d="M16.463.161c0,.127-.1.19-.175.265Q8.347,8.369.4,16.311c-.076.076-.138.176-.265.175a2.583,2.583,0,0,1-.046-.774c.006.008.013.015.019.023.079.109-.048.314.082.348.151.039.232-.156.333-.257Q8.169,8.19,15.806.55l.085-.085c.252-.253.252-.253-.081-.349a1.953,1.953,0,0,1,.653.044" transform="translate(-0.077 -0.1)" fill="#fbb63b"/>
    <path id="Path_398" data-name="Path 398" d="M21.545,12.707c.129.143-.036.19-.1.25-.543.553-1.094,1.1-1.642,1.648q-3.407,3.407-6.817,6.81c-.071.071-.117.261-.292.137a5.39,5.39,0,0,1,.481-1.131,1.154,1.154,0,0,0,.339-.286q3.306-3.3,6.608-6.608a1.238,1.238,0,0,0,.288-.338,5.392,5.392,0,0,1,1.13-.482" transform="translate(-11.683 -11.692)" fill="#fad921"/>
    <path id="Path_399" data-name="Path 399" d="M25.955,18.733c.123.165-.064.207-.128.271q-2.43,2.445-4.87,4.878c-.661.661-1.321,1.324-1.986,1.981-.061.06-.106.222-.251.1a9.026,9.026,0,0,1,1.013-1.8.784.784,0,0,0,.3-.237q1.943-1.94,3.883-3.883a.78.78,0,0,0,.237-.3,9.169,9.169,0,0,1,1.8-1.012" transform="translate(-17.224 -17.236)" fill="#f9de1d"/>
    <path id="Path_400" data-name="Path 400" d="M.862,122.091c.056.042.058.233.19.067a1.862,1.862,0,0,1,.147-.148l7.174-7.174c.126-.126.24-.271.441-.278a.122.122,0,0,1,.007.138c-.206.321-.326.685-.524,1.01a1.607,1.607,0,0,0-.443.347q-3.219,3.222-6.44,6.441a1.787,1.787,0,0,1-.263.243c-.132.087-.2.028-.231-.107a2.345,2.345,0,0,1-.058-.538" transform="translate(-0.788 -105.403)" fill="#fcae42"/>
    <path id="Path_401" data-name="Path 401" d="M145.332,3.2l.538.114c.082.163-.058.235-.141.32-.368.378-.745.749-1.118,1.122q-2.6,2.6-5.2,5.2a1.013,1.013,0,0,1-.343.283,2.618,2.618,0,0,1-.681.052c-.069-.036-.087-.091-.018-.134a3.476,3.476,0,0,0,.608-.569q2.916-2.908,5.825-5.821c.183-.183.365-.365.53-.565" transform="translate(-127.272 -2.94)" fill="#fda14c"/>
    <path id="Path_402" data-name="Path 402" d="M123.846,298.018a1.336,1.336,0,0,1-.48-.176c-.049-.193.1-.289.207-.4.875-.882,1.758-1.756,2.633-2.638,1.057-1.065,2.138-2.108,3.173-3.194a.222.222,0,0,1,.076-.046,1.2,1.2,0,0,1,.554,0c.13.066.092.158.032.247a1.715,1.715,0,0,1-.222.241c-1.965,1.972-3.944,3.931-5.9,5.912a.242.242,0,0,1-.073.051" transform="translate(-113.499 -268.239)" fill="#c01c9b"/>
    <path id="Path_403" data-name="Path 403" d="M298.505,149.507l.12.595a1.377,1.377,0,0,0-.4.307q-3.042,3.045-6.086,6.087a1.607,1.607,0,0,1-.263.243c-.086.054-.18.155-.28.014a.979.979,0,0,1-.005-.5,3.026,3.026,0,0,1,.438-.442q3.043-3.051,6.1-6.094c.1-.1.178-.28.381-.211" transform="translate(-268.263 -137.546)" fill="#ae1ca6"/>
    <path id="Path_404" data-name="Path 404" d="M150.315,298.652l-.592-.118a.736.736,0,0,1,.292-.466q3.13-3.141,6.269-6.273a.616.616,0,0,1,.237-.177.884.884,0,0,1,.45.006c.125.076.075.167.015.251a2.141,2.141,0,0,1-.245.26q-3.037,3.038-6.075,6.074a1.875,1.875,0,0,0-.35.441" transform="translate(-137.759 -268.291)" fill="#ae1ca6"/>
    <path id="Path_405" data-name="Path 405" d="M1.648,135.642c.061.059.111.158.211.046.053-.059.113-.113.169-.169q3.306-3.306,6.612-6.611c.1-.1.175-.226.342-.205.1.243-.037.444-.116.655a5.453,5.453,0,0,0-.462.422q-3.1,3.1-6.2,6.2a1.814,1.814,0,0,1-.262.243c-.13.087-.2.038-.227-.1l-.064-.48" transform="translate(-1.516 -118.416)" fill="#fca846"/>
    <path id="Path_406" data-name="Path 406" d="M129.482,297.989c.006-.15.13-.218.219-.306q2.889-2.893,5.779-5.784c.088-.089.213-.156.221-.305a.621.621,0,0,1,.527-.062c.153.066.11.166.041.264a2.086,2.086,0,0,1-.245.261l-5.489,5.49a8.161,8.161,0,0,0-.573.607l-.478-.164" transform="translate(-119.135 -268.21)" fill="#bc1c9d"/>
    <path id="Path_407" data-name="Path 407" d="M140.236,2.4c.021.168-.111.246-.207.342q-3.167,3.169-6.336,6.337c-.136.136-.245.309-.453.353a.344.344,0,0,1-.382.112c-.124-.083-.06-.171,0-.253a2.244,2.244,0,0,1,.246-.26q3.247-3.248,6.495-6.5a2.482,2.482,0,0,1,.22-.2,1.383,1.383,0,0,1,.419.065" transform="translate(-122.175 -2.149)" fill="#fca747"/>
    <path id="Path_408" data-name="Path 408" d="M156.946,297.693c-.068-.2.1-.284.2-.389q3.141-3.147,6.285-6.29c.088-.088.214-.156.211-.309.156-.226.4-.12.6-.155.1.033.079.1.047.168a1.279,1.279,0,0,1-.275.351q-3.264,3.266-6.528,6.531a1.416,1.416,0,0,1-.182.154l-.362-.061" transform="translate(-144.389 -267.332)" fill="#aa1ca9"/>
    <path id="Path_409" data-name="Path 409" d="M113.764,8.862a.7.7,0,0,1,.268-.416q3.623-3.623,7.243-7.249c.081-.082.312-.16.085-.334A2.337,2.337,0,0,1,121.9.92c.109.052.073.125.025.195a1.94,1.94,0,0,1-.244.262q-3.274,3.275-6.549,6.549a1.389,1.389,0,0,0-.326.422,3.555,3.555,0,0,1-1.04.514" transform="translate(-104.673 -0.789)" fill="#fcae42"/>
    <path id="Path_410" data-name="Path 410" d="M103.734,297.372a1.926,1.926,0,0,1-.477-.248c.035-.147.159-.226.255-.322q2.406-2.41,4.817-4.815a2.642,2.642,0,0,1,.422-.418,1.205,1.205,0,0,1,.554,0c.13.067.091.159.031.247a1.7,1.7,0,0,1-.222.24q-2.539,2.54-5.08,5.079a.709.709,0,0,1-.3.237" transform="translate(-95.006 -268.239)" fill="#cf1c91"/>
    <path id="Path_411" data-name="Path 411" d="M298.487,144.632c-.145.017-.212.141-.3.229q-3.127,3.122-6.252,6.246c-.089.088-.156.213-.305.221a.53.53,0,0,1-.062-.471,2.014,2.014,0,0,1,.432-.446q2.993-3,6-6c.1-.1.179-.283.383-.2l.108.419" transform="translate(-268.244 -132.671)" fill="#b21ca4"/>
    <path id="Path_412" data-name="Path 412" d="M292.351,166.574c-.091-.259-.193-.117-.3-.01l-3.651,3.652-3.461,3.462a.715.715,0,0,1-.391.256,2.085,2.085,0,0,1,.361-.87,1.633,1.633,0,0,0,.388-.323l6.474-6.473a1.56,1.56,0,0,1,.289-.257c.114-.068.207-.073.237.087l.054.477" transform="translate(-261.81 -152.703)" fill="#a41cac"/>
    <path id="Path_413" data-name="Path 413" d="M215.476,20.923a1.159,1.159,0,0,1,.455.245.915.915,0,0,1-.265.354q-2.4,2.4-4.8,4.8a.741.741,0,0,1-.28.217,1.057,1.057,0,0,1-.5-.006c-.132-.08-.055-.172-.008-.254a1.373,1.373,0,0,1,.238-.267q2.43-2.43,4.86-4.859c.09-.09.165-.2.3-.235" transform="translate(-193.228 -19.251)" fill="#fe6f69"/>
    <path id="Path_414" data-name="Path 414" d="M295.232,76.109a1.97,1.97,0,0,1,.354.49c.079.144-.032.225-.112.305q-2.033,2.041-4.074,4.073c-.1.1-.21.232-.384.116a.308.308,0,0,1-.048-.17.513.513,0,0,1,.09-.309c.359-.51.727-1.013,1.073-1.532a.406.406,0,0,1,.128-.123,1.325,1.325,0,0,0,.453-.328q1.258-1.263,2.521-2.522" transform="translate(-267.716 -70.027)" fill="#e71c82"/>
    <path id="Path_415" data-name="Path 415" d="M298.223,135.061l.12.418c-.207.171-.4.361-.585.551l-5.649,5.649a1.976,1.976,0,0,1-.239.225c-.083.059-.172.118-.254,0a.8.8,0,0,1-.008-.453,3.245,3.245,0,0,1,.439-.442q2.866-2.873,5.741-5.738c.113-.113.2-.326.435-.206" transform="translate(-268.279 -124.235)" fill="#b81ca0"/>
    <path id="Path_416" data-name="Path 416" d="M135.444,298.185c-.02-.168.113-.245.208-.341q2.954-2.957,5.909-5.913c.088-.089.213-.156.221-.305a.519.519,0,0,1,.472-.06c.152.07.1.17.033.266a2.16,2.16,0,0,1-.245.26l-5.629,5.628c-.19.19-.38.378-.551.585l-.419-.12" transform="translate(-124.618 -268.241)" fill="#b81ca0"/>
    <path id="Path_417" data-name="Path 417" d="M298.188,130.257c-.168-.021-.245.112-.341.208q-2.957,2.954-5.913,5.909c-.089.088-.156.213-.305.221a.53.53,0,0,1-.062-.471,1.805,1.805,0,0,1,.411-.425q2.8-2.812,5.611-5.615a1.876,1.876,0,0,1,.24-.224c.09-.063.181-.1.244.036l.117.361" transform="translate(-268.244 -119.431)" fill="#bc1c9d"/>
    <path id="Path_418" data-name="Path 418" d="M58.837,282.708a2.252,2.252,0,0,1-.468-.424c1.01-1.03,2.038-2.041,3.056-3.064.337-.338.676-.674,1.009-1.017.232.034.353.22.5.366.048.143-.052.225-.134.307q-1.854,1.86-3.715,3.714c-.067.066-.13.16-.252.117" transform="translate(-53.705 -255.972)" fill="#f93284"/>
    <path id="Path_419" data-name="Path 419" d="M282.276,58.44a2.014,2.014,0,0,1,.427.461c.043.135-.065.2-.138.272q-1.817,1.823-3.64,3.64a.458.458,0,0,1-.355.19.886.886,0,0,1-.375-.5q2.01-2,4.007-4.01a.243.243,0,0,1,.073-.051" transform="translate(-255.965 -53.77)" fill="#f93284"/>
    <path id="Path_420" data-name="Path 420" d="M58.335,273.985c0,.115-.091.172-.159.24q-1.831,1.833-3.663,3.664c-.069.069-.13.155-.244.153a1.631,1.631,0,0,1-.356-.36c.038-.294.283-.456.466-.624.624-.574,1.2-1.191,1.808-1.783.5-.487.986-.986,1.481-1.477.09-.089.167-.2.315-.206.154.1.345.162.352.392" transform="translate(-49.605 -251.73)" fill="#fd3382"/>
    <path id="Path_421" data-name="Path 421" d="M277.974,54.274c0,.115-.087.173-.156.242q-1.829,1.831-3.66,3.66c-.069.068-.125.159-.24.159-.229,0-.279-.21-.4-.339-.007-.138.1-.213.179-.3q1.8-1.807,3.611-3.61c.081-.08.148-.2.292-.175a1.279,1.279,0,0,1,.371.359" transform="translate(-251.663 -49.605)" fill="#fd3282"/>
    <path id="Path_422" data-name="Path 422" d="M290.732,163.371a.932.932,0,0,0,.38-.279q3.136-3.137,6.275-6.271c.086-.085.149-.268.334-.148l.06.362c-2.26,2.182-4.448,4.435-6.68,6.645a2.549,2.549,0,0,1-.355.318c-.059.04-.122.084-.168-.019.03-.208-.073-.45.153-.608" transform="translate(-267.359 -144.117)" fill="#aa1ca9"/>
    <path id="Path_423" data-name="Path 423" d="M297.142,103.228a.863.863,0,0,1,.179.355c.036.147-.083.213-.162.292q-2.588,2.594-5.184,5.181c-.1.1-.193.294-.384.111a.978.978,0,0,1-.008-.5,2.443,2.443,0,0,1,.416-.422q2.39-2.4,4.789-4.788c.1-.1.168-.258.354-.226" transform="translate(-268.255 -94.975)" fill="#d01c91"/>
    <path id="Path_424" data-name="Path 424" d="M124.477,291.626c-.008.149-.132.217-.221.306q-2.765,2.77-5.535,5.536a1.073,1.073,0,0,0-.285.378,1.093,1.093,0,0,1-.438-.171c.026-.2.182-.3.306-.426q2.633-2.638,5.273-5.271a1.939,1.939,0,0,1,.425-.412.526.526,0,0,1,.474.061" transform="translate(-108.57 -268.242)" fill="#c51c98"/>
    <path id="Path_425" data-name="Path 425" d="M3.575,149.786l-.091-.412c2.214-2.2,4.416-4.415,6.629-6.618.095-.094.187-.258.367-.121a.539.539,0,0,1,.017.354.771.771,0,0,1-.22.278q-3.158,3.159-6.319,6.315c-.1.1-.178.282-.383.2" transform="translate(-3.206 -131.188)" fill="#fda14c"/>
    <path id="Path_426" data-name="Path 426" d="M151.607,291.634c-.079.088-.155.181-.238.264l-5.672,5.674a7.127,7.127,0,0,0-.843.92c-.14-.037-.3-.012-.421-.109-.022-.183.134-.256.233-.356q2.987-3,5.983-5.981c.16-.16.268-.375.487-.475.163-.02.328-.063.471.063" transform="translate(-132.889 -268.25)" fill="#b21ca4"/>
    <path id="Path_427" data-name="Path 427" d="M148.188,11.484c.079-.089.155-.181.239-.265q3.147-3.149,6.294-6.3c.089-.089.213-.156.224-.3l.3.064c.132.064.1.154.036.244a1.9,1.9,0,0,1-.224.239q-2.984,2.985-5.971,5.967a1.938,1.938,0,0,1-.425.412.527.527,0,0,1-.474-.06" transform="translate(-136.346 -4.249)" fill="#fd9d4f"/>
    <path id="Path_428" data-name="Path 428" d="M4.589,154.943c.148-.011.215-.136.3-.224q3.15-3.145,6.3-6.293c.084-.084.176-.159.265-.239a.53.53,0,0,1,.062.471,2,2,0,0,1-.432.446q-2.971,2.98-5.949,5.953a1.885,1.885,0,0,1-.239.224c-.09.063-.181.1-.244-.036a.746.746,0,0,1-.064-.3" transform="translate(-4.22 -136.345)" fill="#fd9d4f"/>
    <path id="Path_429" data-name="Path 429" d="M103.73,291.594c0,.1-.072.159-.135.222q-2.595,2.6-5.191,5.189a1.01,1.01,0,0,1-.118.088,1.224,1.224,0,0,1-.432-.234q2.456-2.462,4.92-4.917a1.78,1.78,0,0,1,.427-.411.628.628,0,0,1,.529.062" transform="translate(-90.034 -268.21)" fill="#d41c8e"/>
    <path id="Path_430" data-name="Path 430" d="M174.35,284.192a.846.846,0,0,1-.274.382l-7.028,7.028q-.095.095-.187.192c-.115.122-.035.18.075.229l-.534-.058c-.088-.1-.023-.185.038-.264a2.7,2.7,0,0,1,.227-.237q2.911-2.911,5.822-5.823a13.49,13.49,0,0,0,1.068-1.122c.263-.112.478-.34.793-.326" transform="translate(-153.066 -261.482)" fill="#a41cac"/>
    <path id="Path_431" data-name="Path 431" d="M147.617,291.592a1.111,1.111,0,0,1-.288.376q-3.055,3.054-6.109,6.109c-.084.084-.16.176-.24.265a.713.713,0,0,1-.3-.07c-.02-.168.112-.245.207-.341q3.014-3.017,6.03-6.034c.088-.089.213-.156.22-.305a.362.362,0,0,1,.478,0" transform="translate(-129.437 -268.208)" fill="#b51ca2"/>
    <path id="Path_432" data-name="Path 432" d="M7.046,166.756a.994.994,0,0,1-.111-.36.7.7,0,0,1,.185-.267q3.084-3.082,6.169-6.163c.094-.094.187-.259.367-.12a.541.541,0,0,1,.016.354.851.851,0,0,1-.241.3q-3.013,3.015-6.03,6.027c-.1.1-.172.254-.355.232" transform="translate(-6.381 -147.022)" fill="#fd9555"/>
    <path id="Path_433" data-name="Path 433" d="M166.337,6.935a.7.7,0,0,1,.306.095c.087.19-.078.271-.174.368q-1.432,1.443-2.873,2.877-1.564,1.564-3.129,3.128a1.03,1.03,0,0,1-.319.266.558.558,0,0,1-.354-.008c-.118-.087-.053-.174,0-.256a1.594,1.594,0,0,1,.184-.2l6.024-6.024a.842.842,0,0,1,.33-.249" transform="translate(-146.964 -6.381)" fill="#fd9555"/>
    <path id="Path_434" data-name="Path 434" d="M236.6,29.034a1.244,1.244,0,0,1,.4.251c-.033.148-.157.227-.253.324q-1.984,1.989-3.974,3.973a2.687,2.687,0,0,1-.422.419,1.184,1.184,0,0,1-.552,0c-.137-.074-.064-.169-.017-.251a1.321,1.321,0,0,1,.237-.268q2.112-2.113,4.228-4.224c.1-.1.173-.257.359-.222" transform="translate(-213.197 -26.709)" fill="#fe5e70"/>
    <path id="Path_435" data-name="Path 435" d="M84.891,296.538a1.8,1.8,0,0,1-.474-.3q2.068-2.08,4.15-4.146c.174-.173.284-.412.522-.521a1.279,1.279,0,0,1,.554.007c.128.071.083.161.025.25a1.2,1.2,0,0,1-.16.177c-1.48,1.488-2.974,2.96-4.446,4.456-.046.046-.082.121-.17.08" transform="translate(-77.671 -268.245)" fill="#e01c87"/>
    <path id="Path_436" data-name="Path 436" d="M29.216,237.155a1.446,1.446,0,0,1-.25-.4c-.039-.088.034-.125.081-.171,1.511-1.487,3-3,4.506-4.488.091-.09.162-.313.372-.156a1.238,1.238,0,0,1,.013.552.753.753,0,0,1-.234.3q-2.027,2.029-4.057,4.056a.837.837,0,0,1-.432.3" transform="translate(-26.641 -213.357)" fill="#fe5e70"/>
    <path id="Path_437" data-name="Path 437" d="M109.227,297.373c.078-.09.15-.184.234-.268q2.585-2.588,5.171-5.174c.088-.089.213-.156.221-.305a.519.519,0,0,1,.472-.06c.152.071.1.171.032.266a2.2,2.2,0,0,1-.245.26c-1.8,1.812-3.623,3.605-5.414,5.429a.159.159,0,0,1-.05.031.978.978,0,0,1-.42-.179" transform="translate(-100.499 -268.24)" fill="#cb1c94"/>
    <path id="Path_438" data-name="Path 438" d="M291.081,86.728c.139.02.216-.077.3-.161l4.065-4.065c.076-.076.171-.141.172-.267.156.126.207.322.32.476a.54.54,0,0,1-.157.214q-2.159,2.158-4.318,4.317a.809.809,0,0,1-.158.135c-.085.049-.168.07-.226-.04-.023-.2-.162-.406,0-.609" transform="translate(-267.749 -75.664)" fill="#e11c86"/>
    <path id="Path_439" data-name="Path 439" d="M126.458,9c-.022-.167.107-.247.2-.343q3.383-3.386,6.766-6.772c.073-.073.23-.12.148-.282a1.412,1.412,0,0,1,.417.059c-.011.148-.136.215-.224.3q-3.275,3.28-6.553,6.558c-.088.088-.213.156-.219.306a.447.447,0,0,1-.538.172" transform="translate(-116.35 -1.467)" fill="#fcaa45"/>
    <path id="Path_440" data-name="Path 440" d="M169.25,288.595a3.078,3.078,0,0,1-.461.544q-3.255,3.251-6.506,6.506c-.1.1-.228.173-.208.341l-.419-.061c.017-.145.14-.212.229-.3q3.151-3.156,6.307-6.308a3,3,0,0,0,.46-.543.546.546,0,0,1,.6-.178" transform="translate(-148.738 -265.503)" fill="#a71caa"/>
    <path id="Path_441" data-name="Path 441" d="M10.136,181.653a2.392,2.392,0,0,1-.224-.6,1.324,1.324,0,0,0,.4-.3q2.77-2.773,5.543-5.544a1.814,1.814,0,0,1,.261-.244c.085-.056.174-.151.283-.034a.67.67,0,0,1,.011.4c-.094.184-.281.276-.42.416q-2.759,2.77-5.528,5.529c-.12.12-.212.261-.327.384" transform="translate(-9.12 -160.893)" fill="#fe8b5d"/>
    <path id="Path_442" data-name="Path 442" d="M180.891,9.9a1.766,1.766,0,0,1,.475.173c.023.183-.133.256-.232.355q-2.749,2.757-5.507,5.506a2.7,2.7,0,0,1-.458.464.689.689,0,0,1-.4-.006c-.123-.081-.065-.171-.006-.254a2,2,0,0,1,.225-.239q2.8-2.8,5.6-5.6a1.326,1.326,0,0,0,.3-.4" transform="translate(-160.736 -9.108)" fill="#fe8b5d"/>
    <path id="Path_443" data-name="Path 443" d="M289.213,168.653l6.8-6.783a.635.635,0,0,1,.349-.213q.032.238.064.476c-.063-.1-.143-.092-.221-.026s-.146.135-.216.206q-3.3,3.3-6.6,6.6c-.088.088-.156.214-.307.216a.369.369,0,0,1,.13-.478" transform="translate(-265.943 -148.739)" fill="#a71caa"/>
    <path id="Path_444" data-name="Path 444" d="M298.113,125.841c-.165-.115-.232.04-.315.122q-1.975,1.969-3.945,3.942-.949.949-1.9,1.9c-.082.082-.146.2-.284.2a.442.442,0,0,1-.06-.418,2.05,2.05,0,0,1,.413-.423q2.759-2.768,5.527-5.526c.108-.108.19-.3.41-.216a1.37,1.37,0,0,1,.153.422" transform="translate(-268.285 -115.377)" fill="#bf1c9b"/>
    <path id="Path_445" data-name="Path 445" d="M90.353,296.477q2.291-2.3,4.581-4.6c.088-.089.213-.156.22-.3a.723.723,0,0,1,.58-.063c.13.046.1.127.042.209a1.833,1.833,0,0,1-.223.24q-2.2,2.205-4.413,4.406c-.125.124-.186.338-.411.347a1.049,1.049,0,0,1-.376-.231" transform="translate(-83.133 -268.184)" fill="#da1c8a"/>
    <path id="Path_446" data-name="Path 446" d="M230.228,26.48c-.083.07-.172.134-.249.21q-2.175,2.172-4.348,4.346a1.063,1.063,0,0,0-.266.354.519.519,0,0,1-.473.06c-.164-.079-.1-.194-.039-.3a1.245,1.245,0,0,1,.234-.269q2.205-2.206,4.413-4.41c.094-.094.167-.233.335-.217.122.09.3.089.392.226" transform="translate(-206.826 -24.156)" fill="#fe656e"/>
    <path id="Path_447" data-name="Path 447" d="M297.96,120.1c-.149,0-.221.124-.31.213q-2.838,2.835-5.675,5.67c-.088.088-.156.213-.3.22a.441.441,0,0,1-.06-.416c.073-.161.231-.243.349-.361,1.916-1.931,3.855-3.839,5.761-5.78a.149.149,0,0,1,.051-.031,1.428,1.428,0,0,1,.189.485" transform="translate(-268.286 -110.054)" fill="#c31c99"/>
    <path id="Path_448" data-name="Path 448" d="M181.111,18.33a1.109,1.109,0,0,1,.287-.375q2.817-2.815,5.632-5.632c.084-.084.159-.176.239-.264a.587.587,0,0,1,.3.116c.087.162-.052.236-.135.321-.367.377-.744.745-1.115,1.119-1.56,1.573-3.147,3.119-4.689,4.71a.28.28,0,0,1-.1.064.439.439,0,0,1-.42-.059" transform="translate(-166.638 -11.095)" fill="#fe8660"/>
    <path id="Path_449" data-name="Path 449" d="M9.5,137.442c-.151,0-.219.128-.307.217q-3.161,3.157-6.32,6.316c-.1.1-.173.226-.334.229l-.082-.481c.059.068.112.152.209.042.053-.059.112-.113.169-.169q3.208-3.208,6.416-6.414c.089-.088.156-.213.306-.22a.312.312,0,0,1-.055.478" transform="translate(-2.259 -126.019)" fill="#fca549"/>
    <path id="Path_450" data-name="Path 450" d="M12.694,187.4a.37.37,0,0,1,.151-.307q2.89-2.887,5.777-5.777a.979.979,0,0,1,.291-.2.377.377,0,0,1,.061.362.689.689,0,0,1-.213.282q-2.819,2.82-5.641,5.636c-.095.094-.171.266-.363.178a.2.2,0,0,1-.063-.171" transform="translate(-11.678 -166.637)" fill="#fe8660"/>
    <path id="Path_451" data-name="Path 451" d="M21.109,215.9a.888.888,0,0,1-.185-.355.537.537,0,0,1,.192-.259l4.846-4.847a2.073,2.073,0,0,1,.369-.3c.065-.04.137-.1.2,0a.786.786,0,0,1,.008.451,2.927,2.927,0,0,1-.419.421q-2.3,2.308-4.607,4.608c-.117.116-.212.272-.407.278" transform="translate(-19.252 -193.295)" fill="#fe6f69"/>
    <path id="Path_452" data-name="Path 452" d="M297.13,98.273c-.089.078-.182.152-.266.235q-2.466,2.463-4.931,4.927c-.088.088-.156.213-.3.22a.529.529,0,0,1-.062-.471c.056-.149.2-.216.3-.321,1.654-1.669,3.334-3.312,4.974-4.995a.143.143,0,0,1,.051-.031,1.254,1.254,0,0,1,.235.435" transform="translate(-268.244 -90.02)" fill="#d41c8e"/>
    <path id="Path_453" data-name="Path 453" d="M13.508,192.388c.15-.006.217-.13.306-.218q2.794-2.79,5.586-5.582c.084-.084.176-.159.264-.238a.529.529,0,0,1,.062.47c-.091.185-.271.285-.41.424q-2.651,2.661-5.311,5.313c-.1.1-.175.22-.321.255a1.147,1.147,0,0,1-.176-.425" transform="translate(-12.429 -171.458)" fill="#fe8262"/>
    <path id="Path_454" data-name="Path 454" d="M187.1,19.665c.007-.149.132-.216.22-.3q2.769-2.774,5.54-5.545c.088-.088.213-.156.219-.306.134.076.309.055.425.176-.036.146-.159.225-.256.322q-2.649,2.654-5.3,5.3a2.145,2.145,0,0,1-.425.415.439.439,0,0,1-.419-.059" transform="translate(-172.146 -12.429)" fill="#fe8262"/>
    <path id="Path_455" data-name="Path 455" d="M297.777,116.233c0,.137-.111.206-.194.289q-2.82,2.823-5.643,5.643c-.076.075-.137.177-.264.178a.451.451,0,0,1-.063-.414c.1-.217.315-.324.475-.484q2.617-2.631,5.247-5.25c.1-.1.175-.22.321-.256a.557.557,0,0,1,.121.293" transform="translate(-268.292 -106.674)" fill="#c61c97"/>
    <path id="Path_456" data-name="Path 456" d="M114.481,297.519c0-.15.125-.22.214-.309q2.654-2.657,5.309-5.313c.088-.088.213-.156.22-.3a.362.362,0,0,1,.478,0c-.007.149-.132.216-.22.3q-2.527,2.532-5.058,5.061c-.224.224-.441.455-.662.682a.409.409,0,0,1-.281-.122" transform="translate(-105.333 -268.208)" fill="#c81c96"/>
    <path id="Path_457" data-name="Path 457" d="M297.656,111.21c-.064.075-.124.155-.193.225q-2.726,2.728-5.452,5.455a1.028,1.028,0,0,1-.334.245.451.451,0,0,1-.063-.414c.071-.189.258-.268.389-.4q2.587-2.6,5.182-5.183c.106-.106.182-.235.288-.339a1.073,1.073,0,0,1,.183.411" transform="translate(-268.292 -101.945)" fill="#c91c95"/>
    <path id="Path_458" data-name="Path 458" d="M15.71,199.008c.071-.082.138-.169.214-.245q2.729-2.731,5.461-5.459c.088-.088.156-.213.3-.22a.377.377,0,0,1,.061.363.761.761,0,0,1-.234.3q-2.645,2.647-5.293,5.289c-.109.109-.194.3-.412.212a.48.48,0,0,1-.1-.241" transform="translate(-14.455 -177.654)" fill="#fe7d64"/>
    <path id="Path_459" data-name="Path 459" d="M161.915,5.534c-.1.108-.2.219-.306.324q-3.024,3.026-6.048,6.051c-.088.088-.213.156-.22.3a.3.3,0,0,1-.418,0c.007-.149.132-.217.22-.305q3.077-3.082,6.155-6.162c.086-.087.263-.153.144-.335l.473.122" transform="translate(-142.542 -4.98)" fill="#fd9952"/>
    <path id="Path_460" data-name="Path 460" d="M12.227,155.34c-.149.008-.216.132-.3.22q-3.069,3.065-6.136,6.132c-.077.077-.16.148-.24.222l-.121-.473c.165.114.232-.041.315-.123q1.743-1.737,3.481-3.478,1.36-1.36,2.721-2.719c.082-.082.146-.2.284-.2a.3.3,0,0,1,0,.419" transform="translate(-4.992 -142.541)" fill="#fd9952"/>
    <path id="Path_461" data-name="Path 461" d="M193.083,21.689c0-.1.072-.159.135-.222q2.835-2.836,5.672-5.67a.964.964,0,0,1,.119-.088.463.463,0,0,1,.243.1c.055.167-.066.263-.16.357q-2.708,2.719-5.425,5.429a.518.518,0,0,1-.218.152.375.375,0,0,1-.364-.06" transform="translate(-177.653 -14.454)" fill="#fe7d64"/>
    <path id="Path_462" data-name="Path 462" d="M291.67,147.138c.149-.008.216-.132.3-.221q3.018-3.013,6.034-6.03c.1-.1.173-.228.341-.207a.725.725,0,0,1,.07.3c-.149.008-.216.133-.3.221q-3.071,3.066-6.14,6.135c-.089.088-.156.213-.305.221a.3.3,0,0,1,0-.419" transform="translate(-268.285 -129.437)" fill="#b51ca1"/>
    <path id="Path_463" data-name="Path 463" d="M297.389,107.968c.021.138-.069.218-.154.3q-2.677,2.675-5.351,5.352a.979.979,0,0,1-.291.2.361.361,0,0,1,0-.478c.1,0,.159-.072.222-.135q2.686-2.685,5.371-5.372a.978.978,0,0,0,.088-.119.426.426,0,0,1,.117.246" transform="translate(-268.208 -99.114)" fill="#cd1c93"/>
    <path id="Path_464" data-name="Path 464" d="M283.057,68.287a2.135,2.135,0,0,0,.261-.193q1.866-1.859,3.725-3.724a1.654,1.654,0,0,0,.127-.163l.116.132a7.832,7.832,0,0,1-.98,1.7.585.585,0,0,0-.338.228q-1.152,1.15-2.3,2.3c-.1.095-.173.227-.337.22-.158-.129-.3-.264-.271-.5" transform="translate(-260.433 -59.077)" fill="#f43288"/>
    <path id="Path_465" data-name="Path 465" d="M85.051,291.159a2.186,2.186,0,0,1-.388.485q-1.962,1.957-3.921,3.917c-.089.089-.161.208-.31.213a1.122,1.122,0,0,1-.346-.244c.93-.953,1.882-1.885,2.82-2.83.539-.543,1.089-1.074,1.612-1.633a.312.312,0,0,1,.088-.026.657.657,0,0,1,.444.118" transform="translate(-73.687 -267.784)" fill="#e41c84"/>
    <path id="Path_466" data-name="Path 466" d="M24.918,204.551a4.971,4.971,0,0,0-.715.626q-2.288,2.293-4.581,4.581c-.084.084-.178.157-.267.235a.408.408,0,0,1-.117-.236c-.078-.2.1-.286.2-.389q2.3-2.314,4.617-4.62c.19-.19.37-.39.575-.563.093-.079.2-.224.344-.053a.423.423,0,0,1-.055.419" transform="translate(-17.683 -187.747)" fill="#fe7467"/>
    <path id="Path_467" data-name="Path 467" d="M209.983,19.354c-.078.089-.152.183-.235.267q-2.469,2.472-4.941,4.941a1.062,1.062,0,0,0-.266.355.427.427,0,0,1-.416.056c-.14-.068-.073-.163-.026-.248a1.14,1.14,0,0,1,.215-.247q2.521-2.522,5.046-5.042c.1-.1.187-.277.39-.2a.4.4,0,0,1,.235.117" transform="translate(-187.736 -17.682)" fill="#fe7467"/>
    <path id="Path_468" data-name="Path 468" d="M31.82,226.083c-.081.072-.166.141-.243.217q-2.014,2.012-4.027,4.025c-.21.21-.426.413-.64.619a.644.644,0,0,1-.181-.294c-.04-.134.062-.2.136-.276q2.321-2.327,4.65-4.647c.092-.092.2-.263.36-.067a.428.428,0,0,1-.055.423" transform="translate(-24.585 -207.544)" fill="#fe646e"/>
    <path id="Path_469" data-name="Path 469" d="M54.293,269.4c-1.062,1.058-2.119,2.121-3.19,3.17a12.384,12.384,0,0,0-.858.895,1.119,1.119,0,0,1-.311-.333c-.038-.147.076-.218.157-.3q1.824-1.83,3.654-3.655c.076-.076.148-.165.271-.169.144.094.3.177.277.391" transform="translate(-45.936 -247.513)" fill="#fe3a7e"/>
    <path id="Path_470" data-name="Path 470" d="M248.675,34.118a.477.477,0,0,1,.236.167c.054.153-.053.246-.141.334q-2.017,2.031-4.047,4.049a.417.417,0,0,1-.146.1.486.486,0,0,1-.389-.071.2.2,0,0,1,0-.27.948.948,0,0,1,.137-.157q2-2,4-4c.092-.092.175-.235.349-.153" transform="translate(-224.623 -31.37)" fill="#fe5573"/>
    <path id="Path_471" data-name="Path 471" d="M64.225,287.152c.075-.063.156-.121.226-.191q1.834-1.831,3.664-3.664c.075-.075.177-.135.189-.258.226-.037.346.1.442.271,0,.161-.127.241-.223.337q-1.083,1.09-2.173,2.173a2.966,2.966,0,0,0-.469.577,6.555,6.555,0,0,1-1.524.871l-.131-.115" transform="translate(-59.093 -260.416)" fill="#f43288"/>
    <path id="Path_472" data-name="Path 472" d="M223.383,24.173q-.955.945-1.909,1.89-1.428,1.423-2.852,2.851a.665.665,0,0,0-.247.395.5.5,0,0,1-.6,0c.072-.081.141-.167.217-.243q2.373-2.375,4.748-4.748c.11-.11.224-.217.336-.326.088.084.248.048.306.182" transform="translate(-200.373 -22.074)" fill="#fe696c"/>
    <path id="Path_473" data-name="Path 473" d="M95.057,296.81q2.454-2.469,4.908-4.939c.062-.063.117-.134.175-.2a.3.3,0,0,1,.419,0c0,.127-.1.188-.178.264q-2.4,2.406-4.81,4.811c-.083.083-.154.188-.29.192a.377.377,0,0,1-.224-.126" transform="translate(-87.461 -268.286)" fill="#d71c8c"/>
    <path id="Path_474" data-name="Path 474" d="M274.1,50.229q-1.789,1.779-3.577,3.558c-.162.161-.316.33-.474.495-.188.037-.245-.115-.33-.227-.035-.168.092-.252.187-.348,1.23-1.24,2.476-2.464,3.7-3.711.047-.048.089-.113.174-.08a.844.844,0,0,1,.322.314" transform="translate(-248.162 -45.918)" fill="#fe397f"/>
    <path id="Path_475" data-name="Path 475" d="M204.484,17.187c-.126,0-.19.1-.266.174q-2.6,2.6-5.2,5.193a1,1,0,0,0-.224.313.362.362,0,0,1-.478,0c.079-.088.155-.181.238-.265q2.615-2.617,5.232-5.232a1.08,1.08,0,0,0,.279-.381,1.128,1.128,0,0,1,.415.2" transform="translate(-182.472 -15.631)" fill="#fe7966"/>
    <path id="Path_476" data-name="Path 476" d="M22.853,198.8a1.027,1.027,0,0,0-.334.245q-2.574,2.578-5.15,5.153c-.082.082-.193.149-.2.287a1.173,1.173,0,0,1-.2-.416c.16-.007.237-.136.333-.232q2.641-2.638,5.28-5.277c.084-.084.176-.159.265-.239a.361.361,0,0,1,0,.478" transform="translate(-15.618 -182.473)" fill="#fe7966"/>
    <path id="Path_477" data-name="Path 477" d="M296.661,91.462a.552.552,0,0,1,.182.286c.035.147-.084.213-.164.293q-2.264,2.269-4.536,4.531c-.124.123-.234.341-.483.229a.659.659,0,0,1-.014-.4,2.389,2.389,0,0,1,.462-.459q2.107-2.119,4.225-4.228a.7.7,0,0,1,.328-.249" transform="translate(-268.319 -84.153)" fill="#da1c8a"/>
    <path id="Path_478" data-name="Path 478" d="M35,249.374l-.176-.249c-.113-.213.069-.309.179-.419q1.981-1.99,3.969-3.972a1.258,1.258,0,0,1,.2-.18c.05-.032.1-.063.162-.012a.941.941,0,0,1,.124.555,2.145,2.145,0,0,0-.569.459q-1.791,1.8-3.586,3.586c-.09.089-.163.2-.3.233" transform="translate(-32.011 -224.975)" fill="#fe5474"/>
    <path id="Path_479" data-name="Path 479" d="M80.883,291.5a1.081,1.081,0,0,1-.227.311q-1.968,1.964-3.933,3.93c-.076.076-.138.176-.265.176a.847.847,0,0,1-.315-.23c.029-.126.134-.194.216-.277q1.134-1.139,2.273-2.273a1.443,1.443,0,0,0,.29-.375,4.508,4.508,0,0,1,.754-.566c.285-.211.586-.4.87-.613.1-.072.195-.182.338-.083" transform="translate(-70.058 -268.165)" fill="#e71c82"/>
    <path id="Path_480" data-name="Path 480" d="M165.4,14.7c.079-.088.155-.181.238-.265q3-3.007,6.01-6.012c.089-.089.209-.16.214-.309l.294.084c.083.179-.078.25-.166.339-.565.575-1.139,1.14-1.706,1.712-1.478,1.49-2.983,2.954-4.442,4.463a.22.22,0,0,1-.077.045.362.362,0,0,1-.366-.056" transform="translate(-152.181 -7.469)" fill="#fd9158"/>
    <path id="Path_481" data-name="Path 481" d="M8.324,171.914c.088-.08.18-.155.264-.239l6.041-6.038c.084-.084.176-.159.265-.239a.363.363,0,0,1,.058.363,2.318,2.318,0,0,1-.415.422q-2.877,2.886-5.764,5.763c-.1.1-.177.283-.381.208l-.067-.24" transform="translate(-7.659 -152.181)" fill="#fd9158"/>
    <path id="Path_482" data-name="Path 482" d="M296.551,88.458c-.551.558-1.1,1.118-1.654,1.674q-1.473,1.478-2.95,2.952a1.062,1.062,0,0,1-.354.266.361.361,0,0,1,0-.478c.149-.008.217-.133.306-.221q2.116-2.11,4.228-4.224a.836.836,0,0,1,.272-.229c.091.064.1.176.153.261" transform="translate(-268.208 -81.149)" fill="#dd1c88"/>
    <path id="Path_483" data-name="Path 483" d="M9.167,176.973c.147-.014.214-.139.3-.227q2.949-2.944,5.895-5.89c.089-.088.156-.213.305-.221a.249.249,0,0,1,0,.359,1.11,1.11,0,0,0-.375.287q-2.865,2.867-5.733,5.73c-.086.086-.152.263-.335.144l-.06-.182" transform="translate(-8.434 -156.999)" fill="#fe8e5a"/>
    <path id="Path_484" data-name="Path 484" d="M170.635,15.667c.007-.149.132-.217.221-.305q2.944-2.949,5.89-5.895c.089-.089.213-.156.227-.3l.182.059c.114.164-.039.232-.121.315q-1.758,1.764-3.521,3.524-1.16,1.16-2.319,2.321c-.082.082-.2.146-.2.284a.249.249,0,0,1-.359,0" transform="translate(-156.999 -8.432)" fill="#fe8e5a"/>
    <path id="Path_485" data-name="Path 485" d="M35.817,31.4c.127.1,0,.157-.049.209q-2.078,2.084-4.162,4.162c-.053.053-.107.175-.209.049a8,8,0,0,1,.893-1.255,15.865,15.865,0,0,1,3.442-3.148.233.233,0,0,1,.086-.018" transform="translate(-28.888 -28.888)" fill="#f9e11b"/>
    <path id="Path_486" data-name="Path 486" d="M291.671,100.123a2.664,2.664,0,0,0,.524-.435q2.2-2.2,4.4-4.4c.076-.077.143-.163.215-.245a.392.392,0,0,1,.126.224c0,.136-.108.207-.191.29q-2.4,2.406-4.812,4.811c-.075.075-.137.176-.263.178a.3.3,0,0,1,0-.419" transform="translate(-268.286 -87.444)" fill="#d71c8c"/>
    <path id="Path_487" data-name="Path 487" d="M29.781,220.814c-.115,0-.174.087-.243.157q-2.352,2.351-4.7,4.7a1.915,1.915,0,0,0-.146.186.678.678,0,0,1-.177-.307c-.035-.087.036-.125.083-.171,1.614-1.589,3.205-3.2,4.811-4.8a1.194,1.194,0,0,1,.176-.16c.088-.058.178-.1.25.024a.352.352,0,0,1-.053.369" transform="translate(-22.546 -202.754)" fill="#fe696c"/>
    <path id="Path_488" data-name="Path 488" d="M249.95,40.929c.086-.1.167-.2.258-.286q1.886-1.889,3.775-3.775a1.077,1.077,0,0,0,.28-.38.875.875,0,0,1,.332.257.883.883,0,0,1-.246.333q-1.911,1.912-3.823,3.823a.651.651,0,0,1-.233.183.316.316,0,0,1-.343-.155" transform="translate(-229.976 -33.572)" fill="#fe5076"/>
    <path id="Path_489" data-name="Path 489" d="M37.446,255.95c.058-.068.111-.14.174-.2q1.962-1.965,3.927-3.926c.084-.084.154-.233.316-.117a.28.28,0,0,1,.153.336,1.5,1.5,0,0,0-.488.374c-1.282,1.279-2.554,2.566-3.844,3.837a.942.942,0,0,1-.238-.3" transform="translate(-34.454 -231.551)" fill="#fe4f76"/>
    <path id="Path_490" data-name="Path 490" d="M254.443,44q1.743-1.753,3.487-3.506c.264-.265.533-.525.8-.788.1.087.24.12.317.239-1.246,1.272-2.516,2.52-3.772,3.782a1.494,1.494,0,0,0-.374.489.459.459,0,0,1-.456-.215" transform="translate(-234.11 -36.529)" fill="#fe4b78"/>
    <path id="Path_491" data-name="Path 491" d="M40.43,260.38c0-.126.1-.189.174-.265q1.9-1.905,3.809-3.807c.083-.083.153-.233.315-.116a.222.222,0,0,1,.152.28,1.406,1.406,0,0,0-.3.24q-1.832,1.837-3.669,3.669c-.09.09-.164.2-.3.232l-.181-.233" transform="translate(-37.199 -235.68)" fill="#fe4b78"/>
    <path id="Path_492" data-name="Path 492" d="M266.442,44.716a.8.8,0,0,1,.286.247q-1.994,2.009-4,4a.372.372,0,0,1-.147.1.28.28,0,0,1-.317-.194c0-.148.111-.227.2-.316q1.829-1.833,3.663-3.662c.086-.086.156-.218.317-.178" transform="translate(-241.304 -41.136)" fill="#fe437a"/>
    <path id="Path_493" data-name="Path 493" d="M266.346,51.972c.07-.083.134-.171.21-.248q1.809-1.813,3.622-3.621c.089-.088.159-.21.308-.215l.2.17q-1.912,1.921-3.823,3.842c-.081.082-.2.145-.207.28a.238.238,0,0,1-.3-.209" transform="translate(-245.062 -44.061)" fill="#fe3e7c"/>
    <path id="Path_494" data-name="Path 494" d="M36.931,240.579l-3.026,3.007q-.645.642-1.287,1.287c-.084.084-.183.16-.158.3a1.119,1.119,0,0,1-.241-.351q2.2-2.184,4.4-4.367c.084-.083.178-.157.267-.235a.214.214,0,0,1,.046.359" transform="translate(-29.644 -221.024)" fill="#fe5972"/>
    <path id="Path_495" data-name="Path 495" d="M310.231,72.489c0,.123-.092.193-.168.269q-1.209,1.209-2.418,2.419a.583.583,0,0,1-.352.2.1.1,0,0,1-.022-.08c.252-.464.555-.9.845-1.337.129-.2.179-.45.4-.579.126.032.172-.076.238-.141.31-.3.612-.615.923-.917.088-.085.173-.2.328-.125a.84.84,0,0,1,.223.288" transform="translate(-282.715 -66.407)" fill="#ec1c7f"/>
    <path id="Path_496" data-name="Path 496" d="M44.932,267.312a.878.878,0,0,1-.257-.3.632.632,0,0,1,.2-.257q1.813-1.815,3.629-3.627c.109-.108.2-.258.393-.229a.329.329,0,0,1,.183.329,4.775,4.775,0,0,0-.6.537c-1.183,1.181-2.36,2.369-3.549,3.544" transform="translate(-41.105 -241.89)" fill="#fe427b"/>
    <path id="Path_497" data-name="Path 497" d="M47.059,260.376c-.138,0-.2.117-.284.2q-1.826,1.821-3.648,3.645a.873.873,0,0,1-.27.23.415.415,0,0,1-.158-.191c.2-.208.394-.42.6-.624q1.677-1.681,3.359-3.356c.074-.073.123-.229.284-.143.109.046.165.117.12.24" transform="translate(-39.287 -239.325)" fill="#fe4679"/>
    <path id="Path_498" data-name="Path 498" d="M264.29,42.857A1.936,1.936,0,0,0,264.1,43q-1.915,1.911-3.826,3.826a1.769,1.769,0,0,0-.144.187.122.122,0,0,1-.171-.088c-.09-.121-.011-.2.07-.277q1.917-1.914,3.832-3.831c.063-.063.12-.136.222-.133a.471.471,0,0,1,.2.169" transform="translate(-239.153 -39.277)" fill="#fe4779"/>
    <path id="Path_499" data-name="Path 499" d="M47.9,271.205c0-.126.1-.191.173-.266q1.813-1.815,3.627-3.628c.09-.09.17-.2.323-.177.14-.008.147.074.122.179-.208.2-.42.393-.623.6q-1.614,1.61-3.224,3.224a.851.851,0,0,0-.229.271l-.17-.2" transform="translate(-44.068 -245.783)" fill="#fe3e7c"/>
    <path id="Path_500" data-name="Path 500" d="M245.075,32.4c-.137,0-.206.11-.288.193q-2.014,2.011-4.025,4.024c-.09.09-.2.167-.183.321a.214.214,0,0,1-.359-.046c0-.1.068-.161.131-.224l4.374-4.372a.734.734,0,0,1,.1-.07.566.566,0,0,1,.254.173" transform="translate(-221.024 -29.652)" fill="#fe5a72"/>
    <path id="Path_501" data-name="Path 501" d="M28.617,217.326c-.149.007-.216.132-.3.22q-2.2,2.2-4.406,4.4c-.182.182-.371.356-.556.534l-.111-.2c.117-.107.238-.209.349-.32q2.362-2.359,4.724-4.72c.088-.088.156-.213.3-.22a.2.2,0,0,1,0,.3" transform="translate(-21.382 -199.684)" fill="#fe6c6b"/>
    <path id="Path_502" data-name="Path 502" d="M75.494,308.166a.891.891,0,0,1-.179.271q-1.255,1.25-2.507,2.5a1.186,1.186,0,0,1-.142.106.816.816,0,0,1-.291-.228c-.048-.148.076-.212.152-.291.337-.345.679-.685,1.022-1.024a1.021,1.021,0,0,0,.24-.332c.353-.291.77-.486,1.138-.755.191-.077.311-.317.566-.25" transform="translate(-66.582 -283.529)" fill="#ec1c7f"/>
    <path id="Path_503" data-name="Path 503" d="M67.843,321.041c.022.15-.085.23-.173.322-.419.442-.887.836-1.271,1.311a2.361,2.361,0,0,1-.53-.437l1.5-.9a.605.605,0,0,1,.478-.3" transform="translate(-60.605 -295.386)" fill="#f01c7d"/>
    <path id="Path_504" data-name="Path 504" d="M324.562,66.388c-.134,0-.207.1-.29.184-.314.313-.624.629-.942.936-.056.054-.1.2-.228.084a.038.038,0,0,1-.014-.04c0-.013.009-.02.014-.02a15.077,15.077,0,0,0,.818-1.391,2.8,2.8,0,0,1,.2-.286,2.513,2.513,0,0,1,.44.531" transform="translate(-297.269 -60.594)" fill="#f01c7d"/>
    <path id="Path_505" data-name="Path 505" d="M212.05,225.712c-.048-.03-.076-.072-.035-.121.057-.069.121-.132.184-.2q6.521-6.522,13.046-13.039c.077-.077.123-.281.313-.154a1.075,1.075,0,0,1-.058.471l-12.98,12.98a1.073,1.073,0,0,1-.469.059" transform="translate(-195.054 -195.208)" fill="#8b1cbc"/>
    <path id="Path_506" data-name="Path 506" d="M218.553,231.532c-.008-.129.093-.192.168-.268q6.271-6.273,12.545-12.545c.075-.075.138-.176.268-.168a4.262,4.262,0,0,1-.12.73c-.14-.015-.216.085-.3.168q-5.832,5.83-11.662,11.662c-.083.083-.184.16-.166.3a2.2,2.2,0,0,1-.732.12" transform="translate(-201.088 -201.087)" fill="#881cbe"/>
    <path id="Path_507" data-name="Path 507" d="M259.842,266.89a5.944,5.944,0,0,1-1.253.54c-.149.013-.1-.085-.074-.149a.825.825,0,0,1,.21-.249l8.31-8.31a.845.845,0,0,1,.249-.21c.063-.026.161-.078.15.072a6.052,6.052,0,0,1-.539,1.254c-.094,0-.133.079-.188.133q-3.369,3.363-6.732,6.732c-.054.054-.133.094-.134.188" transform="translate(-237.831 -237.826)" fill="#771cc9"/>
    <path id="Path_508" data-name="Path 508" d="M256.463,247.757c-.143-.127-.19.037-.25.1-.609.6-1.212,1.206-1.817,1.811q-3.322,3.322-6.64,6.648c-.071.071-.261.117-.137.292a4.566,4.566,0,0,1-1.024.35c-.061-.069-.022-.13.019-.188a1.7,1.7,0,0,1,.2-.219q4.8-4.8,9.595-9.588c.107-.106.183-.307.4-.225a7.119,7.119,0,0,1-.35,1.023" transform="translate(-226.86 -226.999)" fill="#7c1cc6"/>
    <path id="Path_509" data-name="Path 509" d="M226.385,238.509c-.068-.016-.158-.026-.094-.128a1.078,1.078,0,0,1,.162-.174L238.21,226.45a1.137,1.137,0,0,1,.174-.162c.1-.065.113.022.128.092a1.643,1.643,0,0,1-.123.591c-.138-.007-.214.093-.3.177q-5.472,5.47-10.942,10.942c-.083.083-.183.159-.177.3a1.656,1.656,0,0,1-.589.124" transform="translate(-208.188 -208.184)" fill="#851cc0"/>
    <path id="Path_510" data-name="Path 510" d="M250.572,240.352c-.126,0-.187.1-.263.18q-4.89,4.887-9.777,9.777c-.075.075-.177.137-.179.263a1.7,1.7,0,0,1-.471.128c-.15.013-.1-.087-.073-.149a.818.818,0,0,1,.21-.249L250.3,240.018a.815.815,0,0,1,.249-.21c.063-.025.163-.077.149.074l-.129.471" transform="translate(-220.618 -220.618)" fill="#801cc4"/>
    <path id="Path_511" data-name="Path 511" d="M274.927,281.978c-.132-.165.06-.207.122-.27q2.026-2.042,4.064-4.072c.864-.864,1.726-1.73,2.6-2.588.063-.062.105-.254.27-.122a8.622,8.622,0,0,1-.771,1.39c-.089,0-.14.07-.195.124q-2.243,2.225-4.467,4.468c-.087.088-.2.165-.229.3a9.289,9.289,0,0,1-1.391.771" transform="translate(-252.915 -252.914)" fill="#731ccc"/>
    <path id="Path_512" data-name="Path 512" d="M292.72,297.612c-.05-.157.069-.243.155-.33q2.2-2.207,4.405-4.406c.087-.087.174-.2.331-.157a14.406,14.406,0,0,1-3.221,3.711,11.039,11.039,0,0,1-1.67,1.181" transform="translate(-269.318 -269.318)" fill="#6e1ccf"/>
    <path id="Path_513" data-name="Path 513" d="M233.84,245.255c-.077-.013-.15-.035-.081-.131a1.514,1.514,0,0,1,.164-.173l11.029-11.029a1.5,1.5,0,0,1,.173-.164c.1-.069.117,0,.131.081l-.017.114a2.314,2.314,0,0,1-.417.422q-5.22,5.227-10.447,10.447a2.348,2.348,0,0,1-.422.417l-.113.016" transform="translate(-215.053 -215.053)" fill="#821cc2"/>
    <path id="Path_514" data-name="Path 514" d="M236.506,247.8a1.11,1.11,0,0,1,.25-.331q5.354-5.351,10.706-10.705a1.1,1.1,0,0,1,.33-.25.927.927,0,0,1-.1.364c-.031-.05-.074-.069-.122-.03s-.117.108-.173.164Q242.2,242.2,237.008,247.4c-.071.071-.261.117-.138.292a.871.871,0,0,1-.364.1" transform="translate(-217.607 -217.612)" fill="#821cc2"/>
    <path id="Path_515" data-name="Path 515" d="M14.99.548c.183.013.474-.09.525.042.071.186-.2.311-.333.446Q8.1,8.126,1.012,15.207c-.115.114-.221.341-.385.275C.5,15.431.6,15.193.584,15.041a.535.535,0,0,1,0-.09.989.989,0,0,0,.334-.246Q7.831,7.793,14.744.882A.989.989,0,0,0,14.99.548" transform="translate(-0.519 -0.481)" fill="#fbc133"/>
    <path id="Path_516" data-name="Path 516" d="M90.538,100.946v-.3q0-.269,0-.538v-.957q0-.209,0-.419,0-.269,0-.538,0-.209,0-.419V97.3q0-.179,0-.359v-.418q0-.209,0-.419t0-.418q0-.269,0-.538,0-.209.006-.418a1.273,1.273,0,0,0,.055-.479l.17-.658a7.583,7.583,0,0,1,.559-1.133,6.662,6.662,0,0,1,1.066-1.081,8.58,8.58,0,0,1,1.017-.545l.538-.172.419-.07.777-.052h6.7l.658.006a.785.785,0,0,0,.359.046l.418.07.359.11.478.186.171.088.3.171.3.209.3.243.366.367.368.48.285.478c.158.095.167.277.245.418a1.877,1.877,0,0,1,.161.8l.018.162.052.658v6.936q-.006.3-.011.6l-.1.66-.13.478-.4.838a5.2,5.2,0,0,1-1.454,1.481l-.773.381-.6.178-.66.1-.536.011h-6.7l-.658-.009c-.162.042-.3-.083-.462-.062a2.447,2.447,0,0,1-.846-.162c-.154-.059-.335-.071-.428-.239a1.322,1.322,0,0,0-.417-.289l-.48-.368-.374-.368-.283-.359-.122-.179-.179-.3-.12-.24-.124-.3-.119-.359-.123-.6a.786.786,0,0,0-.046-.359q0-.329-.006-.658v-.478q0-.209,0-.419" transform="translate(-83.303 -83.304)" fill="#fefefe"/>
    <path id="Path_517" data-name="Path 517" d="M289.186,112.449l-.223-.795c.4-.332.751-.725,1.126-1.087a.683.683,0,0,1,.229-.182c.061-.021.143-.05.131.073v.06q-.591.825-1.181,1.65a.516.516,0,0,0-.082.28" transform="translate(-265.872 -101.547)" fill="#ec328d"/>
    <path id="Path_518" data-name="Path 518" d="M288.342,88.354c-.131-.119-.174.032-.231.087-.322.312-.637.631-.954.949-.085.085-.162.18-.3.16l-.183-.419c.883-.874,1.764-1.751,2.654-2.619.066-.064.106-.249.271-.13v.06q-.533.827-1.067,1.653c-.058.09-.126.173-.189.26" transform="translate(-263.765 -79.442)" fill="#f0328b"/>
    <path id="Path_519" data-name="Path 519" d="M106.106,288.936l.855.225-.077.016c-.179-.005-.28.133-.4.225-.5.372-1.039.675-1.51,1.081-.209.046-.342.23-.538.3-.065-.083-.016-.151.034-.214a15.568,15.568,0,0,1,1.557-1.6.237.237,0,0,1,.083-.033" transform="translate(-96.059 -265.847)" fill="#ed328c"/>
    <path id="Path_520" data-name="Path 520" d="M87.875,286.907q-.62.633-1.24,1.266a1.969,1.969,0,0,0-.433.582,8.37,8.37,0,0,1-1.136.718l-.478.3a1.019,1.019,0,0,1,.31-.46l2.558-2.58.419.176" transform="translate(-77.828 -263.818)" fill="#f0328a"/>
    <path id="Path_521" data-name="Path 521" d="M180.675,189.7h-.6c-.086-.179.074-.251.162-.34.713-.722,1.432-1.438,2.15-2.155a.862.862,0,0,0,.273-.383.321.321,0,0,1,.148-.142,4.686,4.686,0,0,0,1.475-1.324.546.546,0,0,1,.192-.183,1.127,1.127,0,0,0,.432-.307q1.166-1.168,2.336-2.332c.095-.094.169-.265.36-.181v.419a3.8,3.8,0,0,1-.329.346q-3.19,3.191-6.38,6.382a2.962,2.962,0,0,1-.22.2" transform="translate(-165.664 -167.757)" fill="#d51c8d"/>
    <path id="Path_522" data-name="Path 522" d="M108.607,115.783q0-.3,0-.6a3.828,3.828,0,0,1,.329-.346q3.011-3.012,6.022-6.023c.07-.071.143-.138.22-.2h.6c.027.146-.091.212-.17.292q-3.35,3.355-6.705,6.705c-.08.08-.146.2-.292.17" transform="translate(-99.928 -99.936)" fill="#fe6f69"/>
    <path id="Path_523" data-name="Path 523" d="M187.845,194.774c0-.126.106-.187.181-.262q3.242-3.244,6.486-6.486c.075-.075.136-.177.263-.181q0,.269,0,.538a3.8,3.8,0,0,1-.329.345q-2.921,2.922-5.843,5.844a2.961,2.961,0,0,1-.22.2h-.538" transform="translate(-172.834 -172.834)" fill="#d21c8f"/>
    <path id="Path_524" data-name="Path 524" d="M115.178,108.616c0,.126-.106.187-.181.262q-3.062,3.065-6.127,6.127c-.075.075-.136.177-.263.181q0-.269,0-.538a3.772,3.772,0,0,1,.329-.345q2.742-2.743,5.484-5.486a2.919,2.919,0,0,1,.22-.2h.538" transform="translate(-99.928 -99.936)" fill="#fe7567"/>
    <path id="Path_525" data-name="Path 525" d="M194.58,200.971c0-.126.105-.187.181-.262q2.973-2.976,5.949-5.949c.075-.075.136-.177.262-.18v.539a1.492,1.492,0,0,1-.328.341c-1.8,1.812-3.62,3.6-5.4,5.424a.526.526,0,0,1-.121.086h-.539" transform="translate(-179.031 -179.031)" fill="#ce1c92"/>
    <path id="Path_526" data-name="Path 526" d="M208.392,213.074h-.6c-.083-.192.089-.266.183-.361q1.3-1.315,2.615-2.62c.725-.725,1.448-1.452,2.177-2.172.089-.088.161-.248.341-.161v.6c-.444.482-.92.933-1.382,1.4q-1.555,1.562-3.116,3.119a2.961,2.961,0,0,1-.219.2" transform="translate(-191.168 -191.134)" fill="#c71c96"/>
    <path id="Path_527" data-name="Path 527" d="M207.18,201.865c-.126,0-.187.1-.262.18q-2.438,2.435-4.872,4.872c-.075.075-.177.136-.181.262h-.537a1.052,1.052,0,0,1,.247-.332q2.638-2.635,5.273-5.273a1.04,1.04,0,0,1,.332-.246v.537" transform="translate(-185.24 -185.24)" fill="#ca1c94"/>
    <path id="Path_528" data-name="Path 528" d="M215.531,220.247c0-.126.105-.186.18-.262q2.136-2.139,4.275-4.275c.075-.075.136-.177.262-.18q0,.3,0,.6a1.906,1.906,0,0,1-.37.382c-1.2,1.221-2.436,2.416-3.628,3.649a.515.515,0,0,1-.12.086h-.6" transform="translate(-198.308 -198.307)" fill="#c31c99"/>
    <path id="Path_529" data-name="Path 529" d="M108.608,113.809v-.6c.705-.743,1.441-1.455,2.165-2.179.809-.808,1.6-1.629,2.433-2.418h.6c.027.146-.091.212-.171.293q-2.363,2.369-4.731,4.731c-.08.08-.146.2-.292.17" transform="translate(-99.929 -99.936)" fill="#fe8262"/>
    <path id="Path_530" data-name="Path 530" d="M108.607,113.809c.081-.073.166-.142.243-.219q2.367-2.365,4.732-4.732c.077-.077.146-.162.219-.243h.478c.027.146-.09.212-.17.292q-2.6,2.608-5.21,5.21c-.08.08-.146.2-.292.17q0-.239,0-.478" transform="translate(-99.928 -99.936)" fill="#fe7c64"/>
    <path id="Path_531" data-name="Path 531" d="M108.607,114.287a.254.254,0,0,0,.05-.031l5.591-5.591a.259.259,0,0,0,.032-.05h.36c0,.126-.105.187-.181.262q-2.794,2.8-5.59,5.59c-.075.075-.136.177-.262.18q0-.18,0-.36" transform="translate(-99.928 -99.936)" fill="#fe7966"/>
    <path id="Path_532" data-name="Path 532" d="M223.027,227.145a1.049,1.049,0,0,1,.246-.332q1.772-1.768,3.54-3.54a1.038,1.038,0,0,1,.332-.246q0,.328,0,.657-1.78,1.68-3.459,3.459l-.657,0" transform="translate(-205.205 -205.205)" fill="#be1c9c"/>
    <path id="Path_533" data-name="Path 533" d="M108.608,115.783c.053-.045.109-.086.158-.134q3.438-3.437,6.875-6.875c.049-.049.09-.105.134-.158h.36c.087.178-.073.251-.161.339-.738.747-1.483,1.488-2.225,2.231a1.124,1.124,0,0,0-.259.322,1.057,1.057,0,0,1-.391.267,3.126,3.126,0,0,0-1.194,1.142.42.42,0,0,1-.165.168.966.966,0,0,0-.324.257c-.823.821-1.642,1.645-2.468,2.463-.089.088-.161.248-.34.161q0-.09,0-.18" transform="translate(-99.929 -99.936)" fill="#fe6b6b"/>
    <path id="Path_534" data-name="Path 534" d="M120.045,228.585a1.308,1.308,0,0,1-.367-.356c-.034-.134.071-.2.144-.272q1.107-1.113,2.219-2.22a.444.444,0,0,1,.27-.174.62.62,0,0,1,.4.386c.017.149-.085.237-.176.328q-1.083,1.088-2.172,2.17c-.084.083-.159.218-.32.138" transform="translate(-110.109 -207.538)" fill="#fd3382"/>
    <path id="Path_535" data-name="Path 535" d="M240.325,136.726a1.215,1.215,0,0,1,.174.541c.06.152-.044.243-.134.333-.7.7-1.4,1.4-2.1,2.1-.114.112-.238.266-.43.111a.869.869,0,0,1-.176-.486.2.2,0,0,1,.04-.079c.786-.812,1.591-1.605,2.394-2.4a.351.351,0,0,1,.234-.118" transform="translate(-218.666 -125.8)" fill="#f0328b"/>
    <path id="Path_536" data-name="Path 536" d="M112.248,108.615h.6c.027.146-.091.212-.17.292q-1.884,1.891-3.775,3.775c-.08.08-.146.2-.292.17v-.6a1.716,1.716,0,0,1,.35-.362c1.052-1.068,2.13-2.11,3.17-3.191a.522.522,0,0,1,.12-.086" transform="translate(-99.929 -99.936)" fill="#fe8b5d"/>
    <path id="Path_537" data-name="Path 537" d="M231.244,234.7a.646.646,0,0,1,.229-.371q1.431-1.429,2.86-2.86a.646.646,0,0,1,.371-.229,2.125,2.125,0,0,1-.122.777q-1.327,1.233-2.56,2.56a2.111,2.111,0,0,1-.777.122" transform="translate(-212.765 -212.764)" fill="#bb1c9e"/>
    <path id="Path_538" data-name="Path 538" d="M173.756,238.6c.031.167-.09.252-.188.35q-1.119,1.12-2.238,2.24c-.082.082-.2.146-.2.283h-.777c-.087-.18.075-.251.162-.34q.923-.937,1.858-1.861a.871.871,0,0,0,.249-.365,3.86,3.86,0,0,1,1.136-.307" transform="translate(-156.715 -219.53)" fill="#db1c8a"/>
    <path id="Path_539" data-name="Path 539" d="M124.344,233.07c.09,0,.143-.059.2-.115l2.295-2.294a.312.312,0,0,0,.131-.224.711.711,0,0,1,.5.365c0,.125-.09.195-.165.271-.761.772-1.54,1.525-2.292,2.306-.04.041-.078.095-.15.06a1.456,1.456,0,0,1-.515-.369" transform="translate(-114.408 -212.023)" fill="#f93284"/>
    <path id="Path_540" data-name="Path 540" d="M137.269,240.587a1.217,1.217,0,0,1-.542-.174.862.862,0,0,1,.266-.387c.754-.759,1.514-1.512,2.267-2.273a1.167,1.167,0,0,1,.595.238c.052.135-.055.2-.127.275-.738.751-1.495,1.485-2.228,2.242-.064.066-.127.131-.231.079" transform="translate(-125.801 -218.754)" fill="#f0328a"/>
    <path id="Path_541" data-name="Path 541" d="M243.794,147.274a2.136,2.136,0,0,1,.048.793,6.71,6.71,0,0,1-.968,1.276c-.43.52-.878,1.025-1.334,1.523a.9.9,0,0,0-.154.286c-.035.085-.087.149-.16.024-.071-.37-.012-.746-.052-1.118.719-.578,1.323-1.276,1.984-1.915a1.776,1.776,0,0,0,.636-.868" transform="translate(-221.902 -135.505)" fill="#e73290"/>
    <path id="Path_542" data-name="Path 542" d="M160.485,242.551c.155.16-.043.206-.1.268-.646.658-1.3,1.307-1.951,1.961-.081.082-.195.145-.2.282h-1.074c-.025-.127.082-.171.154-.229q1.3-1.043,2.527-2.16a.973.973,0,0,1,.438-.164.223.223,0,0,1,.211.042" transform="translate(-144.593 -223.123)" fill="#e01c87"/>
    <path id="Path_543" data-name="Path 543" d="M133.794,235.279c-.006.125-.108.185-.183.261q-.99.994-1.982,1.985c-.125.125-.243.257-.364.385a1.137,1.137,0,0,1-.475-.242l2.321-2.344c.09-.092.177-.187.265-.281.21-.046.325.076.419.237" transform="translate(-120.338 -216.251)" fill="#f43287"/>
    <path id="Path_544" data-name="Path 544" d="M108.608,112.852c.355-.347.715-.69,1.065-1.042q1.589-1.6,3.172-3.2h.36c0,.126-.105.187-.181.262q-2.076,2.079-4.155,4.155c-.075.075-.136.177-.262.18v-.36" transform="translate(-99.929 -99.936)" fill="#fe8760"/>
    <path id="Path_545" data-name="Path 545" d="M155.18,241.935c-.359.01-.541.311-.764.509-.766.681-1.563,1.324-2.344,1.986h-.421c-.085-.179.075-.251.163-.34.621-.631,1.244-1.259,1.878-1.876.133-.129.2-.323.384-.4.258.012.515.028.773.027.116,0,.242-.013.33.095" transform="translate(-139.51 -222.491)" fill="#e73290"/>
    <path id="Path_546" data-name="Path 546" d="M112.142,108.5a1.038,1.038,0,0,1-.247.332q-1.532,1.528-3.061,3.06a1.029,1.029,0,0,1-.333.246,1.348,1.348,0,0,1,.056-.6q1.478-1.509,2.987-2.987a1.342,1.342,0,0,1,.6-.056" transform="translate(-99.823 -99.824)" fill="#fd9059"/>
    <path id="Path_547" data-name="Path 547" d="M237.465,131.26q-1.186,1.175-2.372,2.349c-.085.084-.175.161-.263.241a.572.572,0,0,1-.281-.458,7.72,7.72,0,0,1,.82-.873.8.8,0,0,0,.218-.272,1.393,1.393,0,0,0,.8-.767c.29-.217.474-.562.834-.694a1.1,1.1,0,0,1,.242.475" transform="translate(-215.806 -120.334)" fill="#f43287"/>
    <path id="Path_548" data-name="Path 548" d="M217.36,112.038a1.153,1.153,0,0,1,.478.243c.029.2-.156.274-.256.394a2.759,2.759,0,0,1-.261.272c.072.034.231-.042.2.145a.145.145,0,0,1-.079.039.973.973,0,0,0-1.023.809c0,.017-.025.029-.043.039-.056.052-.033-.168-.156-.025-.3.349-.643.664-.97.991a.531.531,0,0,1-.395-.241.307.307,0,0,1,.1-.322c.76-.768,1.52-1.535,2.293-2.289a.3.3,0,0,1,.1-.054" transform="translate(-197.678 -103.085)" fill="#fe427b"/>
    <path id="Path_549" data-name="Path 549" d="M119.3,221.451a13.221,13.221,0,0,0-1.071,1.038c-.53.526-1.047,1.064-1.57,1.6a1.071,1.071,0,0,1-.248-.333c-.059-.136.02-.226.106-.312q1.121-1.126,2.248-2.247c.077-.076.156-.157.283-.128.145.089.271.19.253.386" transform="translate(-107.092 -203.394)" fill="#fe397f"/>
    <path id="Path_550" data-name="Path 550" d="M146.51,240.86c.085.147-.059.193-.125.261-.665.672-1.336,1.339-2,2.009-.082.082-.2.145-.2.282l-.063,0c-.1-.049-.212.009-.31-.045a.444.444,0,0,1-.3-.059c.169-.026.22-.188.321-.288.76-.753,1.511-1.515,2.265-2.273a.321.321,0,0,1,.419.114" transform="translate(-132.037 -221.475)" fill="#eb328d"/>
    <path id="Path_551" data-name="Path 551" d="M242.006,160.361c.007-.36.307-.543.507-.764.708-.78,1.363-1.6,2.046-2.4q0,.477,0,.955c-.747.785-1.525,1.538-2.292,2.3-.079.079-.169.187-.3.071a.123.123,0,0,1,.04-.16" transform="translate(-222.619 -144.632)" fill="#e01c87"/>
    <path id="Path_552" data-name="Path 552" d="M238.558,176.336c-.137.006-.2.119-.282.2q-1.213,1.208-2.421,2.419c-.119.119-.231.251-.423.242a2.48,2.48,0,0,1,.393-.961.733.733,0,0,0,.361-.248q.988-.99,1.979-1.976c.108-.107.2-.256.394-.213v.537" transform="translate(-216.618 -161.744)" fill="#d81c8b"/>
    <path id="Path_553" data-name="Path 553" d="M240.97,243.531a.656.656,0,0,1,.231-.37q.981-.978,1.958-1.958a.655.655,0,0,1,.37-.231,3.536,3.536,0,0,1-2.56,2.56" transform="translate(-221.714 -221.715)" fill="#b61ca1"/>
    <path id="Path_554" data-name="Path 554" d="M242.568,143.8a.666.666,0,0,1-.25.594c-.681.662-1.347,1.34-2.02,2.01-.077.077-.144.213-.29.1a.38.38,0,0,1-.123-.478c.126.072.208-.015.284-.09q1.119-1.114,2.234-2.231a.3.3,0,0,0,.106-.206.454.454,0,0,1,.06.3" transform="translate(-220.676 -132.036)" fill="#eb328d"/>
    <path id="Path_555" data-name="Path 555" d="M212.747,110.536a7.894,7.894,0,0,1-.818.856c-.484.5-.978.982-1.469,1.471-.091.091-.195.174-.173.325-.2.078-.314-.048-.437-.163-.06-.172.045-.288.148-.393.688-.7,1.386-1.393,2.082-2.087.1-.1.213-.184.369-.113a.573.573,0,0,1,.3.1" transform="translate(-193.065 -101.583)" fill="#fe4879"/>
    <path id="Path_556" data-name="Path 556" d="M112.3,109.31c0,.114-.087.173-.156.242q-1.294,1.3-2.589,2.589c-.069.069-.128.156-.242.156a1.824,1.824,0,0,1,.217-.782q1.009-.978,1.987-1.987a1.98,1.98,0,0,1,.782-.218" transform="translate(-100.577 -100.575)" fill="#fd9456"/>
    <path id="Path_557" data-name="Path 557" d="M108.608,186.661q0-.24,0-.48a1.017,1.017,0,0,1,.207-.286q.967-.963,1.931-1.929c.014-.014.027-.029.042-.041.089-.074.168-.2.3-.146s.089.2.1.319a.636.636,0,0,1-.032.218,5.108,5.108,0,0,1-.651.69q-.73.742-1.473,1.471c-.113.11-.219.272-.424.184" transform="translate(-99.929 -169.08)" fill="#fe5e70"/>
    <path id="Path_558" data-name="Path 558" d="M187.044,108.616h.538a.217.217,0,0,1-.072.242c-.748.755-1.475,1.533-2.268,2.243a.615.615,0,0,1-.217.034c-.113-.013-.267.035-.315-.1s.066-.222.149-.306c.643-.651,1.293-1.295,1.939-1.943a.948.948,0,0,1,.245-.166" transform="translate(-169.941 -99.936)" fill="#fe5e70"/>
    <path id="Path_559" data-name="Path 559" d="M243.037,169.678a1.043,1.043,0,0,0-.333.247c-.7.7-1.39,1.4-2.093,2.086-.061.06-.111.261-.268.1a.477.477,0,0,1,.129-.578c.138,0,.2-.115.284-.2.667-.664,1.331-1.331,2-1.995.082-.081.145-.195.282-.2v.539" transform="translate(-221.096 -155.623)" fill="#dc1c89"/>
    <path id="Path_560" data-name="Path 560" d="M111.744,216.1a1.249,1.249,0,0,1-.242-.533c.794-.815,1.606-1.612,2.41-2.416a.275.275,0,0,1,.23-.115.479.479,0,0,1,.247.437,5.879,5.879,0,0,0-.872.811c-.592.6-1.224,1.169-1.773,1.815" transform="translate(-102.592 -196.007)" fill="#fe437a"/>
    <path id="Path_561" data-name="Path 561" d="M108.5,199.1a2.15,2.15,0,0,1-.046-.786,1.008,1.008,0,0,1,.21-.287q.952-.948,1.9-1.9a1.3,1.3,0,0,1,.132-.121c.194-.147.244-.132.368.107a.362.362,0,0,1,0,.215,2.692,2.692,0,0,1-.461.5q-.889.9-1.786,1.787a.776.776,0,0,0-.258.422.144.144,0,0,1-.056.062" transform="translate(-99.775 -180.26)" fill="#fe5574"/>
    <path id="Path_562" data-name="Path 562" d="M199.016,108.456a2.143,2.143,0,0,1,.786.045l-.025.034a1.038,1.038,0,0,0-.493.313q-.921.934-1.854,1.856a1.905,1.905,0,0,0-.28.344.43.43,0,0,1-.336-.039c-.176-.079-.169-.2-.071-.335a1.6,1.6,0,0,1,.18-.2q.894-.895,1.788-1.789a1.01,1.01,0,0,1,.307-.23" transform="translate(-180.956 -99.777)" fill="#fe5474"/>
    <path id="Path_563" data-name="Path 563" d="M169.156,111.484c0-.14.11-.205.192-.287q1.146-1.151,2.3-2.3c.082-.082.2-.146.2-.283h.537c.025.158-.105.226-.191.312q-.963.972-1.934,1.937a1.66,1.66,0,0,0-.3.368,1.369,1.369,0,0,1-.8.253" transform="translate(-155.639 -99.936)" fill="#fe666d"/>
    <path id="Path_564" data-name="Path 564" d="M108.608,172.511v-.479a.88.88,0,0,1,.173-.238c.78-.776,1.556-1.557,2.337-2.332.1-.1.2-.252.371-.108a1.953,1.953,0,0,1-.2.671,1.633,1.633,0,0,0-.366.3q-1,1-2,2c-.086.086-.154.216-.312.19" transform="translate(-99.929 -155.768)" fill="#fe666d"/>
    <path id="Path_565" data-name="Path 565" d="M114.5,221.117c-.022-.139.071-.218.156-.3q1.086-1.084,2.17-2.17c.085-.086.166-.174.3-.154s.21.091.161.24c-.113.007-.169.1-.238.167q-1.1,1.1-2.2,2.2c-.084.084-.184.157-.187.293a.607.607,0,0,1-.169-.27" transform="translate(-105.343 -201.028)" fill="#fe3f7c"/>
    <path id="Path_566" data-name="Path 566" d="M109.305,207.648a1.121,1.121,0,0,1-.124-.539l.013-.014a1.146,1.146,0,0,1,.193-.263c.684-.681,1.364-1.366,2.049-2.045.117-.116.239-.274.422-.082a.311.311,0,0,1,.052.294c-.69.67-1.363,1.358-2.046,2.036a5.151,5.151,0,0,0-.559.613" transform="translate(-100.456 -188.264)" fill="#fe4d77"/>
    <path id="Path_567" data-name="Path 567" d="M208.18,109.3a.348.348,0,0,0-.286.129q-1.062,1.067-2.128,2.13a.528.528,0,0,0-.166.308c-.15.1-.26.008-.37-.08-.084-.14-.015-.249.079-.344q1.063-1.079,2.142-2.143a1.266,1.266,0,0,1,.176-.11l.014-.013a1.118,1.118,0,0,1,.539.124" transform="translate(-188.796 -100.455)" fill="#fe4d77"/>
    <path id="Path_568" data-name="Path 568" d="M110.728,212.181a.33.33,0,0,1,.108-.264q1.147-1.141,2.29-2.288a.246.246,0,0,1,.181-.088c.14.059.207.148.12.3-.7.626-1.334,1.33-2.017,1.977-.2.187-.34.442-.62.535a.2.2,0,0,1-.061-.171" transform="translate(-101.88 -192.797)" fill="#fe4979"/>
    <path id="Path_569" data-name="Path 569" d="M108.608,180.67q1.165-1.152,2.33-2.3c.089-.087.156-.215.312-.2,0,.27.115.559-.129.788-.027-.092.045-.233-.055-.273-.12-.048-.177.1-.25.17q-1.107,1.086-2.207,2.179v-.359" transform="translate(-99.929 -163.926)" fill="#fe626f"/>
    <path id="Path_570" data-name="Path 570" d="M178.915,111.2c-.013-.156.114-.224.2-.313q1.12-1.137,2.244-2.27h.359q-1.033,1.045-2.065,2.091c-.088.089-.2.161-.223.322.081.062.185.017.274.04a.8.8,0,0,1-.79.13" transform="translate(-164.617 -99.936)" fill="#fe626f"/>
    <path id="Path_571" data-name="Path 571" d="M111.16,191.436c-.1-.247-.213-.1-.313,0-.583.58-1.162,1.163-1.745,1.743-.161.16-.329.313-.494.47q0-.239,0-.477a.674.674,0,0,0,.392-.248q.934-.936,1.87-1.87c.077-.076.163-.143.244-.214.107.192.2.386.046.6" transform="translate(-99.929 -175.588)" fill="#fe5972"/>
    <path id="Path_572" data-name="Path 572" d="M194.334,108.616c-.706.714-1.414,1.426-2.115,2.146-.085.087-.291.171-.1.348-.193.151-.367.07-.538-.045.655-.731,1.38-1.393,2.064-2.1a1.111,1.111,0,0,0,.266-.352h.419" transform="translate(-176.275 -99.936)" fill="#fe5972"/>
    <path id="Path_573" data-name="Path 573" d="M114.019,112.033a.633.633,0,0,1-.183.3q-.755.751-1.507,1.507a.636.636,0,0,1-.3.183,3.4,3.4,0,0,1,1.987-1.988" transform="translate(-103.079 -103.08)" fill="#fd9954"/>
    <path id="Path_574" data-name="Path 574" d="M111.481,164.449c-.167-.03-.252.091-.349.189q-1.141,1.14-2.281,2.28c-.077.077-.162.146-.243.219q0-.119,0-.238c.137-.006.2-.12.283-.2q1.267-1.262,2.531-2.527c.088-.087.157-.216.314-.193a.44.44,0,0,1-.255.472" transform="translate(-99.929 -150.871)" fill="#fe6a6c"/>
    <path id="Path_575" data-name="Path 575" d="M252.456,119.765a1.547,1.547,0,0,1,.462.466,1.143,1.143,0,0,1-.562.512,1.116,1.116,0,0,1-.443-.449c.1-.259.2-.517.543-.53" transform="translate(-231.782 -110.195)" fill="#fd3482"/>
    <path id="Path_576" data-name="Path 576" d="M256.887,126.109l.572-.509a1.149,1.149,0,0,1,.282.414l-.79.732a.813.813,0,0,1-.064-.637" transform="translate(-236.325 -115.563)" fill="#f93285"/>
    <path id="Path_577" data-name="Path 577" d="M246.21,115.453c-.259.089-.365.33-.52.523-.138.062-.225-.01-.3-.115-.064-.085-.173-.023-.266-.086.1-.3.427-.43.572-.7.153.15.4.171.513.375" transform="translate(-225.537 -105.882)" fill="#fe3a7f"/>
    <path id="Path_578" data-name="Path 578" d="M147.265,273.869c.1.007.217-.041.31.045a.471.471,0,0,1-.31-.045" transform="translate(-135.497 -251.977)" fill="#e73290"/>
    <path id="Path_579" data-name="Path 579" d="M140.345,141.7l.255-.472a3.916,3.916,0,0,1,1.71-1.557l.781-.286.79-.13.222-.005.538.045.357.062c.1-.066.17,0,.241.061a.911.911,0,0,0,.359.121l.418.189.36.222c.2.015.3.174.446.273.159.166.326.323.484.489.091.147.233.267.252.454l.26.472.185.478.123.478a6.467,6.467,0,0,1,.055,1.257l-.012.178-.129.578-.433.969a4.746,4.746,0,0,1-1.772,1.613,9.579,9.579,0,0,1-1.149.362l-.223.017a5.992,5.992,0,0,1-1.2-.059l-.419-.114-.6-.243-.419-.237-.477-.377-.35-.358-.268-.355-.161-.24a1.525,1.525,0,0,0-.234-.419.466.466,0,0,0-.12-.3.649.649,0,0,0-.076-.3c-.037-.118-.222-.2-.1-.358l-.02-.237q-.023-.3-.046-.6l.006-.224c.109-.252,0-.54.129-.788a2.609,2.609,0,0,1,.231-.66" transform="translate(-128.793 -128.123)" fill="#fefefe"/>
    <path id="Path_580" data-name="Path 580" d="M234.186,124.877l.3.115a1.613,1.613,0,0,1,.409.452,1.809,1.809,0,0,1,.064.637,1.139,1.139,0,0,1-.842.773c-.149.135-.3.045-.45,0a1.112,1.112,0,0,1-.611-.535c-.054-.171-.178-.335-.06-.526.215-.726.463-.918,1.19-.92" transform="translate(-214.332 -114.898)" fill="#fefefe"/>
    <path id="Path_581" data-name="Path 581" d="M232.013,148.916l.47.054c.046.029.039.065.006.1-.345.328-.65.7-1.026.991l-.291-.413c.077-.335.573-.764.842-.729" transform="translate(-212.698 -137.014)" fill="#f93285"/>
    <path id="Path_582" data-name="Path 582" d="M221.11,134.608l.114.524a4.367,4.367,0,0,1-.779.721l-.417-.317a5.673,5.673,0,0,1,.984-1.043c.124-.123.063.073.1.114" transform="translate(-202.445 -123.71)" fill="#fe3c7e"/>
    <path id="Path_583" data-name="Path 583" d="M111.8,201.29l.1.358c-.144-.106-.214.02-.293.1q-1.039,1.036-2.077,2.075c-.076.076-.162.142-.243.213a.424.424,0,0,1,.11-.382c.772-.763,1.537-1.532,2.305-2.3a.585.585,0,0,1,.1-.065" transform="translate(-100.551 -185.205)" fill="#fe5176"/>
    <path id="Path_584" data-name="Path 584" d="M202.736,111.814l-.241-.06c-.078-.128.041-.177.1-.24.7-.7,1.4-1.4,2.1-2.106a.447.447,0,0,1,.423-.15c-.7.776-1.475,1.486-2.205,2.236-.089.091-.2.168-.18.321" transform="translate(-186.29 -100.519)" fill="#fe5176"/>
    <path id="Path_585" data-name="Path 585" d="M173.5,170.588a1.283,1.283,0,0,1,.3.479c.035.073-.023.108-.064.148-1.111,1.084-2.2,2.195-3.3,3.286-.091.09-.169.24-.345.158a1.008,1.008,0,0,1-.436-.291q1.826-1.825,3.652-3.65a.351.351,0,0,1,.2-.129" transform="translate(-156.094 -156.956)" fill="#f93284"/>
    <path id="Path_586" data-name="Path 586" d="M183.536,185.966a.671.671,0,0,1-.4-.06c-.051-.127.031-.214.1-.288,1-1,1.983-2.015,3-2.993a.308.308,0,0,1,.126-.078,1.615,1.615,0,0,1,.107.785.5.5,0,0,1-.155.245q-1.119,1.09-2.209,2.209a.525.525,0,0,1-.576.18" transform="translate(-168.486 -167.96)" fill="#f0328a"/>
    <path id="Path_587" data-name="Path 587" d="M179,177.055c-.035.164-.193.218-.293.32q-1.332,1.348-2.678,2.682a1.027,1.027,0,0,0-.262.357,1.392,1.392,0,0,1-.656-.245c.138,0,.2-.115.285-.2q1.519-1.515,3.035-3.032c.126-.125.26-.242.39-.363a.957.957,0,0,1,.179.477" transform="translate(-161.119 -162.468)" fill="#f53287"/>
    <path id="Path_588" data-name="Path 588" d="M170.6,166.957c-.134.145-.264.294-.4.434q-1.565,1.569-3.133,3.134c-.089.089-.163.205-.311.211a.444.444,0,0,1-.218-.193c-.084-.116.01-.19.075-.255q1.779-1.792,3.571-3.572a.315.315,0,0,1,.129-.073.927.927,0,0,1,.292.315" transform="translate(-153.196 -153.326)" fill="#fd3282"/>
    <path id="Path_589" data-name="Path 589" d="M157.46,161.924a1.938,1.938,0,0,1-.168-.482c.557-.606,1.158-1.169,1.736-1.756.4-.4.8-.8,1.2-1.2.112-.111.221-.239.409-.156a.634.634,0,0,1,.364.116c-.027.126-.131.2-.214.278q-1.47,1.473-2.943,2.943c-.11.109-.2.251-.383.257" transform="translate(-144.723 -145.654)" fill="#fe447a"/>
    <path id="Path_590" data-name="Path 590" d="M159.389,163.564q1.415-1.4,2.832-2.8a6.171,6.171,0,0,1,.708-.676.749.749,0,0,1,.364.176.471.471,0,0,1-.173.236q-1.623,1.626-3.251,3.249c-.085.085-.153.219-.314.178a.686.686,0,0,1-.166-.362" transform="translate(-146.652 -147.294)" fill="#fe3f7c"/>
    <path id="Path_591" data-name="Path 591" d="M161.466,165.959c.09-.077.185-.148.268-.232q1.6-1.6,3.2-3.2c.084-.083.178-.155.268-.233a.816.816,0,0,1,.353.244c-1.071,1.024-2.089,2.1-3.153,3.131a6.659,6.659,0,0,1-.69.655.817.817,0,0,1-.248-.368" transform="translate(-148.563 -149.327)" fill="#fe397e"/>
    <path id="Path_592" data-name="Path 592" d="M164.565,169.14c.073-.234.289-.348.446-.506,1.044-1.05,2.1-2.088,3.151-3.13.07-.07.134-.151.247-.151l.118.1a.866.866,0,0,1-.23.27q-1.672,1.675-3.345,3.348c-.081.082-.2.144-.2.283a.435.435,0,0,1-.188-.217" transform="translate(-151.414 -152.141)" fill="#fe3680"/>
    <path id="Path_593" data-name="Path 593" d="M188.329,195a.6.6,0,0,0,.532-.237c.793-.809,1.6-1.6,2.409-2.4a1.753,1.753,0,0,1-.158.838c-.567.551-1.114,1.123-1.685,1.67a1.852,1.852,0,0,1-1.1.126" transform="translate(-173.279 -176.994)" fill="#ec328d"/>
    <path id="Path_594" data-name="Path 594" d="M157.032,160.2a1.5,1.5,0,0,1,0-.479.87.87,0,0,1,.208-.286q.947-.944,1.891-1.892a1.434,1.434,0,0,1,.283-.212.873.873,0,0,1,.553-.009c-.023.117-.119.181-.194.258q-1.214,1.217-2.432,2.43c-.087.086-.154.218-.314.191" transform="translate(-144.468 -144.709)" fill="#fe4c77"/>
    <path id="Path_595" data-name="Path 595" d="M157.231,160.678q1.325-1.312,2.65-2.623c.091-.09.193-.17.289-.255a.735.735,0,0,1,.409.067c-.164-.021-.25.1-.347.194q-1.357,1.357-2.716,2.714c-.082.082-.145.195-.281.2l0-.3" transform="translate(-144.667 -145.19)" fill="#fe4979"/>
    <path id="Path_596" data-name="Path 596" d="M159.668,157.893c-.768.823-1.571,1.611-2.382,2.39a1.254,1.254,0,0,1,.118-.536c.559-.594,1.145-1.162,1.726-1.734a1.036,1.036,0,0,1,.538-.12" transform="translate(-144.717 -145.274)" fill="#fe5176"/>
    <path id="Path_597" data-name="Path 597" d="M225.243,143.669a2.7,2.7,0,0,1,.779-.721,1.507,1.507,0,0,0,.537.479c-.216-.022-.3.161-.423.279a2.281,2.281,0,0,0-.419.45l-.474-.487" transform="translate(-207.244 -131.525)" fill="#fd3482"/>
    <path id="Path_598" data-name="Path 598" d="M160.495,159.406c0,.01,0,.023,0,.029a11.59,11.59,0,0,1-1.722,1.705,2.534,2.534,0,0,1,1.726-1.734" transform="translate(-146.082 -146.668)" fill="#fe5575"/>
    <path id="Path_599" data-name="Path 599" d="M202.06,204.52a.226.226,0,0,1,.07-.159l1.431-1.432a.225.225,0,0,1,.184-.08,2.481,2.481,0,0,1-1.685,1.67" transform="translate(-185.913 -186.639)" fill="#e8338f"/>
  </g>
</svg>
