<svg id="Group_470" data-name="Group 470" xmlns="http://www.w3.org/2000/svg" xmlns:xlink="http://www.w3.org/1999/xlink" width="60.16" height="60.143" viewBox="0 0 60.16 60.143">
  <defs>
    <clipPath id="clip-path">
      <rect id="Rectangle_265" data-name="Rectangle 265" width="60.16" height="60.143" fill="#fff"/>
    </clipPath>
  </defs>
  <g id="Group_469" data-name="Group 469" clip-path="url(#clip-path)">
    <path id="Path_997" data-name="Path 997" d="M0,111.553a2.545,2.545,0,0,1,1.715-1.62q8.938-3.551,17.86-7.143a2.753,2.753,0,0,1,2.2,0c3.548,1.445,7.111,2.855,10.665,4.284a1.89,1.89,0,1,1-1.377,3.5c-2.635-1.045-5.264-2.1-7.9-3.155-.177-.071-.358-.133-.612-.227v.679q0,14.217-.013,28.433a.827.827,0,0,0,.643.915c4.6,1.816,9.189,3.661,13.781,5.5.179.072.36.14.63.244v-.725q0-9.311,0-18.623a4.228,4.228,0,0,1,.035-.761,1.873,1.873,0,0,1,3.705.14,6.134,6.134,0,0,1,.017.7q0,9.282,0,18.564v.707c.879-.347,1.693-.665,2.5-.989,3.993-1.6,7.982-3.2,11.982-4.782a.756.756,0,0,0,.564-.851c-.016-6.795-.006-13.59-.016-20.385a1.965,1.965,0,0,1,1.09-1.978,1.865,1.865,0,0,1,2.658,1.507,5.9,5.9,0,0,1,.015.646q0,10.78,0,21.56a2.127,2.127,0,0,1-1.672,2.482q-8.983,3.6-17.963,7.2a2.637,2.637,0,0,1-2.095,0c-5.711-2.3-11.431-4.581-17.142-6.883a1.5,1.5,0,0,0-1.222,0q-8.459,3.406-16.928,6.784c-1.612.645-2.258.427-3.137-1.049Zm3.76,31.388c.233-.086.414-.148.59-.218,4.628-1.849,9.254-3.706,13.889-5.537a.756.756,0,0,0,.573-.844q-.023-14.273-.013-28.547c0-.186-.017-.371-.029-.609-.233.089-.413.154-.591.225-4.609,1.844-9.215,3.7-13.832,5.52a.794.794,0,0,0-.6.884q.023,14.244.011,28.488Z" transform="translate(0 -87.465)" fill="#fff"/>
    <path id="Path_998" data-name="Path 998" d="M244.449,0c1.207.307,2.45.516,3.614.94a13.094,13.094,0,0,1,8.359,12.2,14.076,14.076,0,0,1-1.8,6.078,64.693,64.693,0,0,1-8.493,12.284c-.465.555-.924,1.117-1.414,1.65a1.836,1.836,0,0,1-2.879,0,69.256,69.256,0,0,1-9.881-13.88,14.9,14.9,0,0,1-1.745-5.2,12.133,12.133,0,0,1,2.285-8.419,12.86,12.86,0,0,1,9.215-5.55A2.9,2.9,0,0,0,242.1,0Zm-1.184,29.111a62.23,62.23,0,0,0,8.427-12.467,8.013,8.013,0,0,0,.969-3.828A9.4,9.4,0,0,0,238,5.383a8.893,8.893,0,0,0-3.029,11.578,64.114,64.114,0,0,0,5.487,8.589c.892,1.182,1.831,2.33,2.8,3.561" transform="translate(-196.273)" fill="#fff"/>
    <path id="Path_999" data-name="Path 999" d="M286.693,62.4a5.636,5.636,0,1,1,5.656-5.63,5.693,5.693,0,0,1-5.656,5.63m1.9-5.661a1.876,1.876,0,1,0-1.837,1.9,1.888,1.888,0,0,0,1.837-1.9" transform="translate(-239.713 -43.601)" fill="#fff"/>
  </g>
</svg>
