<svg xmlns="http://www.w3.org/2000/svg" width="10.041" height="17.199" viewBox="0 0 10.041 17.199">
  <path id="Path_673" data-name="Path 673" d="M159.832,110.863c-.139-.146-.221-.236-.307-.321q-2.873-2.874-5.746-5.747a1.443,1.443,0,0,1-.361-1.821,1.415,1.415,0,0,1,2.106-.456,3.515,3.515,0,0,1,.347.316q3.4,3.394,6.793,6.79a1.49,1.49,0,0,1-.009,2.413q-3.419,3.419-6.84,6.837a1.445,1.445,0,0,1-2.043.227,1.409,1.409,0,0,1-.249-1.954,3.671,3.671,0,0,1,.338-.372q2.812-2.815,5.628-5.627c.095-.095.207-.172.343-.284" transform="translate(-153.234 -102.227)" fill="#fff"/>
</svg>
