<svg xmlns="http://www.w3.org/2000/svg" xmlns:xlink="http://www.w3.org/1999/xlink" width="64" height="52.083" viewBox="0 0 64 52.083">
  <defs>
    <clipPath id="clip-path">
      <rect id="Rectangle_249" data-name="Rectangle 249" width="64" height="52.083" fill="#fff"/>
    </clipPath>
  </defs>
  <g id="Group_450" data-name="Group 450" clip-path="url(#clip-path)">
    <path id="Path_985" data-name="Path 985" d="M64,19.049a5.96,5.96,0,0,1-1.971,3.512,5.1,5.1,0,0,1-3.137,1.231c-1.541.039-3.083.022-4.625.029-.249,0-.5,0-.846,0,.1.263.168.468.253.666,1.411,3.287,2.884,6.549,4.215,9.868a18.716,18.716,0,0,1,1.224,6.85,39.145,39.145,0,0,1-.133,5.3,6.613,6.613,0,0,1-6.321,5.553c-1.562.041-3.125.018-4.688.018q-18,0-36.007,0a6.776,6.776,0,0,1-6.754-4.65,5.031,5.031,0,0,1-.319-1.457c-.047-2.955-.26-5.933.458-8.835A37.61,37.61,0,0,1,6.979,32.1c1.035-2.564,2.212-5.071,3.328-7.6.082-.187.154-.378.257-.635-.231-.017-.406-.041-.58-.041-1.458,0-2.917.012-4.376-.005a5.4,5.4,0,0,1-5.6-5.9C.446,10.253,4.194,4.785,11.126,1.527A15.006,15.006,0,0,1,17.472.065c9.481-.034,18.963-.127,28.442,0A18.133,18.133,0,0,1,63.482,14.174c.245.982.349,2,.518,3ZM31.966,47.906q10,0,20,0a2.683,2.683,0,0,0,2.983-2.972c.007-.937.01-1.875,0-2.812a18.126,18.126,0,0,0-1.208-6.907c-1.514-3.6-3.111-7.173-4.653-10.765a1.1,1.1,0,0,0-.929-.748,4.813,4.813,0,0,1-3.5-2.553,7.228,7.228,0,0,1-.619-3.707c0-1.533-.484-2.016-2.018-2.016H21.958c-.167,0-.334-.008-.5.005a1.485,1.485,0,0,0-1.5,1.52c-.029.5-.007,1-.013,1.5a5.113,5.113,0,0,1-4.365,5.337A.99.99,0,0,0,15,24.3c-1.423,3.168-2.877,6.325-4.2,9.534a19.31,19.31,0,0,0-1.388,4.64,52.631,52.631,0,0,0-.335,6.659,3.517,3.517,0,0,0,.632,1.83,2.551,2.551,0,0,0,2.327.95q9.968-.008,19.936,0M5.3,12.907a3.034,3.034,0,0,0,.339.049c3.792,0,7.584.007,11.376-.006a1,1,0,0,0,.607-.234,5.933,5.933,0,0,1,4.131-1.481h20.5a6.029,6.029,0,0,1,4.083,1.45,1.394,1.394,0,0,0,.844.264c3.6.017,7.209.012,10.813.01.2,0,.4-.017.593-.026.012-.091.033-.137.02-.171a4.523,4.523,0,0,0-.2-.458C55.7,7.058,51.375,4.276,45.479,4.219,36.5,4.131,27.52,4.187,18.54,4.2A14.05,14.05,0,0,0,8.99,7.772,13.869,13.869,0,0,0,5.3,12.907M4.248,17.2c-.014.284-.035.585-.044.886-.033,1.046.427,1.555,1.475,1.559q4.493.019,8.986,0c.762,0,1.062-.32,1.077-1.062.009-.452,0-.9,0-1.383Zm44,0c0,.467,0,.862,0,1.257.007.9.287,1.189,1.2,1.19q4.368.008,8.737,0c1.2,0,1.644-.479,1.594-1.687-.01-.244-.03-.488-.048-.76Z" transform="translate(0 0)" fill="#fff"/>
    <path id="Path_986" data-name="Path 986" d="M145.15,151.1a2.306,2.306,0,0,1,2.295,2.307,2.352,2.352,0,0,1-2.306,2.316,2.329,2.329,0,0,1-2.317-2.359,2.287,2.287,0,0,1,2.328-2.265" transform="translate(-120.457 -127.436)" fill="#fff"/>
    <path id="Path_987" data-name="Path 987" d="M238.6,151.095a2.289,2.289,0,0,1,2.3,2.294,2.312,2.312,0,1,1-2.3-2.294" transform="translate(-199.278 -127.435)" fill="#fff"/>
    <path id="Path_988" data-name="Path 988" d="M191.876,200.62a2.3,2.3,0,0,1-2.323-2.274,2.312,2.312,0,1,1,4.623-.024,2.3,2.3,0,0,1-2.3,2.3" transform="translate(-159.87 -165.307)" fill="#fff"/>
    <path id="Path_989" data-name="Path 989" d="M145.08,200.613a2.288,2.288,0,0,1-2.265-2.329,2.312,2.312,0,1,1,4.623.087,2.3,2.3,0,0,1-2.358,2.242" transform="translate(-120.452 -165.3)" fill="#fff"/>
    <path id="Path_990" data-name="Path 990" d="M238.6,200.62a2.3,2.3,0,0,1-2.321-2.282,2.312,2.312,0,1,1,4.623-.01,2.288,2.288,0,0,1-2.3,2.292" transform="translate(-199.276 -165.305)" fill="#fff"/>
    <path id="Path_991" data-name="Path 991" d="M191.856,151.1a2.3,2.3,0,0,1,2.316,2.282,2.311,2.311,0,1,1-4.622.009,2.3,2.3,0,0,1,2.307-2.291" transform="translate(-159.867 -127.44)" fill="#fff"/>
    <path id="Path_992" data-name="Path 992" d="M147.443,243.429a2.312,2.312,0,0,1-4.623.054,2.312,2.312,0,1,1,4.623-.054" transform="translate(-120.455 -203.378)" fill="#fff"/>
    <path id="Path_993" data-name="Path 993" d="M236.277,243.421a2.312,2.312,0,1,1,2.278,2.338,2.336,2.336,0,0,1-2.278-2.338" transform="translate(-199.279 -203.382)" fill="#fff"/>
    <path id="Path_994" data-name="Path 994" d="M194.175,243.454a2.311,2.311,0,1,1-4.621-.035,2.311,2.311,0,0,1,4.621.035" transform="translate(-159.872 -203.39)" fill="#fff"/>
  </g>
</svg>
