<svg id="Group_176" data-name="Group 176" xmlns="http://www.w3.org/2000/svg" xmlns:xlink="http://www.w3.org/1999/xlink" width="57.019" height="51.685" viewBox="0 0 57.019 51.685">
  <defs>
    <clipPath id="clip-path">
      <rect id="Rectangle_142" data-name="Rectangle 142" width="57.019" height="51.685" fill="none"/>
    </clipPath>
  </defs>
  <g id="Group_174" data-name="Group 174" clip-path="url(#clip-path)">
    <path id="Path_763" data-name="Path 763" d="M6.983,51.717,1.125,45.869a3.625,3.625,0,0,0,.6-.407q6.964-6.945,13.925-13.892a1.758,1.758,0,0,0,.627-1.55,14.071,14.071,0,0,1-.01-1.459H0V.074H24.416v.65q0,16.486-.014,32.972a1.456,1.456,0,0,1-.339.944q-8.349,8.4-16.734,16.755c-.118.118-.245.229-.346.322" transform="translate(0 -0.059)"/>
    <path id="Path_764" data-name="Path 764" d="M167.669,51.685,161.8,45.792a2.876,2.876,0,0,0,.621-.376q6.966-6.943,13.925-13.892a1.732,1.732,0,0,0,.645-1.542,12.56,12.56,0,0,1-.011-1.465H160.72V0h24.409V.707q0,16.454-.014,32.908a1.463,1.463,0,0,1-.325.95Q176.4,43.007,167.966,51.41c-.089.089-.184.171-.3.275" transform="translate(-128.11)"/>
  </g>
</svg>
