<svg id="Group_1448" data-name="Group 1448" xmlns="http://www.w3.org/2000/svg" xmlns:xlink="http://www.w3.org/1999/xlink" width="38.81" height="28.949" viewBox="0 0 38.81 28.949">
  <defs>
    <clipPath id="clip-path">
      <rect id="Rectangle_908" data-name="Rectangle 908" width="38.81" height="28.949" fill="#fff"/>
    </clipPath>
  </defs>
  <g id="Group_1447" data-name="Group 1447" clip-path="url(#clip-path)">
    <path id="Path_1747" data-name="Path 1747" d="M20.524,17.321a16.1,16.1,0,0,0-.186,3.619c.027,1.668.056,3.337.067,5.005a.694.694,0,0,0,.316.644,1.931,1.931,0,0,1,.881,1.882.474.474,0,0,1-.542.478c-.822-.008-1.643,0-2.465,0-.413,0-.529-.121-.53-.542,0-1.878,0-3.756-.007-5.634a2.033,2.033,0,0,0-.13-.677,6.135,6.135,0,0,1-.309-4.35,2.708,2.708,0,0,0,.048-2.068,2.934,2.934,0,0,1-.1-.494,9.477,9.477,0,0,1-8.387.53c-.535.675-1.06,1.332-1.577,2a.358.358,0,0,0-.06.247q.568,3.727,1.148,7.452c.016.1.057.2.077.3a.982.982,0,0,0,.632.809,3.515,3.515,0,0,1,.766.531,1.5,1.5,0,0,1,.438,1.567.542.542,0,0,1-.41.317c-1.017.028-2.034.017-3.052.013-.288,0-.39-.186-.443-.449-.324-1.582-.64-3.166-1-4.739A21.574,21.574,0,0,0,5,21.4,14.463,14.463,0,0,0,4.32,20c-.269-.56-.528-1.126-.828-1.767-.153.682-.321,1.322-.44,1.972a27.8,27.8,0,0,0-.242,5.188.5.5,0,0,0,.157.323,3.1,3.1,0,0,1,1.008,2.821.405.405,0,0,1-.435.406c-.887,0-1.774.006-2.661,0-.339,0-.427-.226-.426-.528,0-1.5.007-3,0-4.5a2.8,2.8,0,0,0-.106-.727,6.506,6.506,0,0,1,.236-4.8,2.142,2.142,0,0,0,.1-1.659,14.5,14.5,0,0,1-.591-4.75,3.461,3.461,0,0,1,.351-1.307A8.947,8.947,0,0,1,3.265,7.182,7.2,7.2,0,0,0,5.241,4.8,8.331,8.331,0,0,1,11.334.42a5.235,5.235,0,0,1,3.291.635,13.764,13.764,0,0,1,2,1.282A6.17,6.17,0,0,0,19.592,3.53a2.726,2.726,0,0,1,1.2.5c.953.7,1.849,1.486,2.788,2.211a7.85,7.85,0,0,0,1.374.889,2.911,2.911,0,0,0,1.2.272,1.22,1.22,0,0,0,1.4-1.174,8.439,8.439,0,0,1,1.605-3.606,1.684,1.684,0,0,0,.323-.583c-.152-.527-.32-1.051-.45-1.584A.34.34,0,0,1,29.373,0a18.174,18.174,0,0,1,2.761.158,9.5,9.5,0,0,1,1.849.79,1.632,1.632,0,0,0,.713.2,5.57,5.57,0,0,1,3.741,1.114.725.725,0,0,1,.37.712c-.023.311,0,.626-.008.939a1.133,1.133,0,0,1-1.133,1.157c-.1.006-.209.006-.313,0a5.148,5.148,0,0,0-2.538.416,8.81,8.81,0,0,1-1.921.456c-.1.464-.175,1-.318,1.525A7.474,7.474,0,0,1,26.9,12.889a14.555,14.555,0,0,1-1.687.32c-.212.033-.307.089-.349.319a30.489,30.489,0,0,0-.376,8.877,12.166,12.166,0,0,0,.749,3.344,2.374,2.374,0,0,0,.891,1.194,1.483,1.483,0,0,1,.5,1.712.556.556,0,0,1-.41.277c-.873.026-1.747.012-2.621.013-.309,0-.429-.183-.48-.459-.352-1.895-.753-3.782-1.051-5.685-.228-1.452-.325-2.925-.487-4.388a.454.454,0,0,0-.115-.267c-.294-.272-.6-.529-.947-.826" transform="translate(0 0)" fill="#fff"/>
  </g>
</svg>
