<svg id="Group_1418" data-name="Group 1418" xmlns="http://www.w3.org/2000/svg" xmlns:xlink="http://www.w3.org/1999/xlink" width="13.812" height="11.866" viewBox="0 0 13.812 11.866">
  <defs>
    <clipPath id="clip-path">
      <rect id="Rectangle_906" data-name="Rectangle 906" width="13.812" height="11.866" fill="#d69a5e"/>
    </clipPath>
  </defs>
  <g id="Group_1417" data-name="Group 1417" clip-path="url(#clip-path)">
    <path id="Path_1745" data-name="Path 1745" d="M13.812,5.8a1.452,1.452,0,0,0-.466-.752Q10.991,2.7,8.644.338A.993.993,0,0,0,7.511.083a.987.987,0,0,0-.357,1.531c.051.063.108.121.165.178Q8.429,2.905,9.54,4.017a3.208,3.208,0,0,0,1.146.9l-.009.035h-.151q-4.706,0-9.412,0a1.054,1.054,0,0,0-.822.3A.926.926,0,0,0,.068,6.266a.987.987,0,0,0,.878.658,2.332,2.332,0,0,0,.242.006h9.487c-.212.145-.427.287-.635.437a1.839,1.839,0,0,0-.216.2Q8.553,8.848,7.282,10.125a1.031,1.031,0,0,0-.314,1.056.958.958,0,0,0,1.5.485,2.232,2.232,0,0,0,.2-.18Q11,9.151,13.336,6.816a1.515,1.515,0,0,0,.476-.749Z" transform="translate(0 0)" fill="#d69a5e"/>
  </g>
</svg>
