<svg xmlns="http://www.w3.org/2000/svg" xmlns:xlink="http://www.w3.org/1999/xlink" width="22.335" height="23.146" viewBox="0 0 22.335 23.146">
  <defs>
    <clipPath id="clip-path">
      <rect id="Rectangle_984" data-name="Rectangle 984" width="22.335" height="23.146" fill="#fff"/>
    </clipPath>
  </defs>
  <g id="Group_1731" data-name="Group 1731" clip-path="url(#clip-path)">
    <path id="Path_2448" data-name="Path 2448" d="M20.893,23.146A2.086,2.086,0,0,1,20,22.521q-2.571-2.686-5.152-5.362a1.753,1.753,0,0,1-.126-.165,9.239,9.239,0,0,1-7.8,1.368A8.99,8.99,0,0,1,1.54,14.467a9.341,9.341,0,1,1,14.967.894L18.4,17.33c1.17,1.216,2.322,2.45,3.516,3.643a1.242,1.242,0,0,1-.533,2.148c-.013,0-.025.016-.037.025Zm-11.54-6.9A6.907,6.907,0,1,0,2.441,9.364a6.909,6.909,0,0,0,6.912,6.887" transform="translate(0 0)" fill="#fff"/>
  </g>
</svg>
