<svg xmlns="http://www.w3.org/2000/svg" xmlns:xlink="http://www.w3.org/1999/xlink" width="69.604" height="69.602" viewBox="0 0 69.604 69.602">
  <defs>
    <clipPath id="clip-path">
      <rect id="Rectangle_266" data-name="Rectangle 266" width="69.604" height="69.602" fill="#fff"/>
    </clipPath>
  </defs>
  <g id="Group_471" data-name="Group 471" clip-path="url(#clip-path)">
    <path id="Path_1000" data-name="Path 1000" d="M30.042,69.6H3.942a20.068,20.068,0,0,1-2.359-1.253A4.919,4.919,0,0,1,0,65.659V42.278c.029-.033.073-.062.085-.1.824-2.686,2.38-3.842,5.18-3.842H24.7V29.908h-.7c-2.264,0-4.527.021-6.79-.014a2.126,2.126,0,0,0-1.518.559c-2.208,1.875-4.448,3.712-6.664,5.577a2.085,2.085,0,0,1-3.6-1.652c.022-1.29.007-2.58,0-3.871,0-.194-.024-.388-.039-.6-.29,0-.516.005-.742,0a4.752,4.752,0,0,1-4.4-3.252c-.078-.231-.167-.458-.25-.687V8.022c.029-.033.073-.062.085-.1C.911,5.231,2.464,4.08,5.27,4.08q9.582,0,19.164,0c.323,0,.621.07.823-.367A6.046,6.046,0,0,1,31.2,0Q47.14.008,63.075,0A6.128,6.128,0,0,1,69.6,6.5q0,6.388,0,12.776c0,7.384.011,14.769-.007,22.154a5.978,5.978,0,0,1-5.1,6.032,21.053,21.053,0,0,1-3.454.108,1.631,1.631,0,0,0-1.305.525c-2.29,2.323-4.607,4.619-6.913,6.926a2.059,2.059,0,0,1-3.61-1.506c.013-1.042,0-2.084,0-3.126V47.63H34.02v4.3c1.478,0,2.923.02,4.366-.007A2.123,2.123,0,0,1,40.573,53.1a2.145,2.145,0,0,1-.511,2.486c-1.537,1.814-2.994,3.7-4.59,5.46a5.07,5.07,0,0,0-1.537,3.972,4.47,4.47,0,0,1-3.142,4.317c-.251.088-.5.181-.751.271m23.245-20.88c.261-.239.425-.378.577-.529,1.3-1.3,2.6-2.587,3.889-3.894a2.505,2.505,0,0,1,1.938-.8c1.132.027,2.265.008,3.4.007,1.672,0,2.432-.768,2.432-2.459q0-17.258,0-34.515c0-1.683-.763-2.448-2.442-2.448h-31.8c-1.719,0-2.463.754-2.463,2.494q0,17.223,0,34.447c0,1.729.751,2.481,2.477,2.481q9.852,0,19.7,0a2.068,2.068,0,0,1,2.287,2.262c.005.942,0,1.884,0,2.957M9.515,30.313c1.6-1.33,3.077-2.548,4.538-3.79a2.786,2.786,0,0,1,1.92-.7c2.672.021,5.345.008,8.018.008h.693V8.158c-6.624,0-13.192,0-19.76,0-.6,0-.849.3-.849.888q.007,7.95,0,15.9c0,.635.3.9.919.889.793-.014,1.586-.012,2.378,0a2.046,2.046,0,0,1,2.14,2.135c.011.724,0,1.448,0,2.346M24.769,42.452a1.726,1.726,0,0,0-.25-.034q-9.784,0-19.568,0c-.673,0-.871.238-.871.992q0,10.565,0,21.131c0,.766.206.98.954.981q11.958,0,23.916,0c.748,0,1.046-.229.938-.977A6.25,6.25,0,0,1,32,58.84a34.621,34.621,0,0,0,2.383-2.834c-.913,0-1.676.017-2.438,0a2.028,2.028,0,0,1-2.033-2.032c-.023-.951-.005-1.9-.006-2.854,0-1.2,0-2.391,0-3.565-3.033-.884-4.181-2.031-5.137-5.1" transform="translate(0 0.001)" fill="#fff"/>
    <path id="Path_1001" data-name="Path 1001" d="M200.162,48.22c1.583,0,3.054,0,4.525,0a6.117,6.117,0,0,1,6.179,7.6Q209.754,61.1,208.6,66.365a6.116,6.116,0,0,1-6.12,4.961c-3.4.012-6.795,0-10.192.005a4.183,4.183,0,0,1-2.805-.852,7.789,7.789,0,0,0-6.179-1.9,1.955,1.955,0,0,1-2.162-2.15q-.01-8.018,0-16.035a2.043,2.043,0,0,1,2.167-2.175,5.883,5.883,0,0,1,.95.006,5.464,5.464,0,0,0,4.488-1.391,1.264,1.264,0,0,0,.556-1.073c-.019-2.038-.011-4.077-.007-6.115a2.11,2.11,0,0,1,2.314-2.312,7.946,7.946,0,0,1,6.531,2.385,7.284,7.284,0,0,1,2.017,4.909c.033,1.172.006,2.345.006,3.591m-14.92,16.312c.437,0,.8.031,1.158-.006a3.7,3.7,0,0,1,2.717.82,28.342,28.342,0,0,0,2.371,1.581,2.061,2.061,0,0,0,1,.31c3.283.023,6.567.017,9.85.012a2.1,2.1,0,0,0,2.3-1.848q1.114-5.207,2.219-10.416a2.041,2.041,0,0,0-2.153-2.686c-2.106-.007-4.212,0-6.318,0a2.078,2.078,0,0,1-2.3-2.317c0-1.744.018-3.488-.009-5.231a3.134,3.134,0,0,0-2.711-3.141c0,1.448,0,2.9,0,4.343a4.735,4.735,0,0,1-2.134,4.1c-.911.632-1.82,1.272-2.775,1.832a3.624,3.624,0,0,1-1.4.4,16.334,16.334,0,0,1-1.816.016Z" transform="translate(-148.24 -30.545)" fill="#fff"/>
    <path id="Path_1002" data-name="Path 1002" d="M50.676,253.44a5.885,5.885,0,0,1,7.971,8.6c-1.49,1.643-3.118,3.16-4.684,4.734-.576.578-1.145,1.162-1.733,1.727a2.045,2.045,0,0,1-3.122-.011c-2.058-2.043-4.118-4.084-6.149-6.153a5.885,5.885,0,0,1,7.481-9.041c.057.037.115.072.236.148m.048,10.771c1.635-1.631,3.267-3.228,4.861-4.862a1.75,1.75,0,0,0,.008-2.5,1.788,1.788,0,0,0-2.557-.022c-.285.257-.544.543-.823.808a2.051,2.051,0,0,1-3.071.009c-.327-.312-.63-.653-.979-.937a1.761,1.761,0,0,0-2.4.134,1.679,1.679,0,0,0-.135,2.34c1.649,1.7,3.366,3.335,5.1,5.035" transform="translate(-33.681 -206.403)" fill="#fff"/>
  </g>
</svg>
