<svg xmlns="http://www.w3.org/2000/svg" width="18.419" height="17.74" viewBox="0 0 18.419 17.74">
  <g id="Component_1_5" data-name="Component 1 – 5" transform="translate(0.5 0.5)">
    <g id="Group_60" data-name="Group 60">
      <g id="Group_61" data-name="Group 61">
        <path id="Path_313" data-name="Path 313" d="M12.6,10.65q.774,3.007,1.538,6.017a.309.309,0,0,1,0,.055.156.156,0,0,1-.048-.009L8.7,13.3,4.69,15.828l-1.442.912c.047-.192.085-.352.125-.51q.713-2.8,1.429-5.6a.2.2,0,0,0-.083-.243Q2.4,8.426.091,6.455C.07,6.437.051,6.418,0,6.37c.261-.019.488-.038.715-.053q2.733-.175,5.467-.345c.132-.008.154-.087.189-.175L8.631.133A.4.4,0,0,1,8.683.008c.022-.024.047.006.049.04Q9.345,1.581,9.96,3.113c.356.891.712,1.783,1.062,2.676a.253.253,0,0,0,.26.184c1.029.061,2.058.131,3.086.2.61.039,1.221.074,1.832.11.407.024.812.077,1.22.066v.034L13.283,9.885c-.2.168-.395.341-.6.5a.216.216,0,0,0-.082.261" transform="translate(0 0)" fill="#fce300" stroke="#707070" stroke-linejoin="round" stroke-width="1"/>
      </g>
    </g>
  </g>
</svg>
