<svg id="Group_114" data-name="Group 114" xmlns="http://www.w3.org/2000/svg" xmlns:xlink="http://www.w3.org/1999/xlink" width="147.023" height="29.729" viewBox="0 0 147.023 29.729">
  <defs>
    <clipPath id="clip-path">
      <rect id="Rectangle_76" data-name="Rectangle 76" width="147.023" height="29.729" fill="#d69a5e"/>
    </clipPath>
  </defs>
  <g id="Group_71" data-name="Group 71" transform="translate(0 0)" clip-path="url(#clip-path)">
    <path id="Path_346" data-name="Path 346" d="M52.014,16.369a25.2,25.2,0,0,0-3.236-.18,14.137,14.137,0,0,0-3.554.514,16.66,16.66,0,0,0-1.782.619l-.893.4-.977.389a23.854,23.854,0,0,1-4.009,1.139,26.174,26.174,0,0,1-3.941.418,33.156,33.156,0,0,1-6-.443,32.711,32.711,0,0,1-3.425-.733,6.913,6.913,0,0,1-1.99-.74,6.662,6.662,0,0,1,2.107-.279c.83-.035,1.961-.03,3.478.027s3.418.159,5.777.115a33.457,33.457,0,0,0,3.668-.3A26.363,26.363,0,0,0,41,16.471l.921-.289c.327-.115.651-.228.977-.34a16.772,16.772,0,0,1,2.011-.508,14.523,14.523,0,0,1,3.9-.17,23.733,23.733,0,0,1,3.308.564c.98.229,1.839.456,2.555.637,1.43.365,2.294.557,2.294.557s-.883-.065-2.353-.242l-2.6-.311" transform="translate(0 -5.046)" fill="#d69a5e"/>
    <path id="Path_347" data-name="Path 347" d="M.276,19.174c-.153,0-.276-.061-.276-.139S.123,18.9.276,18.9s.276.061.276.136-.125.139-.276.139" transform="translate(0 -8.344)" fill="#d69a5e"/>
    <path id="Path_348" data-name="Path 348" d="M.982,19.221c-.2,0-.367-.082-.367-.185s.164-.183.367-.183.368.083.368.183-.165.185-.368.185" transform="translate(0 -8.345)" fill="#d69a5e"/>
    <path id="Path_349" data-name="Path 349" d="M1.926,19.281c-.271,0-.49-.111-.49-.247s.219-.244.49-.244.49.109.49.244-.22.247-.49.247" transform="translate(0 -8.342)" fill="#d69a5e"/>
    <path id="Path_350" data-name="Path 350" d="M3.182,19.363c-.361,0-.654-.145-.654-.327s.293-.326.654-.326.654.146.654.326-.293.327-.654.327" transform="translate(0 -8.344)" fill="#d69a5e"/>
    <path id="Path_351" data-name="Path 351" d="M4.857,19.473c-.482,0-.872-.194-.872-.437s.39-.435.872-.435.871.195.871.435-.39.437-.871.437" transform="translate(0 -8.345)" fill="#d69a5e"/>
    <path id="Path_352" data-name="Path 352" d="M7.091,19.618c-.643,0-1.163-.26-1.163-.582s.52-.581,1.163-.581,1.163.261,1.163.581-.519.582-1.163.582" transform="translate(0 -8.344)" fill="#d69a5e"/>
    <path id="Path_353" data-name="Path 353" d="M10.069,19.812c-.856,0-1.55-.348-1.55-.776s.694-.775,1.55-.775,1.551.347,1.551.775-.695.776-1.551.776" transform="translate(0 -8.344)" fill="#d69a5e"/>
    <path id="Path_354" data-name="Path 354" d="M14.04,20.07c-1.142,0-2.066-.463-2.066-1.034S12.9,18,14.04,18s2.067.462,2.067,1.033-.924,1.034-2.067,1.034" transform="translate(0 -8.344)" fill="#d69a5e"/>
    <path id="Path_355" data-name="Path 355" d="M27.806,19.174c-.152,0-.276-.061-.276-.139s.124-.136.276-.136.275.061.275.136-.123.139-.275.139" transform="translate(0 -8.344)" fill="#d69a5e"/>
    <path id="Path_356" data-name="Path 356" d="M27.1,19.221c-.2,0-.368-.082-.368-.185s.165-.183.368-.183.368.083.368.183-.165.185-.368.185" transform="translate(0 -8.345)" fill="#d69a5e"/>
    <path id="Path_357" data-name="Path 357" d="M26.156,19.281c-.271,0-.49-.111-.49-.247s.219-.244.49-.244.49.109.49.244-.219.247-.49.247" transform="translate(0 -8.342)" fill="#d69a5e"/>
    <path id="Path_358" data-name="Path 358" d="M24.9,19.363c-.361,0-.654-.145-.654-.327s.293-.326.654-.326.654.146.654.326-.293.327-.654.327" transform="translate(0 -8.344)" fill="#d69a5e"/>
    <path id="Path_359" data-name="Path 359" d="M23.224,19.473c-.481,0-.872-.194-.872-.437s.391-.435.872-.435.873.195.873.435-.391.437-.873.437" transform="translate(0 -8.345)" fill="#d69a5e"/>
    <path id="Path_360" data-name="Path 360" d="M20.99,19.618c-.642,0-1.163-.26-1.163-.582s.521-.581,1.163-.581,1.163.261,1.163.581-.521.582-1.163.582" transform="translate(0 -8.344)" fill="#d69a5e"/>
    <path id="Path_361" data-name="Path 361" d="M18.012,19.812c-.856,0-1.551-.348-1.551-.776s.695-.775,1.551-.775,1.551.347,1.551.775-.7.776-1.551.776" transform="translate(0 -8.344)" fill="#d69a5e"/>
    <path id="Path_362" data-name="Path 362" d="M90.9,23.24l.434.095.476.051c.64.083,1.283.109,1.938.139a20.65,20.65,0,0,0,3.919-.3,19.42,19.42,0,0,0,3.7-1.206A16.2,16.2,0,0,1,97.9,24.012a24.86,24.86,0,0,1-3.981,1.274c-.685.139-1.376.283-2.071.371l-.521.077-.563.029c-.374.008-.763.055-1.137.026a20.645,20.645,0,0,1-4.275-.757,19.85,19.85,0,0,0-2.981-.595c-.241-.014-.479-.035-.718-.058-.251,0-.518-.008-.766,0a5.759,5.759,0,0,0-1.311.167,1.176,1.176,0,0,0-.525.236c.013.014,0,0,.007.008h-.005a.062.062,0,0,1-.009.027c-.02.006-.013.055-.034.073a.181.181,0,0,1-.033.035l.007,0a.1.1,0,0,0-.094.052.615.615,0,0,0,.019.264s0,.052.014.133a.427.427,0,0,0,.176.345.522.522,0,0,0,.074.054l.085.021c.063.013.138.04.221.052.153-.017.35-.008.553-.028a2.12,2.12,0,0,1,1.236.078,1.193,1.193,0,0,1,.552,1.208,3.112,3.112,0,0,1-.31.961,4,4,0,0,1-.372.492c-.07.082-.144.164-.222.243a2.9,2.9,0,0,1-.273.21,4.115,4.115,0,0,1-.608.368,6.99,6.99,0,0,1-.676.23,3.247,3.247,0,0,1-.66.1,2.882,2.882,0,0,1-.6,0,4.554,4.554,0,0,1-.871-.161l-.311-.11a4.932,4.932,0,0,1-2.451-2.064,4.852,4.852,0,0,1-.662-2.02c-.178.376-.3.584-.3.584s-.118-.208-.3-.584a4.825,4.825,0,0,1-.663,2.02,4.917,4.917,0,0,1-2.45,2.064l-.31.11a4.552,4.552,0,0,1-.872.161,2.872,2.872,0,0,1-.6,0,3.208,3.208,0,0,1-.659-.1,6.827,6.827,0,0,1-.677-.23,4.114,4.114,0,0,1-.608-.368,2.913,2.913,0,0,1-.274-.21c-.077-.079-.15-.161-.222-.243a4.213,4.213,0,0,1-.372-.492,3.082,3.082,0,0,1-.309-.961A1.191,1.191,0,0,1,65.75,25.9a2.12,2.12,0,0,1,1.236-.078c.2.02.4.011.553.028.083-.012.158-.039.22-.052l.085-.021a.428.428,0,0,0,.074-.054.421.421,0,0,0,.176-.345c.01-.081.015-.133.015-.133a.612.612,0,0,0,.018-.264.1.1,0,0,0-.092-.052l.007,0a.166.166,0,0,1-.035-.035c-.02-.018-.013-.067-.033-.073a.044.044,0,0,1-.009-.027,0,0,0,0,0-.006,0c.01-.009,0,.006.007-.008a1.167,1.167,0,0,0-.524-.236,5.785,5.785,0,0,0-1.312-.167c-.248-.013-.514-.008-.765,0-.239.023-.478.044-.718.058a19.789,19.789,0,0,0-2.98.595,20.664,20.664,0,0,1-4.277.757c-.374.029-.763-.018-1.137-.026l-.562-.029-.522-.077c-.695-.088-1.384-.232-2.071-.371a24.9,24.9,0,0,1-3.979-1.274,16.128,16.128,0,0,1-3.459-1.989,19.351,19.351,0,0,0,3.7,1.206,20.64,20.64,0,0,0,3.918.3c.654-.03,1.3-.056,1.937-.139l.478-.051.432-.095a8.589,8.589,0,0,0,.845-.2,17.685,17.685,0,0,0,3.3-1.564,17.371,17.371,0,0,1,3.4-1.513c.357-.095.719-.193,1.084-.289.364-.071.722-.134,1.1-.176a9.43,9.43,0,0,1,2.5.014,5.337,5.337,0,0,1,3.474,1.749,16.429,16.429,0,0,1-.376-3.42,18.263,18.263,0,0,1,2.053-8.105,18.256,18.256,0,0,1,2.054,8.105,16.293,16.293,0,0,1-.377,3.42,5.336,5.336,0,0,1,3.475-1.749,9.43,9.43,0,0,1,2.5-.014c.379.042.738.1,1.1.176.366.1.729.194,1.085.289a17.328,17.328,0,0,1,3.4,1.513,17.655,17.655,0,0,0,3.3,1.564,8.57,8.57,0,0,0,.844.2" transform="translate(0 -9.733)" fill="#d69a5e"/>
    <path id="Path_363" data-name="Path 363" d="M119.4,19.222a33.133,33.133,0,0,1-6,.443,26.133,26.133,0,0,1-3.94-.418,23.824,23.824,0,0,1-4.009-1.138l-.978-.39q-.448-.2-.893-.4a16.451,16.451,0,0,0-1.782-.62,14.089,14.089,0,0,0-3.553-.513,25.2,25.2,0,0,0-3.236.179l-2.605.311c-1.47.178-2.353.242-2.353.242s.864-.191,2.294-.556c.716-.181,1.576-.409,2.555-.637a23.716,23.716,0,0,1,3.309-.565,14.518,14.518,0,0,1,3.9.17,16.74,16.74,0,0,1,2.012.508l.976.34.921.289a26.456,26.456,0,0,0,3.769.838,33.685,33.685,0,0,0,3.668.3c2.357.044,4.259-.066,5.775-.116s2.65-.061,3.479-.027a6.652,6.652,0,0,1,2.107.279,6.9,6.9,0,0,1-1.989.741,33.174,33.174,0,0,1-3.426.732" transform="translate(0 -5.048)" fill="#d69a5e"/>
    <path id="Path_364" data-name="Path 364" d="M146.746,19.174c-.15,0-.274-.061-.274-.139s.124-.136.274-.136.277.061.277.136-.124.139-.277.139" transform="translate(0 -8.344)" fill="#d69a5e"/>
    <path id="Path_365" data-name="Path 365" d="M146.041,19.221c-.2,0-.368-.082-.368-.185s.165-.183.368-.183.368.083.368.183-.166.185-.368.185" transform="translate(0 -8.345)" fill="#d69a5e"/>
    <path id="Path_366" data-name="Path 366" d="M145.1,19.281c-.27,0-.49-.111-.49-.247s.22-.244.49-.244.49.109.49.244-.219.247-.49.247" transform="translate(0 -8.342)" fill="#d69a5e"/>
    <path id="Path_367" data-name="Path 367" d="M143.843,19.363c-.362,0-.655-.145-.655-.327s.293-.326.655-.326.653.146.653.326-.293.327-.653.327" transform="translate(0 -8.344)" fill="#d69a5e"/>
    <path id="Path_368" data-name="Path 368" d="M142.167,19.473c-.481,0-.873-.194-.873-.437s.392-.435.873-.435.87.195.87.435-.39.437-.87.437" transform="translate(0 -8.345)" fill="#d69a5e"/>
    <path id="Path_369" data-name="Path 369" d="M139.933,19.618c-.643,0-1.163-.26-1.163-.582s.52-.581,1.163-.581,1.163.261,1.163.581-.52.582-1.163.582" transform="translate(0 -8.344)" fill="#d69a5e"/>
    <path id="Path_370" data-name="Path 370" d="M136.954,19.812c-.857,0-1.551-.348-1.551-.776s.694-.775,1.551-.775,1.551.347,1.551.775-.7.776-1.551.776" transform="translate(0 -8.344)" fill="#d69a5e"/>
    <path id="Path_371" data-name="Path 371" d="M132.983,20.07c-1.143,0-2.067-.463-2.067-1.034S131.84,18,132.983,18s2.065.462,2.065,1.033-.923,1.034-2.065,1.034" transform="translate(0 -8.344)" fill="#d69a5e"/>
    <path id="Path_372" data-name="Path 372" d="M119.218,19.174c-.152,0-.275-.061-.275-.139s.123-.136.275-.136.276.061.276.136-.123.139-.276.139" transform="translate(0 -8.344)" fill="#d69a5e"/>
    <path id="Path_373" data-name="Path 373" d="M119.926,19.221c-.2,0-.369-.082-.369-.185s.166-.183.369-.183.367.083.367.183-.165.185-.367.185" transform="translate(0 -8.345)" fill="#d69a5e"/>
    <path id="Path_374" data-name="Path 374" d="M120.867,19.281c-.27,0-.489-.111-.489-.247s.219-.244.489-.244.49.109.49.244-.218.247-.49.247" transform="translate(0 -8.342)" fill="#d69a5e"/>
    <path id="Path_375" data-name="Path 375" d="M122.123,19.363c-.361,0-.653-.145-.653-.327s.292-.326.653-.326.655.146.655.326-.293.327-.655.327" transform="translate(0 -8.344)" fill="#d69a5e"/>
    <path id="Path_376" data-name="Path 376" d="M123.8,19.473c-.481,0-.872-.194-.872-.437s.391-.435.872-.435.873.195.873.435-.391.437-.873.437" transform="translate(0 -8.345)" fill="#d69a5e"/>
    <path id="Path_377" data-name="Path 377" d="M126.033,19.618c-.642,0-1.163-.26-1.163-.582s.521-.581,1.163-.581,1.163.261,1.163.581-.521.582-1.163.582" transform="translate(0 -8.344)" fill="#d69a5e"/>
    <path id="Path_378" data-name="Path 378" d="M129.012,19.812c-.856,0-1.551-.348-1.551-.776s.7-.775,1.551-.775,1.55.347,1.55.775-.695.776-1.55.776" transform="translate(0 -8.344)" fill="#d69a5e"/>
    <path id="Path_379" data-name="Path 379" d="M73.606,0C73.573,2.229,76,4.655,77.739,4.13,76,4.655,73.578,8.574,73.614,10.8c-.036-2.229-2.561-6.055-4.3-6.513,1.737.458,4.257-2.061,4.29-4.29" transform="translate(0 18.926)" fill="#d69a5e"/>
  </g>
</svg>
