<svg id="Group_522" data-name="Group 522" xmlns="http://www.w3.org/2000/svg" xmlns:xlink="http://www.w3.org/1999/xlink" width="34.677" height="30.361" viewBox="0 0 34.677 30.361">
  <defs>
    <clipPath id="clip-path">
      <rect id="Rectangle_570" data-name="Rectangle 570" width="34.677" height="30.361" fill="#fff"/>
    </clipPath>
  </defs>
  <g id="Group_521" data-name="Group 521" clip-path="url(#clip-path)">
    <path id="Path_1037" data-name="Path 1037" d="M4.342,8.7H2.163v.387c0,1.01,0,2.02,0,3.029a.8.8,0,0,1-.872.9,3.4,3.4,0,0,1-.6-.022.731.731,0,0,1-.674-.748C0,11-.011,9.749.018,8.5A2.068,2.068,0,0,1,1.794,6.559c.611-.07,1.233-.04,1.85-.052.212,0,.425,0,.7,0,0-.164,0-.3,0-.437a18.012,18.012,0,0,1,.065-2.419A4.286,4.286,0,0,1,8.723.006C11,0,13.286,0,15.567,0,19.025,0,22.483,0,25.94.006a4.287,4.287,0,0,1,4.337,3.661,17.874,17.874,0,0,1,.062,2.348c0,.151,0,.3,0,.492.732,0,1.418-.009,2.105,0a2.164,2.164,0,0,1,2.187,1.73,2.411,2.411,0,0,1,.043.5q.005,1.675,0,3.35a.814.814,0,0,1-.909.932,3.978,3.978,0,0,1-.463-.006.777.777,0,0,1-.782-.837c-.007-1.022,0-2.043,0-3.065V8.7H30.34V29.221c0,.911-.225,1.135-1.136,1.135-.749,0-1.5,0-2.246,0-.647,0-.932-.291-.941-.937,0-.309-.016-.619,0-.926.016-.258-.089-.345-.33-.314a1.115,1.115,0,0,1-.142,0q-8.217,0-16.433-.007c-.348,0-.5.067-.458.445a6.08,6.08,0,0,1,0,.926.762.762,0,0,1-.776.8q-1.39.029-2.78,0a.758.758,0,0,1-.758-.785c-.008-.142,0-.285,0-.428q0-9.979,0-19.959V8.7m11.9-2.178c-.141-.007-.257-.018-.373-.018q-4.046,0-8.091,0c-.872,0-1.278.416-1.278,1.3q0,4.116,0,8.232c0,.908.393,1.307,1.294,1.307q4.028,0,8.055,0c.126,0,.252-.012.393-.018Zm2.2-.019V17.342h.371q4.045,0,8.091,0c.876,0,1.274-.406,1.275-1.291q0-4.1,0-8.2c0-.955-.388-1.348-1.334-1.348h-8.4ZM17.3,4.344h2.921c.855,0,1.71.011,2.565-.006a1.075,1.075,0,0,0,.025-2.149c-.118-.008-.237-.007-.356-.007H12.233a3.788,3.788,0,0,0-.462.016,1.062,1.062,0,0,0-.924,1.015,1.077,1.077,0,0,0,1.147,1.129c1.769.005,3.538,0,5.307,0M8.68,23.1v0c.462,0,.925.013,1.386,0a.787.787,0,0,0,.774-.775c.072-.785-.108-1.218-.565-1.347a.788.788,0,0,0-.211-.027c-.936,0-1.872-.01-2.808,0a.754.754,0,0,0-.75.749c-.011.177-.007.355,0,.533a.8.8,0,0,0,.861.867c.438.007.877,0,1.315,0m17.35-2.159v0c-.462,0-.924-.009-1.386,0a.776.776,0,0,0-.8.778c-.011.153-.006.308,0,.462a.824.824,0,0,0,.928.914q1.244.006,2.488,0a.817.817,0,0,0,.925-.912c0-.095,0-.19,0-.284,0-.688-.278-.959-.976-.962-.391,0-.782,0-1.173,0" transform="translate(-0.001 -0.001)" fill="#fff"/>
  </g>
</svg>
