<svg id="Group_519" data-name="Group 519" xmlns="http://www.w3.org/2000/svg" xmlns:xlink="http://www.w3.org/1999/xlink" width="26.997" height="34.509" viewBox="0 0 26.997 34.509">
  <defs>
    <clipPath id="clip-path">
      <rect id="Rectangle_569" data-name="Rectangle 569" width="26.997" height="34.509" fill="#fff"/>
    </clipPath>
  </defs>
  <g id="Group_518" data-name="Group 518" clip-path="url(#clip-path)">
    <path id="Path_1025" data-name="Path 1025" d="M79.916,108.471V79.994H99.208a1.521,1.521,0,0,1,1.694,1.69q0,12.564,0,25.128a1.5,1.5,0,0,1-1.636,1.674q-9.505,0-19.011,0c-.1,0-.207-.009-.34-.015m3.006-18.726a7.494,7.494,0,1,0,7.491-7.507,7.522,7.522,0,0,0-7.491,7.507m8.242,13.5H84.7a3.526,3.526,0,0,0-.386.011.712.712,0,0,0-.649.706.729.729,0,0,0,.77.774q6.726.007,13.452,0a.812.812,0,0,0,.273-.053.737.737,0,0,0-.184-1.428c-.128-.013-.257-.009-.386-.009H91.165" transform="translate(-73.906 -73.978)" fill="#fff"/>
    <path id="Path_1026" data-name="Path 1026" d="M4.479,108.446a13.5,13.5,0,0,1-2.008-.017A2.939,2.939,0,0,1,0,105.419Q0,99.375,0,93.331q0-5.06,0-10.12a3.01,3.01,0,0,1,3.233-3.218H4.479Z" transform="translate(0 -73.978)" fill="#fff"/>
    <path id="Path_1027" data-name="Path 1027" d="M63.6,4.464c.474-.1.95-.2,1.422-.309Q71.712,2.577,78.4,1C79.712.686,81.019.368,82.328.059a1.514,1.514,0,0,1,1.987,1.571c.006.914,0,1.828,0,2.741a.616.616,0,0,1-.032.124H63.607L63.6,4.464" transform="translate(-58.813 -0.001)" fill="#fff"/>
    <path id="Path_1028" data-name="Path 1028" d="M189.637,192.627a8.672,8.672,0,0,1-.024-2.78c.011-.075.117-.194.18-.194,1.355-.011,2.711-.009,4.143-.009v2.983Z" transform="translate(-175.26 -175.383)" fill="#fff"/>
    <path id="Path_1029" data-name="Path 1029" d="M141.876,189.851v2.968h-2.1a5.5,5.5,0,0,1,.005-2.968Z" transform="translate(-129.08 -175.574)" fill="#fff"/>
    <path id="Path_1030" data-name="Path 1030" d="M270.744,192.638h-2.091v-2.987c.642,0,1.3,0,1.966.006a.229.229,0,0,1,.162.142,5.714,5.714,0,0,1-.037,2.839" transform="translate(-248.45 -175.388)" fill="#fff"/>
    <path id="Path_1031" data-name="Path 1031" d="M195.982,249.642h3.479a.865.865,0,0,1-.042.245c-.45.855-.9,1.712-1.365,2.556a.325.325,0,0,1-.569.08,9.425,9.425,0,0,1-1.5-2.881" transform="translate(-181.244 -230.868)" fill="#fff"/>
    <path id="Path_1032" data-name="Path 1032" d="M199.069,132.475h-3.554c.228-.515.41-1.007.656-1.464s.567-.912.858-1.364c.134-.209.351-.26.5-.078a9.1,9.1,0,0,1,1.544,2.906" transform="translate(-180.812 -119.722)" fill="#fff"/>
    <path id="Path_1033" data-name="Path 1033" d="M252.711,249.34a6.069,6.069,0,0,1-2.891,2.542c.188-.4.355-.723.5-1.059a6.965,6.965,0,0,0,.4-1.081c.083-.35.26-.429.587-.41.44.027.884.007,1.406.007" transform="translate(-231.033 -230.581)" fill="#fff"/>
    <path id="Path_1034" data-name="Path 1034" d="M150.5,249.432c.61,0,1.134-.01,1.658.01a.372.372,0,0,1,.252.206c.311.753.606,1.513.912,2.287a5.98,5.98,0,0,1-2.822-2.5" transform="translate(-139.185 -230.672)" fill="#fff"/>
    <path id="Path_1035" data-name="Path 1035" d="M253.807,139.63c-.581,0-1.117.008-1.652-.008a.337.337,0,0,1-.234-.185c-.308-.756-.6-1.518-.89-2.256a5.48,5.48,0,0,1,2.776,2.449" transform="translate(-232.153 -126.865)" fill="#fff"/>
    <path id="Path_1036" data-name="Path 1036" d="M153.415,136.46c-.311.8-.614,1.589-.929,2.374a.273.273,0,0,1-.209.123c-.536.01-1.072.006-1.673.006a5.946,5.946,0,0,1,2.811-2.5" transform="translate(-139.278 -126.198)" fill="#fff"/>
  </g>
</svg>
