<svg xmlns="http://www.w3.org/2000/svg" xmlns:xlink="http://www.w3.org/1999/xlink" width="32.239" height="32.239" viewBox="0 0 32.239 32.239">
  <defs>
    <clipPath id="clip-path">
      <rect id="Rectangle_19" data-name="Rectangle 19" width="16.763" height="16.926" fill="#fff"/>
    </clipPath>
  </defs>
  <g id="Group_351" data-name="Group 351" transform="translate(-1243.663 -40.331)">
    <circle id="Ellipse_1" data-name="Ellipse 1" cx="15.585" cy="15.585" r="15.585" transform="matrix(0.999, -0.035, 0.035, 0.999, 1243.663, 41.419)" fill="#25d266"/>
    <g id="Group_12" data-name="Group 12" transform="translate(1251.935 47.988)">
      <g id="Group_11" data-name="Group 11" clip-path="url(#clip-path)">
        <path id="Path_81" data-name="Path 81" d="M8.395,0a8.405,8.405,0,1,1-3.51,16.047A.8.8,0,0,0,4.416,16c-1.271.289-2.537.6-3.806.9-.469.111-.65-.06-.553-.536.265-1.3.54-2.6.8-3.908a.732.732,0,0,0-.046-.423A8.384,8.384,0,0,1,6.757.21C7.3.1,7.849.068,8.395,0M2.341,14.534a1.993,1.993,0,0,0,.229-.024c.6-.139,1.2-.262,1.786-.429a1.281,1.281,0,0,1,1.018.11,6.38,6.38,0,0,0,4.487.577A6.516,6.516,0,1,0,2.6,11.4a1.616,1.616,0,0,1,.145,1.218c-.162.623-.265,1.26-.4,1.921" transform="translate(0)" fill="#fff"/>
        <path id="Path_82" data-name="Path 82" d="M65.417,70.139a4.132,4.132,0,0,1-1.943-.486,9.715,9.715,0,0,1-3.908-3.614A3.826,3.826,0,0,1,59,64.15a1.975,1.975,0,0,1,.491-1.4,4.735,4.735,0,0,1,.613-.611.589.589,0,0,1,.932.209c.252.519.5,1.045.7,1.586a.959.959,0,0,1-.075.593,1.975,1.975,0,0,1-.308.423.554.554,0,0,0-.02.77,8.394,8.394,0,0,0,2.6,2.3.527.527,0,0,0,.774-.136,1.1,1.1,0,0,1,1.455-.368,9.792,9.792,0,0,0,1.033.3.653.653,0,0,1,.385,1.083,4.411,4.411,0,0,1-.266.359,2.112,2.112,0,0,1-1.892.89" transform="translate(-54.843 -57.627)" fill="#fff"/>
      </g>
    </g>
  </g>
</svg>
